LibertinusSerif-MediumItalic.ufo
<glyph name="exclam" format="2">
	<unicode hex="0021"/>
	<advance width="240"/>
	<outline>
		<contour>
			<point x="253.333" y="665" type="curve" smooth="yes"/>
			<point x="208" y="665"/>
			<point x="179.667" y="632.333"/>
			<point x="175.667" y="585" type="curve" smooth="yes"/>
			<point x="167.333" y="477.667"/>
			<point x="173.667" y="377.333"/>
			<point x="150.667" y="211" type="curve"/>
			<point x="150.667" y="208" type="line" smooth="yes"/>
			<point x="150.667" y="198.667"/>
			<point x="156.333" y="194"/>
			<point x="165.667" y="194" type="curve" smooth="yes"/>
			<point x="179.667" y="194"/>
			<point x="186.667" y="208"/>
			<point x="189.333" y="221.333" type="curve" smooth="yes"/>
			<point x="215" y="362.333"/>
			<point x="301.667" y="548.667"/>
			<point x="301.667" y="608.333" type="curve" smooth="yes"/>
			<point x="301.667" y="642"/>
			<point x="283.333" y="665"/>
		</contour>
		<contour>
			<point x="78.6667" y="40" type="curve" smooth="yes"/>
			<point x="78.6667" y="10.3333"/>
			<point x="103" y="-12"/>
			<point x="132.667" y="-12" type="curve" smooth="yes"/>
			<point x="168" y="-12"/>
			<point x="200" y="18"/>
			<point x="200" y="52.6667" type="curve" smooth="yes"/>
			<point x="200" y="82.3333"/>
			<point x="176.333" y="105"/>
			<point name=".hr01" x="146" y="105" type="curve" smooth="yes"/>
			<point x="111.333" y="105"/>
			<point x="78.6667" y="74.3333"/>
		</contour>
	</outline>
</glyph>
<glyph name="ampersand" format="2">
	<unicode hex="0026"/>
	<advance width="713"/>
	<outline>
		<contour>
			<point x="603.667" y="375" type="curve"/>
			<point x="598" y="348"/>
			<point x="547" y="279.667"/>
			<point x="475" y="196.667" type="curve"/>
			<point x="470" y="201.667"/>
			<point x="464.333" y="208.333"/>
			<point x="460" y="216" type="curve"/>
			<point x="412.333" y="306.333"/>
			<point x="397.333" y="342.667"/>
			<point x="389.667" y="364" type="curve"/>
			<point x="387.333" y="368"/>
			<point x="386.667" y="370.333"/>
			<point x="385" y="373.667" type="curve"/>
			<point x="460.667" y="412"/>
			<point x="544.667" y="466.667"/>
			<point x="561" y="535" type="curve"/>
			<point x="563" y="542"/>
			<point x="563.667" y="550"/>
			<point x="563.667" y="557" type="curve"/>
			<point x="563" y="605"/>
			<point x="526" y="643.333"/>
			<point x="464.667" y="646.667" type="curve"/>
			<point x="459.667" y="647.333"/>
			<point x="454.333" y="647.333"/>
			<point x="449.333" y="647.333" type="curve"/>
			<point x="397" y="646.333"/>
			<point x="344.333" y="625.667"/>
			<point x="311.333" y="591.333" type="curve" smooth="yes"/>
			<point x="283.667" y="563.667"/>
			<point x="265.667" y="528.667"/>
			<point x="262.667" y="492" type="curve"/>
			<point x="262.333" y="491"/>
			<point x="262.333" y="490"/>
			<point x="262" y="489" type="curve"/>
			<point x="258.667" y="453.667"/>
			<point x="267" y="419"/>
			<point x="290" y="367.667" type="curve"/>
			<point x="145.667" y="295.333"/>
			<point x="83.3333" y="230"/>
			<point x="71.6667" y="146" type="curve" smooth="yes"/>
			<point x="70.3333" y="137.667"/>
			<point x="69.6667" y="129"/>
			<point x="69.6667" y="120.333" type="curve"/>
			<point x="68.6667" y="79.6667"/>
			<point x="81.3333" y="48.3333"/>
			<point x="104.667" y="28" type="curve"/>
			<point x="131.667" y="3"/>
			<point x="173.667" y="-8"/>
			<point x="221" y="-9.33333" type="curve"/>
			<point x="226.667" y="-9.33333"/>
			<point x="231.667" y="-9.33333"/>
			<point x="236.667" y="-9.33333" type="curve"/>
			<point x="315.667" y="-8"/>
			<point x="376.333" y="31.3333"/>
			<point x="429.667" y="86.6667" type="curve"/>
			<point x="438.333" y="70"/>
			<point x="447.333" y="56.6667"/>
			<point x="457" y="44.3333" type="curve"/>
			<point x="479" y="12.3333"/>
			<point x="503" y="-0.666667"/>
			<point x="525" y="-5.33333" type="curve" smooth="yes"/>
			<point x="539.667" y="-8.66667"/>
			<point x="553.333" y="-8.33333"/>
			<point x="566.667" y="-6.66667" type="curve" smooth="yes"/>
			<point x="599" y="-3"/>
			<point x="638.667" y="25"/>
			<point x="672" y="83" type="curve"/>
			<point x="668" y="89.6667"/>
			<point x="661" y="96"/>
			<point x="655.333" y="98" type="curve"/>
			<point x="628" y="60.6667"/>
			<point x="604.333" y="47.3333"/>
			<point x="577" y="47" type="curve"/>
			<point x="574.667" y="47"/>
			<point x="571.667" y="47"/>
			<point x="568.667" y="47.6667" type="curve" smooth="yes"/>
			<point x="552" y="51.6667"/>
			<point x="533.667" y="73"/>
			<point x="516.667" y="107.333" type="curve"/>
			<point x="508" y="123.333"/>
			<point x="500.667" y="140"/>
			<point x="492.333" y="156" type="curve"/>
			<point x="564.667" y="245"/>
			<point x="626.667" y="331.667"/>
			<point x="648" y="355.667" type="curve" smooth="yes"/>
			<point x="669.333" y="380.667"/>
			<point x="686" y="394"/>
			<point x="705" y="396.333" type="curve" smooth="yes"/>
			<point x="713.333" y="397.333"/>
			<point x="722.333" y="398"/>
			<point x="730.667" y="398" type="curve" smooth="yes"/>
			<point x="735.333" y="398"/>
			<point x="740.333" y="400.667"/>
			<point x="741.333" y="406.333" type="curve" smooth="yes"/>
			<point x="745" y="424.667" type="line"/>
			<point x="744" y="426.667" type="line"/>
			<point x="744" y="426.667"/>
			<point x="701" y="425.333"/>
			<point x="669.667" y="424.667" type="curve"/>
			<point x="664" y="424.667"/>
			<point x="658.667" y="424.667"/>
			<point x="653.333" y="424.667" type="curve"/>
			<point x="618.667" y="425"/>
			<point x="569.667" y="426.667"/>
			<point x="569.667" y="426.667" type="curve"/>
			<point x="566.667" y="424.333" type="line"/>
			<point x="563" y="405" type="line"/>
			<point x="562.333" y="402"/>
			<point x="563" y="398"/>
			<point x="567" y="398" type="curve"/>
			<point x="576.667" y="397.667"/>
			<point x="585.667" y="397.333"/>
			<point x="594.333" y="396.333" type="curve"/>
			<point x="604.667" y="394.333"/>
			<point x="608.333" y="387.333"/>
		</contour>
		<contour>
			<point x="306" y="332.333" type="curve"/>
			<point x="315.333" y="304.667"/>
			<point x="370" y="193.667"/>
			<point x="409" y="123" type="curve"/>
			<point x="353.667" y="62.3333"/>
			<point x="315.333" y="29"/>
			<point x="255" y="27.3333" type="curve" smooth="yes"/>
			<point x="247.667" y="27"/>
			<point x="241.333" y="27.6667"/>
			<point x="234" y="28.3333" type="curve"/>
			<point x="194.667" y="33"/>
			<point x="165" y="65.6667"/>
			<point x="164" y="123" type="curve"/>
			<point x="164" y="142.333"/>
			<point x="166.333" y="161"/>
			<point x="170.667" y="177.333" type="curve" smooth="yes"/>
			<point x="190.333" y="252"/>
			<point x="248.333" y="297.667"/>
		</contour>
		<contour>
			<point x="351" y="514.667" type="curve"/>
			<point x="352" y="539.333"/>
			<point x="361" y="559.667"/>
			<point x="375.667" y="577.667" type="curve"/>
			<point x="391" y="598"/>
			<point x="413.667" y="609"/>
			<point x="432.333" y="610.333" type="curve"/>
			<point x="435.333" y="611"/>
			<point x="438" y="611"/>
			<point x="441" y="610.667" type="curve"/>
			<point x="471.333" y="609.333"/>
			<point x="488.667" y="590"/>
			<point x="490" y="559.667" type="curve" smooth="yes"/>
			<point x="490.333" y="552"/>
			<point x="490.333" y="540.667"/>
			<point x="485.333" y="525.667" type="curve" smooth="yes"/>
			<point x="475.333" y="495.667"/>
			<point x="440" y="455.667"/>
			<point x="370.667" y="412.667" type="curve"/>
			<point x="369.667" y="416"/>
			<point x="367.667" y="420"/>
			<point x="366.667" y="423.333" type="curve"/>
			<point x="354.667" y="458.667"/>
			<point x="349.333" y="494.333"/>
		</contour>
	</outline>
</glyph>
<glyph name="parenleft" format="2">
	<unicode hex="0028"/>
	<advance width="309"/>
	<outline>
		<contour>
			<point x="95" y="252.333" type="curve" smooth="yes"/>
			<point x="90.6667" y="226"/>
			<point x="86.6667" y="194.667"/>
			<point x="86" y="159.333" type="curve" smooth="yes"/>
			<point x="85" y="106.667"/>
			<point x="90.6667" y="47.6667"/>
			<point x="109.667" y="-11.3333" type="curve"/>
			<point x="130.667" y="-84.3333"/>
			<point x="167.333" y="-148"/>
			<point x="222.667" y="-207" type="curve"/>
			<point x="248.333" y="-185" type="line"/>
			<point x="206" y="-124.333"/>
			<point x="181.667" y="-51"/>
			<point x="174.333" y="17.6667" type="curve"/>
			<point x="170" y="46.3333"/>
			<point x="167.667" y="77"/>
			<point x="168" y="108.667" type="curve" smooth="yes"/>
			<point x="168.333" y="153.333"/>
			<point x="173.667" y="201.333"/>
			<point x="183" y="252.333" type="curve" smooth="yes"/>
			<point x="198.667" y="336"/>
			<point x="224.667" y="411.333"/>
			<point x="259.667" y="480" type="curve"/>
			<point x="294.333" y="551.333"/>
			<point x="348.333" y="627.333"/>
			<point x="413" y="688" type="curve"/>
			<point x="396.667" y="711.333" type="line"/>
			<point x="305" y="642.667"/>
			<point x="242.333" y="563.333"/>
			<point x="203.333" y="506" type="curve" smooth="yes"/>
			<point x="149.333" y="427.667"/>
			<point x="112.333" y="343.333"/>
		</contour>
	</outline>
</glyph>
<glyph name="parenright" format="2">
	<unicode hex="0029"/>
	<advance width="314"/>
	<outline>
		<contour>
			<point x="325.667" y="251.667" type="curve"/>
			<point x="330" y="278.333"/>
			<point x="334" y="309.333"/>
			<point x="334.667" y="344.667" type="curve" smooth="yes"/>
			<point x="335.667" y="397.333"/>
			<point x="330" y="456.333"/>
			<point x="311" y="515.333" type="curve"/>
			<point x="290" y="587.667"/>
			<point x="253.333" y="652"/>
			<point x="198" y="711" type="curve"/>
			<point x="172.333" y="689" type="line"/>
			<point x="214.667" y="628.333"/>
			<point x="239" y="555"/>
			<point x="246.333" y="486.333" type="curve"/>
			<point x="250.667" y="457"/>
			<point x="253" y="427"/>
			<point x="252.667" y="395.333" type="curve" smooth="yes"/>
			<point x="252.333" y="350.667"/>
			<point x="247" y="302.667"/>
			<point x="237.667" y="251.667" type="curve" smooth="yes"/>
			<point x="222" y="168"/>
			<point x="196" y="92.6667"/>
			<point x="161" y="24" type="curve"/>
			<point x="126.333" y="-47.3333"/>
			<point x="72.6667" y="-123.333"/>
			<point x="7.66667" y="-184.667" type="curve"/>
			<point x="24" y="-207.333" type="line"/>
			<point x="116" y="-138.667"/>
			<point x="178.667" y="-59.3333"/>
			<point x="217.333" y="-2.66667" type="curve" smooth="yes"/>
			<point x="271.667" y="76.6667"/>
			<point x="308" y="160.667"/>
		</contour>
	</outline>
</glyph>
<glyph name="comma" format="2">
	<unicode hex="002C"/>
	<advance width="227"/>
	<outline>
		<contour>
			<point x="128.333" y="105.667" type="curve" smooth="yes"/>
			<point x="102" y="105.667"/>
			<point x="70.6667" y="85.3333"/>
			<point x="65.6667" y="60.3333" type="curve"/>
			<point x="64.6667" y="57.3333"/>
			<point x="64.6667" y="54.3333"/>
			<point x="64.3333" y="51" type="curve"/>
			<point x="63.6667" y="27.6667"/>
			<point x="76.6667" y="11.6667"/>
			<point x="95.6667" y="4.66667" type="curve"/>
			<point x="96" y="4.33333"/>
			<point x="96.3333" y="4.33333"/>
			<point x="97" y="4" type="curve"/>
			<point x="110.667" y="0"/>
			<point x="126.667" y="-5.33333"/>
			<point x="125.333" y="-23.6667" type="curve" smooth="yes"/>
			<point x="123.667" y="-51"/>
			<point x="68" y="-106"/>
			<point x="17.3333" y="-118" type="curve"/>
			<point x="12.6667" y="-128.333"/>
			<point x="14" y="-137"/>
			<point x="22.6667" y="-143.667" type="curve"/>
			<point x="61" y="-137"/>
			<point x="96" y="-118.667"/>
			<point x="121.333" y="-97.3333" type="curve" smooth="yes"/>
			<point x="153.333" y="-70"/>
			<point x="175" y="-31"/>
			<point x="181.667" y="0.666667" type="curve" smooth="yes"/>
			<point x="184" y="12.6667"/>
			<point x="185.333" y="24.6667"/>
			<point x="185.667" y="35.3333" type="curve" smooth="yes"/>
			<point x="186.667" y="80.3333"/>
			<point x="163.333" y="105.667"/>
		</contour>
	</outline>
</glyph>
<glyph name="hyphen" format="2">
	<unicode hex="002D"/>
	<advance width="341"/>
	<outline>
		<contour>
			<point x="318.333" y="220.333" type="line" smooth="yes"/>
			<point x="336" y="220.333"/>
			<point x="357.333" y="257.333"/>
			<point x="357.333" y="271.667" type="curve" smooth="yes"/>
			<point x="357.333" y="280"/>
			<point x="352.667" y="286.667"/>
			<point x="338" y="286.667" type="curve" smooth="yes"/>
			<point x="118.667" y="286.667" type="line" smooth="yes"/>
			<point x="105" y="286.667"/>
			<point x="82" y="255.667"/>
			<point x="82" y="238.667" type="curve" smooth="yes"/>
			<point x="82" y="229.667"/>
			<point x="88.3333" y="220.333"/>
			<point x="101" y="220.333" type="curve" smooth="yes"/>
		</contour>
	</outline>
</glyph>
<glyph name="three" format="2">
	<unicode hex="0033"/>
	<advance width="467"/>
	<outline>
		<contour>
			<point x="330.333" y="569.333" type="curve" smooth="yes"/>
			<point x="369.333" y="569.333"/>
			<point x="402.333" y="541.333"/>
			<point x="402.333" y="496.667" type="curve" smooth="yes"/>
			<point x="402.333" y="440.333"/>
			<point x="361.333" y="390"/>
			<point x="302" y="359.333" type="curve" smooth="yes"/>
			<point x="278.333" y="347.333"/>
			<point x="253" y="340.333"/>
			<point x="229" y="337" type="curve"/>
			<point x="227.333" y="303.667" type="line"/>
			<point x="241" y="305"/>
			<point x="252.667" y="306.333"/>
			<point x="262.667" y="306.333" type="curve"/>
			<point x="266.333" y="307"/>
			<point x="271" y="307"/>
			<point x="275" y="306.667" type="curve"/>
			<point x="321.667" y="305"/>
			<point name=".hr01" x="374.333" y="279.333"/>
			<point x="374.333" y="202.667" type="curve" smooth="yes"/>
			<point x="374.333" y="153.333"/>
			<point x="354.333" y="110.667"/>
			<point x="326" y="79.3333" type="curve" smooth="yes"/>
			<point x="299" y="50"/>
			<point x="264.667" y="30.6667"/>
			<point x="232.333" y="26" type="curve"/>
			<point x="223.333" y="25.3333"/>
			<point x="215.667" y="25.3333"/>
			<point x="208" y="26.3333" type="curve" smooth="yes"/>
			<point x="182" y="29.3333"/>
			<point x="166.333" y="41.3333"/>
			<point x="157" y="53.3333" type="curve" smooth="yes"/>
			<point x="143.333" y="71"/>
			<point x="133.667" y="94.3333"/>
			<point x="104" y="94.3333" type="curve" smooth="yes"/>
			<point x="83.6667" y="94.3333"/>
			<point x="65.6667" y="76.3333"/>
			<point x="61.6667" y="57.3333" type="curve"/>
			<point x="60.3333" y="53.3333"/>
			<point x="59.6667" y="49.6667"/>
			<point x="60" y="45.6667" type="curve" smooth="yes"/>
			<point x="61" y="36"/>
			<point x="68" y="28"/>
			<point x="79" y="20.3333" type="curve"/>
			<point x="106" y="3"/>
			<point x="157" y="-9"/>
			<point x="196.333" y="-10" type="curve"/>
			<point x="201.333" y="-10"/>
			<point x="206" y="-10"/>
			<point x="210.667" y="-10" type="curve"/>
			<point x="279" y="-7.33333"/>
			<point x="347.333" y="16.6667"/>
			<point x="397.333" y="67.3333" type="curve" smooth="yes"/>
			<point x="436" y="106.667"/>
			<point x="463" y="153.667"/>
			<point x="465.667" y="215" type="curve"/>
			<point x="465.667" y="219.667"/>
			<point x="465.667" y="224"/>
			<point x="465.333" y="228.667" type="curve"/>
			<point x="463.667" y="294.667"/>
			<point x="422.333" y="339.667"/>
			<point x="365.667" y="353.333" type="curve"/>
			<point x="365.667" y="354.333" type="line"/>
			<point x="442.667" y="400.667"/>
			<point x="475.667" y="441.333"/>
			<point x="481" y="491.333" type="curve"/>
			<point name=".hr02" x="482.333" y="500"/>
			<point x="482.667" y="508"/>
			<point x="482.333" y="516.333" type="curve"/>
			<point x="479.333" y="558.667"/>
			<point x="438" y="607"/>
			<point x="367.333" y="609.667" type="curve" smooth="yes"/>
			<point x="361" y="610"/>
			<point x="355.333" y="610"/>
			<point x="349.667" y="610" type="curve"/>
			<point x="284.667" y="607.333"/>
			<point x="235.333" y="579.333"/>
			<point x="203" y="551" type="curve"/>
			<point x="199.333" y="547.333"/>
			<point x="195.667" y="544"/>
			<point x="192" y="540.667" type="curve"/>
			<point x="167.333" y="516.333"/>
			<point x="153.333" y="492.667"/>
			<point x="153.333" y="473.333" type="curve" smooth="yes"/>
			<point x="153.333" y="458.333"/>
			<point x="161" y="446"/>
			<point x="177" y="444.667" type="curve"/>
			<point x="178.333" y="444.333"/>
			<point x="179.667" y="444"/>
			<point x="181.333" y="444" type="curve" smooth="yes"/>
			<point x="210" y="444"/>
			<point x="226.667" y="475"/>
			<point x="231.667" y="497.333" type="curve" smooth="yes"/>
			<point x="232.667" y="502.333"/>
			<point x="234.333" y="507.667"/>
			<point x="235.333" y="511.667" type="curve"/>
			<point x="251.667" y="557"/>
			<point x="303" y="569.333"/>
		</contour>
	</outline>
</glyph>
<glyph name="four" format="2">
	<unicode hex="0034"/>
	<advance width="468"/>
	<outline>
		<contour>
			<point x="480" y="211.667" type="curve" smooth="yes"/>
			<point x="397.333" y="211.667" type="line"/>
			<point x="457.667" y="511.333" type="line" smooth="yes"/>
			<point x="466.667" y="557.333"/>
			<point x="473.667" y="592.667"/>
			<point x="478" y="610" type="curve"/>
			<point x="448" y="610" type="line" smooth="yes"/>
			<point x="435" y="610"/>
			<point x="416.667" y="602"/>
			<point x="408.333" y="598.667" type="curve"/>
			<point x="301.333" y="455"/>
			<point x="195.667" y="337"/>
			<point x="84.3333" y="221" type="curve" smooth="yes"/>
			<point x="80.6667" y="217"/>
			<point x="76.3333" y="213"/>
			<point x="73.6667" y="209" type="curve"/>
			<point x="71.6667" y="197"/>
			<point x="81" y="179.667"/>
			<point x="91.3333" y="172.333" type="curve"/>
			<point x="95" y="169.333"/>
			<point x="99.3333" y="168"/>
			<point x="111" y="168" type="curve" smooth="yes"/>
			<point x="306" y="168" type="line"/>
			<point x="293" y="102.667" type="line"/>
			<point x="291" y="92" type="line" smooth="yes"/>
			<point x="283.333" y="54"/>
			<point x="261" y="38.3333"/>
			<point x="233.333" y="33" type="curve"/>
			<point x="222" y="30.3333"/>
			<point x="210.667" y="29.6667"/>
			<point x="197.667" y="28.6667" type="curve"/>
			<point x="191.333" y="24"/>
			<point x="188.667" y="5.33333"/>
			<point x="194" y="-2" type="curve"/>
			<point x="237" y="-1"/>
			<point x="266" y="0"/>
			<point x="301.333" y="0" type="curve" smooth="yes"/>
			<point x="307.333" y="0"/>
			<point x="314" y="0"/>
			<point x="321" y="0" type="curve" smooth="yes"/>
			<point x="356.667" y="0"/>
			<point x="389.667" y="-1"/>
			<point x="429.667" y="-2" type="curve"/>
			<point x="435.333" y="2.66667"/>
			<point x="438.667" y="23.3333"/>
			<point x="434" y="28.6667" type="curve"/>
			<point x="425" y="29.6667"/>
			<point x="415.333" y="29.6667"/>
			<point x="407" y="31" type="curve"/>
			<point x="382.333" y="33.6667"/>
			<point x="369.333" y="45.6667"/>
			<point x="372.333" y="77.3333" type="curve"/>
			<point x="374.333" y="91.6667"/>
			<point x="376.667" y="106.667"/>
			<point x="380" y="123.333" type="curve" smooth="yes"/>
			<point x="388.667" y="168" type="line"/>
			<point x="458.333" y="168" type="line" smooth="yes"/>
			<point x="472.667" y="168"/>
			<point x="492.667" y="187"/>
			<point x="492.667" y="201.667" type="curve" smooth="yes"/>
			<point x="492.667" y="208.333"/>
			<point x="488" y="211.667"/>
		</contour>
		<contour>
			<point x="373.333" y="503" type="curve"/>
			<point x="314.667" y="211.667" type="line"/>
			<point x="121.667" y="211.667" type="line"/>
			<point x="204" y="300.333"/>
			<point x="294.333" y="398.333"/>
		</contour>
	</outline>
</glyph>
<glyph name="seven" format="2">
	<unicode hex="0037"/>
	<advance width="467"/>
	<outline>
		<contour>
			<point x="271" y="528.667" type="curve" smooth="yes"/>
			<point x="459" y="528.667" type="line"/>
			<point x="354" y="352"/>
			<point x="227" y="146.667"/>
			<point x="129" y="-4" type="curve"/>
			<point x="134" y="-12.6667" type="line"/>
			<point x="212" y="-7.33333" type="line"/>
			<point x="301.333" y="163"/>
			<point x="385.333" y="324.333"/>
			<point x="551" y="597" type="curve"/>
			<point x="541.667" y="608" type="line"/>
			<point x="521" y="604.667"/>
			<point x="497.667" y="600.667"/>
			<point x="464.333" y="600.667" type="curve" smooth="yes"/>
			<point x="241" y="600.667" type="line" smooth="yes"/>
			<point x="212.333" y="600.667"/>
			<point x="210.667" y="606"/>
			<point x="204" y="610.667" type="curve"/>
			<point x="203.333" y="612"/>
			<point x="200.667" y="612.667"/>
			<point x="198" y="612.667" type="curve" smooth="yes"/>
			<point x="194.333" y="612.667"/>
			<point x="190.667" y="612"/>
			<point x="190.333" y="609.667" type="curve"/>
			<point x="179.333" y="563"/>
			<point x="165.333" y="508"/>
			<point x="150" y="455.333" type="curve"/>
			<point x="160.333" y="451.667"/>
			<point x="171" y="450.667"/>
			<point x="181.333" y="452" type="curve"/>
			<point x="209.667" y="514.667"/>
			<point x="226" y="528.667"/>
		</contour>
	</outline>
</glyph>
<glyph name="nine" format="2">
	<unicode hex="0039"/>
	<advance width="467"/>
	<outline>
		<contour>
			<point x="77.3333" y="10" type="curve"/>
			<point x="76" y="-1.33333"/>
			<point x="77" y="-11.3333"/>
			<point x="81.3333" y="-20" type="curve"/>
			<point x="182" y="-9.33333"/>
			<point x="278.333" y="34.3333"/>
			<point x="357" y="107" type="curve" smooth="yes"/>
			<point x="477.333" y="219.667"/>
			<point x="506" y="366"/>
			<point x="506" y="429.333" type="curve" smooth="yes"/>
			<point x="506" y="566"/>
			<point x="427" y="610"/>
			<point x="351.333" y="610" type="curve" smooth="yes"/>
			<point x="219" y="610"/>
			<point x="119.333" y="492"/>
			<point x="119.333" y="376.667" type="curve" smooth="yes"/>
			<point x="119.333" y="316"/>
			<point x="146.333" y="236.333"/>
			<point x="271.667" y="236.333" type="curve" smooth="yes"/>
			<point x="305.667" y="236.333"/>
			<point x="354.333" y="256"/>
			<point x="389.667" y="282" type="curve"/>
			<point x="367.667" y="213.333"/>
			<point x="324" y="151"/>
			<point x="276.667" y="109" type="curve" smooth="yes"/>
			<point x="216.667" y="55.6667"/>
			<point x="146" y="23.6667"/>
		</contour>
		<contour>
			<point x="398.667" y="315.667" type="curve"/>
			<point x="352.333" y="283.667"/>
			<point x="325" y="277"/>
			<point x="302.667" y="277" type="curve" smooth="yes"/>
			<point x="233" y="277"/>
			<point x="211.333" y="338.333"/>
			<point x="211.333" y="388.333" type="curve" smooth="yes"/>
			<point x="211.333" y="465.333"/>
			<point x="260.667" y="576"/>
			<point x="332" y="576" type="curve" smooth="yes"/>
			<point x="365.667" y="576"/>
			<point x="417.333" y="544"/>
			<point x="417.333" y="448.333" type="curve" smooth="yes"/>
			<point x="417.333" y="401.667"/>
			<point x="408.667" y="345.333"/>
		</contour>
	</outline>
</glyph>
<glyph name="colon" format="2">
	<unicode hex="003A"/>
	<advance width="231"/>
	<outline>
		<contour>
			<point x="110.667" y="95" type="curve"/>
			<point x="86.6667" y="82.3333"/>
			<point x="80" y="50.3333"/>
			<point x="93.3333" y="32.3333" type="curve" smooth="yes"/>
			<point x="106.667" y="15"/>
			<point x="131.333" y="12.3333"/>
			<point x="148.667" y="25" type="curve"/>
			<point x="172" y="38"/>
			<point x="179.333" y="69.3333"/>
			<point x="166" y="89.3333" type="curve"/>
			<point x="152.667" y="106"/>
			<point x="128" y="108"/>
		</contour>
		<contour>
			<point x="173.333" y="394.333" type="curve"/>
			<point x="149.333" y="381.667"/>
			<point x="142.667" y="349.667"/>
			<point x="156" y="331.667" type="curve" smooth="yes"/>
			<point name=".hr01" x="169.333" y="314.333"/>
			<point x="194" y="311.667"/>
			<point x="211.333" y="324.333" type="curve"/>
			<point x="234.667" y="337.333"/>
			<point x="242" y="368.667"/>
			<point x="228.667" y="388.667" type="curve"/>
			<point x="215.333" y="405.333"/>
			<point x="190.667" y="407.333"/>
		</contour>
	</outline>
</glyph>
<glyph name="semicolon" format="2">
	<unicode hex="003B"/>
	<advance width="231"/>
	<outline>
		<contour>
			<point x="138" y="105.667" type="curve" smooth="yes"/>
			<point x="111.333" y="105.667"/>
			<point x="80" y="85.3333"/>
			<point x="75" y="60.3333" type="curve"/>
			<point x="74" y="57.3333"/>
			<point x="74" y="54.3333"/>
			<point x="73.6667" y="51" type="curve"/>
			<point x="73" y="27.6667"/>
			<point x="86" y="11.6667"/>
			<point x="105" y="4.66667" type="curve"/>
			<point x="105.333" y="4.33333"/>
			<point x="105.667" y="4.33333"/>
			<point x="106.333" y="4" type="curve"/>
			<point x="120" y="0"/>
			<point x="136" y="-5.33333"/>
			<point x="134.667" y="-23.6667" type="curve" smooth="yes"/>
			<point x="133" y="-51"/>
			<point x="77.3333" y="-106"/>
			<point x="26.6667" y="-118" type="curve"/>
			<point x="22" y="-128.333"/>
			<point x="23.3333" y="-137"/>
			<point x="32" y="-143.667" type="curve"/>
			<point x="70.3333" y="-137"/>
			<point x="105.333" y="-118.667"/>
			<point x="130.667" y="-97.3333" type="curve" smooth="yes"/>
			<point x="162.667" y="-70"/>
			<point x="184.333" y="-31"/>
			<point x="191" y="0.666667" type="curve" smooth="yes"/>
			<point x="193.333" y="12.6667"/>
			<point x="194.667" y="24.6667"/>
			<point x="195" y="35.3333" type="curve" smooth="yes"/>
			<point x="196" y="80.3333"/>
			<point x="172.667" y="105.667"/>
		</contour>
		<contour>
			<point x="125.667" y="352" type="curve" smooth="yes"/>
			<point name=".hr01" x="125.667" y="323.333"/>
			<point x="147.667" y="300.667"/>
			<point x="176.333" y="299" type="curve"/>
			<point x="179.667" y="298.667"/>
			<point x="183" y="298.667"/>
			<point x="186.333" y="299.333" type="curve"/>
			<point x="218.333" y="302"/>
			<point x="243" y="328.667"/>
			<point x="245.667" y="358" type="curve"/>
			<point x="246.333" y="361.333"/>
			<point x="246.333" y="364"/>
			<point x="246" y="367" type="curve"/>
			<point x="244.333" y="393.667"/>
			<point x="223" y="413.667"/>
			<point x="195.667" y="415.333" type="curve"/>
			<point name=".hr02" x="192.333" y="415.667"/>
			<point x="189" y="415.667"/>
			<point x="185" y="415" type="curve"/>
			<point x="151" y="411.667"/>
			<point x="125.667" y="381.667"/>
		</contour>
	</outline>
</glyph>
<glyph name="less" format="2">
	<unicode hex="003C"/>
	<advance width="495"/>
	<outline>
		<contour>
			<point x="180" y="239.333" type="line"/>
			<point x="512.667" y="354.667" type="line"/>
			<point x="523" y="408.667" type="line"/>
			<point x="101" y="262.667" type="line"/>
			<point x="92.3333" y="216" type="line"/>
			<point x="459" y="69.3333" type="line"/>
			<point x="469" y="123.333" type="line"/>
		</contour>
	</outline>
</glyph>
<glyph name="equal" format="2">
	<unicode hex="003D"/>
	<advance width="535"/>
	<outline>
		<contour>
			<point x="529.333" y="319.667" type="line"/>
			<point x="129.333" y="319.667" type="line"/>
			<point x="119.333" y="268" type="line"/>
			<point x="519.333" y="268" type="line"/>
		</contour>
		<contour>
			<point x="506" y="194.667" type="line"/>
			<point x="106" y="194.667" type="line"/>
			<point x="96" y="143.333" type="line"/>
			<point x="496" y="143.333" type="line"/>
		</contour>
	</outline>
</glyph>
<glyph name="greater" format="2">
	<unicode hex="003E"/>
	<advance width="495"/>
	<outline>
		<contour>
			<point x="406.667" y="236.667" type="line"/>
			<point x="74.3333" y="121.333" type="line"/>
			<point x="64.6667" y="67.3333" type="line"/>
			<point x="486.667" y="213" type="line"/>
			<point x="495.333" y="259.667" type="line"/>
			<point x="128.667" y="406.667" type="line"/>
			<point x="118.333" y="352.667" type="line"/>
		</contour>
	</outline>
</glyph>
<glyph name="question" format="2">
	<unicode hex="003F"/>
	<advance width="413"/>
	<outline>
		<contour>
			<point x="225.333" y="565.333" type="curve"/>
			<point x="227" y="593.667"/>
			<point x="260.667" y="625"/>
			<point x="318.333" y="626.333" type="curve"/>
			<point x="322.667" y="626.667"/>
			<point x="326.667" y="626.667"/>
			<point x="331" y="626" type="curve"/>
			<point x="378" y="621.333"/>
			<point x="401" y="576"/>
			<point x="397" y="524" type="curve"/>
			<point x="393.333" y="450.667"/>
			<point x="349.667" y="423"/>
			<point x="304" y="381.333" type="curve" smooth="yes"/>
			<point x="259.667" y="342.333"/>
			<point x="233.667" y="298"/>
			<point x="221.333" y="235.667" type="curve"/>
			<point x="220.333" y="231.333"/>
			<point x="220" y="226.667"/>
			<point x="219" y="223" type="curve"/>
			<point x="215" y="202.667" type="line"/>
			<point x="214" y="198.333"/>
			<point x="213.667" y="194"/>
			<point x="213" y="189.667" type="curve"/>
			<point x="212.333" y="183.667"/>
			<point x="216" y="180.667"/>
			<point x="221.333" y="179.667" type="curve" smooth="yes"/>
			<point x="227" y="178.667"/>
			<point x="232" y="180"/>
			<point x="233.667" y="184" type="curve"/>
			<point x="235" y="183.667"/>
			<point x="236.667" y="183.333"/>
			<point x="238.667" y="183.333" type="curve"/>
			<point x="248.333" y="188"/>
			<point x="251" y="196.333"/>
			<point x="254.333" y="209.333" type="curve"/>
			<point x="257" y="228.333" type="line"/>
			<point x="262.667" y="254.333"/>
			<point x="272" y="277.667"/>
			<point x="288" y="300" type="curve" smooth="yes"/>
			<point x="300.333" y="318"/>
			<point x="320.667" y="332"/>
			<point x="342.667" y="346.667" type="curve" smooth="yes"/>
			<point x="396.333" y="383"/>
			<point x="467.333" y="427.667"/>
			<point x="482.333" y="506.333" type="curve" smooth="yes"/>
			<point x="484.333" y="516.333"/>
			<point x="485.333" y="526.667"/>
			<point x="485.667" y="537" type="curve" smooth="yes"/>
			<point x="487" y="608.333"/>
			<point x="435.333" y="654.667"/>
			<point x="349.333" y="658.667" type="curve"/>
			<point x="343.667" y="658.667"/>
			<point x="339" y="658.667"/>
			<point x="334" y="658.667" type="curve"/>
			<point x="282.333" y="658"/>
			<point x="240.333" y="643.333"/>
			<point x="210.333" y="622.333" type="curve" smooth="yes"/>
			<point x="172.333" y="595.667"/>
			<point x="150" y="564.667"/>
			<point x="143.667" y="535" type="curve"/>
			<point x="142.667" y="529.333"/>
			<point x="141.667" y="524.333"/>
			<point x="142" y="519.333" type="curve"/>
			<point x="142" y="492"/>
			<point x="162.667" y="483"/>
			<point x="178.667" y="483" type="curve" smooth="yes"/>
			<point x="208.667" y="483"/>
			<point x="227.667" y="505"/>
			<point x="229.667" y="526.667" type="curve"/>
			<point x="230.667" y="534.667"/>
			<point x="229.667" y="541"/>
			<point x="228" y="546.333" type="curve"/>
			<point x="226" y="552"/>
			<point x="224.333" y="558"/>
		</contour>
		<contour>
			<point x="148.333" y="42.6667" type="curve" smooth="yes"/>
			<point name=".hr01" x="145.667" y="12.6667"/>
			<point x="166.667" y="-10.6667"/>
			<point x="196.667" y="-10.6667" type="curve" smooth="yes"/>
			<point x="230.667" y="-10.6667"/>
			<point x="260" y="17.3333"/>
			<point x="265.333" y="48.6667" type="curve"/>
			<point x="266.333" y="52"/>
			<point x="266.667" y="55"/>
			<point x="266.667" y="58.3333" type="curve"/>
			<point x="267" y="85.6667"/>
			<point x="246.333" y="106.333"/>
			<point x="217.667" y="106.333" type="curve" smooth="yes"/>
			<point x="181.333" y="106.333"/>
			<point x="151" y="73.6667"/>
		</contour>
	</outline>
</glyph>
<glyph name="at" format="2">
	<unicode hex="0040"/>
	<advance width="882"/>
	<outline>
		<contour>
			<point x="588.667" y="76" type="curve" smooth="yes"/>
			<point x="590.667" y="85.6667"/>
			<point x="603.667" y="116"/>
			<point x="614.667" y="142.667" type="curve" smooth="yes"/>
			<point x="724.667" y="399" type="line"/>
			<point x="709" y="406" type="line"/>
			<point x="660.333" y="386.333" type="line"/>
			<point x="654.333" y="388"/>
			<point x="644" y="388.333"/>
			<point x="626.667" y="383" type="curve"/>
			<point x="624" y="400.333"/>
			<point x="605.333" y="411.667"/>
			<point x="585.333" y="411.667" type="curve" smooth="yes"/>
			<point x="483.333" y="411.667"/>
			<point x="334.333" y="292.667"/>
			<point x="305.333" y="154.667" type="curve" smooth="yes"/>
			<point x="299.667" y="124.667"/>
			<point x="299" y="79.6667"/>
			<point x="325" y="52.6667" type="curve" smooth="yes"/>
			<point x="340" y="37"/>
			<point x="362.667" y="28"/>
			<point x="397.667" y="28" type="curve" smooth="yes"/>
			<point x="426.667" y="28"/>
			<point x="480.333" y="53.3333"/>
			<point x="531.667" y="116.667" type="curve"/>
			<point x="533" y="116" type="line"/>
			<point x="523.667" y="96.3333"/>
			<point x="516.333" y="78"/>
			<point x="514.667" y="65.6667" type="curve"/>
			<point x="512.333" y="52.3333"/>
			<point x="515" y="33.3333"/>
			<point name=".hr01" x="534" y="31" type="curve"/>
			<point x="546.667" y="27"/>
			<point x="566" y="26.6667"/>
			<point name=".hr02" x="585.333" y="27.3333" type="curve"/>
			<point x="742.667" y="39.3333"/>
			<point x="844.333" y="166.333"/>
			<point x="869.667" y="283.667" type="curve" smooth="yes"/>
			<point x="909.667" y="471.333"/>
			<point x="796.667" y="614.333"/>
			<point x="592.667" y="614.333" type="curve" smooth="yes"/>
			<point x="373.333" y="614.333"/>
			<point x="167.667" y="434.667"/>
			<point x="123" y="222.333" type="curve" smooth="yes"/>
			<point x="76" y="4.33333"/>
			<point x="193.667" y="-158.667"/>
			<point x="415" y="-158.667" type="curve" smooth="yes"/>
			<point x="523.667" y="-158.667"/>
			<point x="588.667" y="-123.333"/>
			<point x="656" y="-76.3333" type="curve"/>
			<point x="645.667" y="-54.6667" type="line"/>
			<point x="583.333" y="-100.333"/>
			<point x="517.333" y="-123.667"/>
			<point x="440.667" y="-123.667" type="curve" smooth="yes"/>
			<point x="213.333" y="-123.667"/>
			<point x="175.667" y="70.6667"/>
			<point x="201.667" y="218.667" type="curve" smooth="yes"/>
			<point x="203.333" y="229"/>
			<point x="205.667" y="239"/>
			<point x="208" y="249.333" type="curve" smooth="yes"/>
			<point x="262" y="476.333"/>
			<point x="436.667" y="582"/>
			<point x="576.333" y="582" type="curve" smooth="yes"/>
			<point x="691" y="582"/>
			<point x="837" y="485.333"/>
			<point x="792" y="274.333" type="curve" smooth="yes"/>
			<point x="758.667" y="115.667"/>
			<point name=".hr03" x="673.667" y="63.3333"/>
			<point x="598" y="63.3333" type="curve" smooth="yes"/>
			<point x="593.333" y="63.3333"/>
			<point x="586.333" y="65"/>
		</contour>
		<contour>
			<point x="614.667" y="317.333" type="curve" smooth="yes"/>
			<point x="608" y="287.333"/>
			<point x="581.667" y="234"/>
			<point x="562.667" y="201.333" type="curve"/>
			<point x="559.333" y="196"/>
			<point x="556.667" y="190.667"/>
			<point x="553.333" y="185.667" type="curve"/>
			<point x="512" y="116.667"/>
			<point x="466.333" y="72.6667"/>
			<point x="438" y="71" type="curve"/>
			<point name=".hr04" x="437.333" y="70.6667"/>
			<point x="436.333" y="70.6667"/>
			<point x="435.667" y="70.6667" type="curve"/>
			<point x="382" y="70.6667"/>
			<point x="379.333" y="115"/>
			<point x="389.333" y="162.667" type="curve" smooth="yes"/>
			<point x="402" y="223.667"/>
			<point x="430.333" y="287"/>
			<point x="485" y="336.667" type="curve"/>
			<point x="489.667" y="340.667"/>
			<point x="494" y="344.667"/>
			<point x="498.667" y="348.333" type="curve" smooth="yes"/>
			<point x="529" y="371.333"/>
			<point x="558.333" y="378.667"/>
			<point x="573" y="379.333" type="curve" smooth="yes"/>
			<point x="579" y="379.667"/>
			<point x="584" y="379"/>
			<point x="588.667" y="378.333" type="curve"/>
			<point x="612.667" y="373.667"/>
			<point x="622" y="350.333"/>
		</contour>
	</outline>
</glyph>
<glyph name="D" format="2">
	<unicode hex="0044"/>
	<advance width="677"/>
	<outline>
		<contour>
			<point x="152.333" y="0.333333" type="curve" smooth="yes"/>
			<point x="189.667" y="0.333333"/>
			<point x="240.667" y="-2"/>
			<point x="319.333" y="-2" type="curve" smooth="yes"/>
			<point x="544.333" y="-2"/>
			<point x="704.667" y="156.333"/>
			<point x="704.667" y="379" type="curve" smooth="yes"/>
			<point x="704.667" y="556"/>
			<point x="579" y="646.667"/>
			<point x="412" y="646.667" type="curve" smooth="yes"/>
			<point x="365" y="646.667"/>
			<point x="319" y="645"/>
			<point x="272" y="645" type="curve" smooth="yes"/>
			<point x="231.667" y="645"/>
			<point x="180.333" y="646.333"/>
			<point x="147.667" y="647" type="curve"/>
			<point x="141" y="640.667"/>
			<point x="138.333" y="625"/>
			<point name=".hr01" x="141.333" y="616.333" type="curve"/>
			<point x="194.333" y="614"/>
			<point x="216.333" y="605"/>
			<point x="216.333" y="581" type="curve"/>
			<point x="121.667" y="90" type="line" smooth="yes"/>
			<point x="114" y="49.3333"/>
			<point x="93" y="32"/>
			<point x="29.3333" y="28.6667" type="curve"/>
			<point x="20.6667" y="20.3333"/>
			<point x="16.3333" y="5"/>
			<point x="21.6667" y="-2" type="curve"/>
			<point x="55.3333" y="-1.33333"/>
			<point x="113.667" y="0.333333"/>
		</contour>
		<contour>
			<point x="217.667" y="88.3333" type="curve" smooth="yes"/>
			<point x="309.333" y="559" type="line" smooth="yes"/>
			<point x="317.667" y="600.667"/>
			<point x="349.667" y="610"/>
			<point name=".hr02" x="392.667" y="610" type="curve" smooth="yes"/>
			<point x="537.667" y="610"/>
			<point x="597" y="519"/>
			<point x="597" y="391.333" type="curve" smooth="yes"/>
			<point x="597" y="213.667"/>
			<point x="506.667" y="34.6667"/>
			<point x="307.667" y="34.6667" type="curve" smooth="yes"/>
			<point x="236" y="34.6667"/>
			<point x="215.667" y="42"/>
			<point x="215.667" y="69.3333" type="curve" smooth="yes"/>
			<point x="215.667" y="75"/>
			<point x="216.333" y="81"/>
		</contour>
	</outline>
</glyph>
<glyph name="E" format="2">
	<unicode hex="0045"/>
	<advance width="543"/>
	<outline>
		<contour>
			<point x="370.333" y="363" type="curve" smooth="yes"/>
			<point x="263" y="363" type="line"/>
			<point x="301.667" y="565.333" type="line" smooth="yes"/>
			<point x="307" y="592.333"/>
			<point x="322" y="604.333"/>
			<point x="346" y="604.333" type="curve" smooth="yes"/>
			<point x="440" y="604.333" type="line" smooth="yes"/>
			<point x="512" y="604.333"/>
			<point x="522.667" y="565"/>
			<point x="530.667" y="496" type="curve"/>
			<point x="540.667" y="495.333"/>
			<point x="556" y="497.333"/>
			<point x="563.333" y="501" type="curve"/>
			<point x="567" y="542"/>
			<point x="574.333" y="638"/>
			<point x="574.333" y="646" type="curve" smooth="yes"/>
			<point x="574.333" y="648"/>
			<point x="573.667" y="649"/>
			<point x="570.667" y="649" type="curve"/>
			<point x="553.667" y="646"/>
			<point x="547" y="645"/>
			<point x="524" y="645" type="curve" smooth="yes"/>
			<point x="267.667" y="645" type="line" smooth="yes"/>
			<point x="239.667" y="645"/>
			<point x="183.667" y="646"/>
			<point x="137.667" y="647" type="curve"/>
			<point x="134.667" y="644"/>
			<point x="123.667" y="623"/>
			<point name=".hr01" x="132.333" y="616.333" type="curve"/>
			<point x="184" y="613.667"/>
			<point x="203" y="603.333"/>
			<point x="203" y="578.667" type="curve" smooth="yes"/>
			<point x="203" y="563"/>
			<point x="201.667" y="547.333"/>
			<point x="196.667" y="521.333" type="curve" smooth="yes"/>
			<point x="119.667" y="122" type="line" smooth="yes"/>
			<point x="106.667" y="55.6667"/>
			<point x="85.3333" y="36"/>
			<point x="16.6667" y="28.6667" type="curve"/>
			<point x="10.6667" y="20"/>
			<point x="6.66667" y="5"/>
			<point x="11.6667" y="-2" type="curve"/>
			<point x="54" y="-1"/>
			<point x="103.667" y="0"/>
			<point x="138.333" y="0" type="curve" smooth="yes"/>
			<point x="355.333" y="0" type="line" smooth="yes"/>
			<point x="401.333" y="0"/>
			<point x="472.333" y="-2"/>
			<point x="480.667" y="-2" type="curve"/>
			<point x="499.333" y="50"/>
			<point x="523" y="111.333"/>
			<point x="545.333" y="165" type="curve"/>
			<point x="539" y="169"/>
			<point x="523" y="171"/>
			<point x="512" y="170" type="curve"/>
			<point x="480" y="100"/>
			<point name=".hr02" x="431" y="40"/>
			<point x="361" y="40" type="curve" smooth="yes"/>
			<point x="236.333" y="40" type="line" smooth="yes"/>
			<point x="217.333" y="40"/>
			<point x="206" y="49"/>
			<point x="206" y="67.6667" type="curve" smooth="yes"/>
			<point x="206" y="71"/>
			<point x="206" y="74"/>
			<point x="207" y="78" type="curve"/>
			<point x="254.333" y="321" type="line"/>
			<point x="361.667" y="321" type="line" smooth="yes"/>
			<point x="397.667" y="321"/>
			<point x="413" y="301.333"/>
			<point x="413" y="264.333" type="curve" smooth="yes"/>
			<point x="413" y="254.333" type="line"/>
			<point x="422.333" y="250.333"/>
			<point x="439.667" y="251.667"/>
			<point x="447.667" y="257" type="curve"/>
			<point x="455" y="316.333"/>
			<point x="466.667" y="375.667"/>
			<point x="481.667" y="433.667" type="curve"/>
			<point x="475" y="437.667"/>
			<point x="452.667" y="437.667"/>
			<point x="446" y="433.667" type="curve"/>
			<point x="431" y="377.333"/>
			<point x="418.333" y="363"/>
		</contour>
	</outline>
	<anchor name="t.uni0302" x="385" y="740"/>
</glyph>
<glyph name="G" format="2">
	<unicode hex="0047"/>
	<advance width="684"/>
	<outline>
		<contour>
			<point x="504" y="658" type="curve" smooth="yes"/>
			<point x="283.333" y="658"/>
			<point x="83.6667" y="462"/>
			<point x="83.6667" y="248" type="curve" smooth="yes"/>
			<point x="83.6667" y="90"/>
			<point x="192.333" y="-10"/>
			<point x="362.333" y="-10" type="curve" smooth="yes"/>
			<point x="467.667" y="-10"/>
			<point x="563" y="21"/>
			<point x="647" y="83.3333" type="curve"/>
			<point x="638" y="92.3333"/>
			<point x="635.333" y="100"/>
			<point x="637.333" y="111.333" type="curve" smooth="yes"/>
			<point x="660" y="225.667" type="line" smooth="yes"/>
			<point x="666.667" y="258.667"/>
			<point x="684" y="274"/>
			<point x="718.667" y="276.333" type="curve"/>
			<point x="724.333" y="281.667"/>
			<point x="727.333" y="303.667"/>
			<point x="723" y="308" type="curve"/>
			<point x="697" y="306.333"/>
			<point x="670.667" y="306"/>
			<point x="614.333" y="306" type="curve" smooth="yes"/>
			<point x="558.333" y="306"/>
			<point x="525.333" y="306.333"/>
			<point x="495.667" y="308" type="curve"/>
			<point x="489.333" y="298.333"/>
			<point x="487.333" y="282"/>
			<point x="490" y="271" type="curve"/>
			<point x="518" y="268.667" type="line" smooth="yes"/>
			<point x="550.667" y="266.333"/>
			<point x="562.667" y="258"/>
			<point x="562.667" y="238.667" type="curve" smooth="yes"/>
			<point x="562.667" y="232.667"/>
			<point x="562.667" y="229.667"/>
			<point x="561.667" y="225.667" type="curve"/>
			<point x="532" y="76" type="line"/>
			<point x="495" y="45.3333"/>
			<point x="448" y="30"/>
			<point x="397.333" y="30" type="curve" smooth="yes"/>
			<point x="272.333" y="30"/>
			<point x="191.667" y="120.667"/>
			<point x="191.667" y="263" type="curve" smooth="yes"/>
			<point x="191.667" y="447.667"/>
			<point x="326.667" y="618"/>
			<point x="476.667" y="618" type="curve" smooth="yes"/>
			<point x="590" y="618"/>
			<point x="653.667" y="562.667"/>
			<point x="664.333" y="456" type="curve"/>
			<point x="699" y="462" type="line"/>
			<point x="699" y="503.333"/>
			<point x="702" y="547.667"/>
			<point x="708.333" y="615" type="curve"/>
			<point x="650.333" y="615"/>
			<point x="614.333" y="658"/>
		</contour>
	</outline>
	<anchor name="t.uni0302" x="485.667" y="740"/>
</glyph>
<glyph name="J" format="2">
	<unicode hex="004A"/>
	<advance width="441"/>
	<outline>
		<contour>
			<point x="196" y="332" type="line"/>
			<point x="196" y="307" type="line"/>
			<point x="327.333" y="298" type="line"/>
			<point x="315.667" y="232.333"/>
			<point x="304" y="166"/>
			<point x="291.333" y="102.333" type="curve" smooth="yes"/>
			<point x="262" y="-51.3333"/>
			<point x="216" y="-146"/>
			<point x="150.333" y="-151.667" type="curve"/>
			<point x="138.333" y="-147"/>
			<point x="138.333" y="-127"/>
			<point x="125.333" y="-110" type="curve" smooth="yes"/>
			<point x="113" y="-94.6667"/>
			<point x="98.6667" y="-87.6667"/>
			<point x="76.3333" y="-87.6667" type="curve" smooth="yes"/>
			<point x="45" y="-87.6667"/>
			<point x="31" y="-115"/>
			<point x="31" y="-134.333" type="curve" smooth="yes"/>
			<point x="31" y="-178"/>
			<point x="89" y="-200"/>
			<point x="133.333" y="-200" type="curve" smooth="yes"/>
			<point x="264.333" y="-200"/>
			<point x="350.667" y="-97"/>
			<point x="391.667" y="116.333" type="curve"/>
			<point x="404" y="176"/>
			<point x="413.667" y="238"/>
			<point x="423.667" y="299" type="curve"/>
			<point x="476" y="304" type="line"/>
			<point x="480.333" y="333.667" type="line"/>
			<point x="452.667" y="336.333"/>
			<point x="438" y="338.333"/>
			<point x="432.333" y="353.667" type="curve"/>
			<point x="436" y="398"/>
			<point x="453" y="525.667"/>
			<point x="462.333" y="573.667" type="curve"/>
			<point x="491.667" y="591"/>
			<point x="522.667" y="617"/>
			<point x="522.667" y="642.667" type="curve" smooth="yes"/>
			<point x="522.667" y="662.333"/>
			<point x="507" y="673.333"/>
			<point x="486.667" y="676" type="curve"/>
			<point x="484.667" y="676.667"/>
			<point x="482.333" y="677.333"/>
			<point x="480" y="677.333" type="curve" smooth="yes"/>
			<point x="447" y="677.333"/>
			<point x="426" y="644.667"/>
			<point x="416.333" y="616.667" type="curve"/>
			<point x="371" y="635.333"/>
			<point x="314.667" y="663"/>
			<point x="267.333" y="663" type="curve" smooth="yes"/>
			<point x="178" y="663"/>
			<point x="127" y="608.333"/>
			<point x="122.667" y="558" type="curve"/>
			<point x="122.333" y="556"/>
			<point x="122" y="553.667"/>
			<point x="122" y="551.333" type="curve" smooth="yes"/>
			<point x="122" y="522"/>
			<point x="137.333" y="500.667"/>
			<point x="166" y="500.667" type="curve" smooth="yes"/>
			<point x="188.333" y="500.667"/>
			<point x="205" y="510.667"/>
			<point name=".hr01" x="208" y="531.333" type="curve"/>
			<point x="209" y="533"/>
			<point x="209.333" y="535"/>
			<point x="209.333" y="537" type="curve" smooth="yes"/>
			<point x="209.333" y="562.333"/>
			<point x="181.667" y="578.667"/>
			<point name=".hr02" x="175" y="588.333" type="curve"/>
			<point x="177.333" y="600.333"/>
			<point x="192" y="612"/>
			<point x="211.333" y="612" type="curve" smooth="yes"/>
			<point x="252" y="612"/>
			<point x="287.333" y="587.667"/>
			<point x="333" y="570.667" type="curve" smooth="yes"/>
			<point x="344.667" y="566"/>
			<point x="361.667" y="561.333"/>
			<point x="375.333" y="560.667" type="curve"/>
			<point x="381.667" y="560"/>
			<point x="388" y="560.333"/>
			<point x="393" y="561.333" type="curve"/>
			<point x="393.667" y="558.667" type="line"/>
			<point x="366" y="493.667"/>
			<point x="353.333" y="443.333"/>
			<point x="337.667" y="354" type="curve" smooth="yes"/>
			<point x="334.667" y="338.667" type="line"/>
		</contour>
	</outline>
</glyph>
<glyph name="K" format="2">
	<unicode hex="004B"/>
	<advance width="660"/>
	<outline>
		<contour>
			<point x="212.333" y="553.667" type="curve" smooth="yes"/>
			<point x="121.667" y="91.3333" type="line"/>
			<point x="113" y="43"/>
			<point x="89" y="34"/>
			<point x="27.3333" y="28.6667" type="curve"/>
			<point x="21" y="24"/>
			<point x="18.3333" y="6"/>
			<point x="23.6667" y="-2" type="curve"/>
			<point x="65.3333" y="-1"/>
			<point x="109.667" y="0"/>
			<point x="149" y="0" type="curve" smooth="yes"/>
			<point x="161.667" y="0" type="line" smooth="yes"/>
			<point x="197.667" y="0"/>
			<point x="247.667" y="-1"/>
			<point x="286.333" y="-2" type="curve"/>
			<point x="292" y="2.66667"/>
			<point x="295" y="23.3333"/>
			<point x="290.333" y="28.6667" type="curve"/>
			<point x="240" y="33"/>
			<point x="215.333" y="41.3333"/>
			<point x="215.333" y="69.6667" type="curve" smooth="yes"/>
			<point x="215.333" y="76"/>
			<point x="216" y="83"/>
			<point x="217.667" y="91.3333" type="curve" smooth="yes"/>
			<point x="308.333" y="553.667" type="line" smooth="yes"/>
			<point x="317.667" y="599"/>
			<point x="341.667" y="612.333"/>
			<point x="402.667" y="616.333" type="curve"/>
			<point x="409" y="621"/>
			<point x="411.667" y="639"/>
			<point x="406.333" y="647" type="curve"/>
			<point x="366.667" y="646"/>
			<point x="321.667" y="645"/>
			<point x="286.333" y="645" type="curve" smooth="yes"/>
			<point x="273.667" y="645" type="line" smooth="yes"/>
			<point x="235" y="645"/>
			<point x="184.333" y="646"/>
			<point x="143.667" y="647" type="curve"/>
			<point x="138" y="642.333"/>
			<point x="134.667" y="621.667"/>
			<point x="139.333" y="616.333" type="curve"/>
			<point x="190" y="613"/>
			<point x="215" y="601.333"/>
			<point x="215" y="576.333" type="curve" smooth="yes"/>
			<point x="215" y="570"/>
			<point x="214" y="562.333"/>
		</contour>
		<contour>
			<point x="240.667" y="308" type="line"/>
			<point x="283.333" y="311.667"/>
			<point x="307" y="302.333"/>
			<point x="325" y="271" type="curve" smooth="yes"/>
			<point x="439.333" y="73.3333" type="line" smooth="yes"/>
			<point x="448.333" y="58"/>
			<point x="453" y="28"/>
			<point x="453" y="12" type="curve" smooth="yes"/>
			<point x="453" y="7"/>
			<point x="454.333" y="0"/>
			<point x="457.667" y="-2" type="curve"/>
			<point x="475.667" y="-1"/>
			<point x="494.333" y="0"/>
			<point x="523.667" y="0" type="curve" smooth="yes"/>
			<point x="551" y="0" type="line" smooth="yes"/>
			<point x="576.667" y="0"/>
			<point x="600.667" y="-0.666667"/>
			<point x="633.667" y="-2" type="curve"/>
			<point x="639" y="3"/>
			<point x="643.667" y="19.3333"/>
			<point x="639" y="27.3333" type="curve"/>
			<point x="600.333" y="33.6667"/>
			<point x="585.667" y="42"/>
			<point x="565.667" y="73.3333" type="curve" smooth="yes"/>
			<point x="405.667" y="333" type="line" smooth="yes"/>
			<point x="400" y="342"/>
			<point x="394.333" y="353.333"/>
			<point x="394.333" y="360.667" type="curve" smooth="yes"/>
			<point x="394.333" y="370.667"/>
			<point x="402" y="382"/>
			<point x="419.333" y="397" type="curve" smooth="yes"/>
			<point x="597.667" y="553.667" type="line" smooth="yes"/>
			<point x="648.333" y="598"/>
			<point x="686.667" y="610.667"/>
			<point x="731.333" y="616.333" type="curve"/>
			<point x="740.667" y="620.667"/>
			<point x="744.667" y="639.333"/>
			<point x="742" y="647" type="curve"/>
			<point x="701" y="646"/>
			<point x="689.667" y="645"/>
			<point x="659" y="645" type="curve" smooth="yes"/>
			<point x="644.333" y="645" type="line" smooth="yes"/>
			<point x="607.333" y="645"/>
			<point x="578.667" y="645.333"/>
			<point x="535.667" y="647" type="curve"/>
			<point x="531.333" y="643.667"/>
			<point x="527" y="625"/>
			<point x="530" y="617.667" type="curve"/>
			<point x="563" y="615"/>
			<point x="576.333" y="609"/>
			<point x="576.333" y="598.333" type="curve" smooth="yes"/>
			<point x="576.333" y="587.667"/>
			<point x="564.667" y="572.333"/>
			<point x="538" y="549.667" type="curve" smooth="yes"/>
			<point x="343" y="382.667" type="line" smooth="yes"/>
			<point x="316" y="359.667"/>
			<point x="290.333" y="346.667"/>
			<point x="251.667" y="348" type="curve"/>
		</contour>
	</outline>
	<anchor name="t.uni0302" x="468" y="740"/>
	<guideline x="410" y="407" angle="42.6368"/>
</glyph>
<glyph name="N" format="2">
	<unicode hex="004E"/>
	<advance width="680"/>
	<outline>
		<contour>
			<point x="593.333" y="14" type="curve"/>
			<point x="596.667" y="32"/>
			<point x="603.667" y="74.3333"/>
			<point x="609" y="102.667" type="curve" smooth="yes"/>
			<point x="689" y="514.667" type="line" smooth="yes"/>
			<point x="692.333" y="531.333"/>
			<point x="695.333" y="545.667"/>
			<point x="699" y="559.333" type="curve" smooth="yes"/>
			<point x="706.333" y="588.333"/>
			<point x="723.333" y="609"/>
			<point x="756.333" y="613" type="curve"/>
			<point x="766.333" y="614.667"/>
			<point x="777" y="615"/>
			<point x="788.667" y="616.333" type="curve"/>
			<point x="792" y="617.333"/>
			<point x="797" y="621.667"/>
			<point x="797.333" y="627.333" type="curve"/>
			<point x="798.667" y="633.667"/>
			<point x="798.667" y="640.667"/>
			<point x="798.333" y="645.667" type="curve"/>
			<point x="797" y="647" type="line"/>
			<point x="751.333" y="646"/>
			<point x="721" y="645"/>
			<point x="691.667" y="645" type="curve" smooth="yes"/>
			<point x="660.667" y="645"/>
			<point x="625.667" y="646"/>
			<point x="579.667" y="647" type="curve"/>
			<point x="578" y="645.333"/>
			<point x="577" y="643"/>
			<point x="575.667" y="640" type="curve"/>
			<point x="574.667" y="633.667"/>
			<point x="574" y="626.667"/>
			<point x="574" y="621.667" type="curve"/>
			<point x="576" y="618.667"/>
			<point x="584" y="615.667"/>
			<point x="589.333" y="615.333" type="curve"/>
			<point x="597" y="614.333"/>
			<point x="604.333" y="614"/>
			<point x="611.333" y="613" type="curve"/>
			<point x="639.667" y="610"/>
			<point x="650.333" y="593.333"/>
			<point x="650.333" y="569.667" type="curve" smooth="yes"/>
			<point x="650.333" y="566.333"/>
			<point x="649.667" y="563"/>
			<point x="649" y="559.667" type="curve"/>
			<point x="647" y="546.667"/>
			<point x="645" y="531.667"/>
			<point x="641.333" y="515.333" type="curve"/>
			<point x="584.667" y="222.333" type="line"/>
			<point x="579.333" y="195.667" type="line" smooth="yes"/>
			<point x="576" y="180"/>
			<point x="574" y="171"/>
			<point x="569" y="170.333" type="curve"/>
			<point x="564.333" y="169"/>
			<point x="559.333" y="174.333"/>
			<point x="553" y="184" type="curve" smooth="yes"/>
			<point x="549" y="190"/>
			<point x="544.333" y="199.333"/>
			<point x="537" y="211.333" type="curve"/>
			<point x="356" y="528.667" type="line"/>
			<point x="288.667" y="646.333" type="line"/>
			<point x="146" y="647" type="line"/>
			<point x="144" y="645.667" type="line"/>
			<point x="141" y="639.667"/>
			<point x="139.333" y="627.667"/>
			<point x="140.333" y="621.667" type="curve"/>
			<point x="143" y="618"/>
			<point x="150.333" y="616.333"/>
			<point x="157" y="614.667" type="curve"/>
			<point x="186.667" y="609"/>
			<point x="205.333" y="574.333"/>
			<point x="206.333" y="550" type="curve"/>
			<point x="124.667" y="129.667" type="line" smooth="yes"/>
			<point x="121.333" y="113.667"/>
			<point x="118.333" y="98.6667"/>
			<point x="114.667" y="85.6667" type="curve" smooth="yes"/>
			<point x="107.333" y="58.6667"/>
			<point x="90.6667" y="36"/>
			<point x="56.3333" y="32" type="curve"/>
			<point x="47" y="30.3333"/>
			<point x="36.3333" y="30"/>
			<point x="25.3333" y="28.6667" type="curve"/>
			<point x="18.3333" y="27"/>
			<point x="14.6667" y="22.6667"/>
			<point x="13.6667" y="17" type="curve"/>
			<point x="12.3333" y="10.6667"/>
			<point x="12.6667" y="4.33333"/>
			<point x="12.6667" y="-0.666667" type="curve"/>
			<point x="14" y="-2" type="line"/>
			<point x="55" y="-1"/>
			<point x="84" y="0"/>
			<point x="114.667" y="0" type="curve" smooth="yes"/>
			<point x="123.333" y="0" type="line" smooth="yes"/>
			<point x="154.333" y="0"/>
			<point x="185" y="-1"/>
			<point x="231" y="-2" type="curve"/>
			<point x="233" y="-0.333333"/>
			<point x="234" y="2"/>
			<point x="235" y="5" type="curve"/>
			<point x="236.333" y="17.6667" type="line"/>
			<point x="237.667" y="22"/>
			<point x="237" y="25.6667"/>
			<point x="235.333" y="27.3333" type="curve"/>
			<point x="232" y="29"/>
			<point x="228.667" y="29.3333"/>
			<point x="224.667" y="29.6667" type="curve"/>
			<point x="217" y="30.6667"/>
			<point x="209" y="31"/>
			<point x="202" y="32" type="curve"/>
			<point x="175" y="35"/>
			<point x="163" y="51"/>
			<point x="163" y="75.3333" type="curve" smooth="yes"/>
			<point x="163" y="78.6667"/>
			<point x="163.667" y="82"/>
			<point x="164.333" y="85.3333" type="curve"/>
			<point x="166.333" y="98.3333"/>
			<point x="168.667" y="112.667"/>
			<point x="172" y="129" type="curve" smooth="yes"/>
			<point x="231.333" y="436" type="line" smooth="yes"/>
			<point x="236.667" y="462"/>
			<point x="241.333" y="475.333"/>
			<point x="248" y="475.333" type="curve" smooth="yes"/>
			<point x="252" y="475.333"/>
			<point x="257.333" y="469.667"/>
			<point x="264.667" y="458.667" type="curve"/>
			<point x="266.667" y="455.333"/>
			<point x="269.333" y="451.333"/>
			<point x="272" y="446.667" type="curve" smooth="yes"/>
			<point x="513" y="32" type="line" smooth="yes"/>
			<point x="516.667" y="25.3333"/>
			<point x="521" y="18.6667"/>
			<point x="524.333" y="12.3333" type="curve" smooth="yes"/>
			<point x="532" y="-2"/>
			<point x="541.667" y="-10.6667"/>
			<point x="552.333" y="-10.6667" type="curve" smooth="yes"/>
			<point x="572.333" y="-10.6667"/>
			<point x="584.333" y="-1.66667"/>
		</contour>
	</outline>
</glyph>
<glyph name="O" format="2">
	<unicode hex="004F"/>
	<advance width="678"/>
	<outline>
		<contour>
			<point x="87.3333" y="241.667" type="curve" smooth="yes"/>
			<point x="87.3333" y="82.6667"/>
			<point x="193.333" y="-10"/>
			<point x="340.667" y="-10" type="curve" smooth="yes"/>
			<point x="556.667" y="-10"/>
			<point x="716.333" y="188.333"/>
			<point x="716.333" y="397.333" type="curve" smooth="yes"/>
			<point x="716.333" y="559.333"/>
			<point x="609" y="658"/>
			<point x="465" y="658" type="curve" smooth="yes"/>
			<point x="248.667" y="658"/>
			<point x="87.3333" y="437"/>
		</contour>
		<contour>
			<point x="196.333" y="233.333" type="curve" smooth="yes"/>
			<point x="196.333" y="372.667"/>
			<point x="279.667" y="621.333"/>
			<point x="442.667" y="621.333" type="curve" smooth="yes"/>
			<point x="540.333" y="621.333"/>
			<point x="607.333" y="551.333"/>
			<point x="607.333" y="415.667" type="curve" smooth="yes"/>
			<point x="607.333" y="246"/>
			<point x="518.667" y="26.6667"/>
			<point x="361.667" y="26.6667" type="curve" smooth="yes"/>
			<point x="269.667" y="26.6667"/>
			<point x="196.333" y="102.667"/>
		</contour>
	</outline>
	<anchor name="t.uni0302" x="488.667" y="740"/>
	<anchor name="b.uni0328" x="399.333" y="23.3333"/>
</glyph>
<glyph name="S" format="2">
	<unicode hex="0053"/>
	<advance width="463"/>
	<outline>
		<contour>
			<point x="504" y="627.333" type="curve"/>
			<point x="447.667" y="639.333"/>
			<point x="415.667" y="658"/>
			<point x="355.333" y="658" type="curve" smooth="yes"/>
			<point x="241" y="658"/>
			<point x="137.667" y="574.667"/>
			<point x="137.667" y="456.333" type="curve" smooth="yes"/>
			<point x="137.667" y="378.667"/>
			<point x="192" y="331.667"/>
			<point x="256" y="294" type="curve" smooth="yes"/>
			<point x="284.667" y="277" type="line" smooth="yes"/>
			<point x="329" y="250.667"/>
			<point x="364.333" y="219.333"/>
			<point x="364.333" y="162.667" type="curve" smooth="yes"/>
			<point x="364.333" y="81"/>
			<point x="313" y="28"/>
			<point x="229.667" y="28" type="curve" smooth="yes"/>
			<point x="151.667" y="28"/>
			<point x="98.6667" y="72.3333"/>
			<point x="98.6667" y="171.333" type="curve"/>
			<point x="95" y="172.667"/>
			<point x="90.6667" y="173.667"/>
			<point x="85.3333" y="173.667" type="curve" smooth="yes"/>
			<point x="78.3333" y="173.667"/>
			<point x="69.3333" y="171.667"/>
			<point x="62.3333" y="168.333" type="curve"/>
			<point x="51.6667" y="115"/>
			<point x="50.6667" y="58.6667"/>
			<point x="49.3333" y="6.66667" type="curve"/>
			<point x="106.333" y="6.66667"/>
			<point x="122.333" y="-10"/>
			<point x="220.667" y="-10" type="curve" smooth="yes"/>
			<point x="334.667" y="-10"/>
			<point x="465" y="80"/>
			<point x="465" y="201.667" type="curve" smooth="yes"/>
			<point x="465" y="289.333"/>
			<point x="423.667" y="332"/>
			<point x="350" y="371.333" type="curve" smooth="yes"/>
			<point x="305.667" y="394.667" type="line" smooth="yes"/>
			<point x="269" y="414.333"/>
			<point x="229.333" y="453.667"/>
			<point x="229.333" y="505.333" type="curve" smooth="yes"/>
			<point x="229.333" y="573.333"/>
			<point x="287.333" y="621.333"/>
			<point x="349.333" y="621.333" type="curve" smooth="yes"/>
			<point x="437.667" y="621.333"/>
			<point x="450" y="556.333"/>
			<point name=".hr01" x="455.333" y="490.333" type="curve"/>
			<point x="459.667" y="488.333"/>
			<point name=".hr02" x="465.333" y="486.667"/>
			<point x="471.667" y="486.667" type="curve" smooth="yes"/>
			<point x="478.667" y="486.667"/>
			<point x="486" y="487.667"/>
			<point name=".hr03" x="492.333" y="490.667" type="curve"/>
			<point x="499.667" y="541.667"/>
			<point x="502.333" y="574.667"/>
		</contour>
	</outline>
	<anchor name="t.uni0302" x="375.667" y="740"/>
</glyph>
<glyph name="U" format="2">
	<unicode hex="0055"/>
	<advance width="657"/>
	<outline>
		<contour>
			<point x="123" y="164.667" type="curve" smooth="yes"/>
			<point x="123" y="37.3333"/>
			<point x="208.333" y="-10"/>
			<point x="322.333" y="-10" type="curve" smooth="yes"/>
			<point x="520.667" y="-10"/>
			<point x="594" y="119.667"/>
			<point x="628.333" y="295.333" type="curve" smooth="yes"/>
			<point x="677.333" y="542.667" type="line"/>
			<point x="687" y="597.333"/>
			<point x="702.667" y="610.667"/>
			<point x="763" y="615.667" type="curve"/>
			<point x="767.667" y="624.333"/>
			<point x="771.333" y="638.333"/>
			<point x="768.667" y="647" type="curve"/>
			<point x="732.333" y="646"/>
			<point x="705.667" y="645"/>
			<point x="672.333" y="645" type="curve" smooth="yes"/>
			<point x="641.667" y="645"/>
			<point x="607.667" y="646"/>
			<point x="561.667" y="647" type="curve"/>
			<point x="555.667" y="638.333"/>
			<point x="552.333" y="626.333"/>
			<point x="555.333" y="615.667" type="curve"/>
			<point x="609" y="612.667"/>
			<point x="629" y="606"/>
			<point x="629" y="577.333" type="curve" smooth="yes"/>
			<point x="629" y="563.667"/>
			<point x="626.333" y="541"/>
			<point x="623.667" y="527.333" type="curve" smooth="yes"/>
			<point x="575" y="277.333" type="line" smooth="yes"/>
			<point x="550.333" y="154.333"/>
			<point x="507" y="32"/>
			<point x="350.333" y="32" type="curve" smooth="yes"/>
			<point x="269" y="32"/>
			<point x="220" y="92.6667"/>
			<point x="220" y="173" type="curve" smooth="yes"/>
			<point x="220" y="203.333"/>
			<point x="225.667" y="237"/>
			<point x="232" y="269.333" type="curve" smooth="yes"/>
			<point x="287.667" y="554.667" type="line" smooth="yes"/>
			<point x="295.667" y="598.667"/>
			<point x="317.667" y="613"/>
			<point x="385.667" y="615.667" type="curve"/>
			<point x="391" y="625"/>
			<point x="394" y="639"/>
			<point x="392" y="647" type="curve"/>
			<point x="349" y="646"/>
			<point x="304" y="645"/>
			<point x="258.667" y="645" type="curve" smooth="yes"/>
			<point x="215.333" y="645"/>
			<point x="175.333" y="646"/>
			<point x="130.333" y="647" type="curve"/>
			<point x="124.333" y="638.333"/>
			<point x="121.333" y="626"/>
			<point x="125" y="615.667" type="curve"/>
			<point x="170.333" y="613"/>
			<point x="193" y="608.667"/>
			<point x="193" y="579" type="curve" smooth="yes"/>
			<point x="193" y="569"/>
			<point x="190.333" y="546"/>
			<point x="186.333" y="528" type="curve"/>
			<point x="130.333" y="236.333" type="line" smooth="yes"/>
			<point x="125" y="209.333"/>
			<point x="123" y="185"/>
		</contour>
	</outline>
	<anchor name="t.uni0302" x="478" y="740"/>
</glyph>
<glyph name="V" format="2">
	<unicode hex="0056"/>
	<advance width="622"/>
	<outline>
		<contour>
			<point x="636.667" y="549.667" type="line" smooth="yes"/>
			<point x="661" y="591.667"/>
			<point x="692.667" y="611.333"/>
			<point x="742.333" y="616.333" type="curve"/>
			<point x="748.667" y="622.333"/>
			<point x="750.333" y="641"/>
			<point x="744.667" y="647" type="curve"/>
			<point x="712.667" y="646"/>
			<point x="690" y="645"/>
			<point x="662.333" y="645" type="curve" smooth="yes"/>
			<point x="659" y="645"/>
			<point x="655" y="645"/>
			<point x="651.667" y="645" type="curve" smooth="yes"/>
			<point x="621.333" y="645"/>
			<point x="574.333" y="646"/>
			<point x="536" y="647" type="curve"/>
			<point x="529.667" y="641"/>
			<point x="528" y="622.333"/>
			<point x="533.667" y="616.333" type="curve"/>
			<point x="579" y="612.667"/>
			<point x="611.333" y="601.333"/>
			<point x="590.333" y="562.667" type="curve" smooth="yes"/>
			<point x="395" y="204.667" type="line"/>
			<point x="362.333" y="146" type="line"/>
			<point x="360" y="143.333"/>
			<point x="358" y="141"/>
			<point x="355" y="141.667" type="curve"/>
			<point x="345" y="213.333" type="line"/>
			<point x="294" y="572.333" type="line" smooth="yes"/>
			<point x="289" y="605.333"/>
			<point x="329" y="614"/>
			<point x="368" y="616.333" type="curve"/>
			<point x="374.333" y="622.333"/>
			<point x="376" y="641"/>
			<point x="370.333" y="647" type="curve"/>
			<point x="340.333" y="646"/>
			<point x="282.333" y="645"/>
			<point x="246.667" y="645" type="curve" smooth="yes"/>
			<point x="240" y="645"/>
			<point x="233.667" y="645"/>
			<point x="226.333" y="645" type="curve" smooth="yes"/>
			<point x="187.667" y="645"/>
			<point x="156" y="646"/>
			<point x="119.667" y="647" type="curve"/>
			<point x="113.333" y="641"/>
			<point x="112" y="622.333"/>
			<point x="117.667" y="616.333" type="curve"/>
			<point x="158" y="611.667"/>
			<point x="184" y="610"/>
			<point x="192.333" y="557" type="curve" smooth="yes"/>
			<point x="280.667" y="11" type="line" smooth="yes"/>
			<point x="283" y="-4"/>
			<point x="291.333" y="-12"/>
			<point x="301.667" y="-12" type="curve" smooth="yes"/>
			<point x="310.667" y="-12"/>
			<point x="320" y="-5.66667"/>
			<point x="328.333" y="6.66667" type="curve" smooth="yes"/>
			<point x="331.667" y="11.6667"/>
			<point x="335.667" y="17.3333"/>
			<point x="338.667" y="23.6667" type="curve"/>
		</contour>
	</outline>
</glyph>
<glyph name="W" format="2">
	<unicode hex="0057"/>
	<advance width="935"/>
	<outline>
		<contour>
			<point x="633.667" y="593.667" type="curve"/>
			<point x="614.667" y="591.667"/>
			<point x="595" y="593.667"/>
			<point x="585.667" y="593.667" type="curve"/>
			<point x="385.667" y="214" type="line"/>
			<point x="356.333" y="162.667" type="line"/>
			<point x="350.667" y="217.333" type="line"/>
			<point x="313" y="572.333" type="line" smooth="yes"/>
			<point x="309.667" y="604.667"/>
			<point x="347.667" y="614"/>
			<point x="386.667" y="616.333" type="curve"/>
			<point x="393" y="622.333"/>
			<point x="394.667" y="641"/>
			<point x="389" y="647" type="curve"/>
			<point x="355" y="646"/>
			<point x="289.667" y="645"/>
			<point x="252.667" y="645" type="curve" smooth="yes"/>
			<point x="217.667" y="645"/>
			<point x="173.333" y="646"/>
			<point x="137.667" y="647" type="curve"/>
			<point x="131.333" y="641"/>
			<point x="130" y="622.333"/>
			<point x="135.667" y="616.333" type="curve"/>
			<point x="173.333" y="611"/>
			<point x="199.333" y="604.333"/>
			<point x="209" y="568.333" type="curve"/>
			<point x="211.333" y="560.667"/>
			<point x="213.333" y="552"/>
			<point x="214.333" y="541.667" type="curve"/>
			<point x="280.667" y="11.6667" type="line" smooth="yes"/>
			<point x="282.667" y="-4.66667"/>
			<point x="288.667" y="-10.6667"/>
			<point x="299" y="-10.6667" type="curve" smooth="yes"/>
			<point x="307.667" y="-10.6667"/>
			<point x="315.333" y="-6.66667"/>
			<point x="325.333" y="11.6667" type="curve" smooth="yes"/>
			<point x="518.333" y="367.667" type="line" smooth="yes"/>
			<point x="531" y="391"/>
			<point x="544" y="415.333"/>
			<point x="551.333" y="428" type="curve"/>
			<point x="552" y="428"/>
			<point x="554" y="428"/>
			<point x="554.667" y="426.667" type="curve"/>
			<point x="557" y="406.333"/>
			<point x="560" y="393.667"/>
			<point x="563.667" y="364.667" type="curve" smooth="yes"/>
			<point x="612" y="11.6667" type="line" smooth="yes"/>
			<point x="614" y="-4"/>
			<point x="622.667" y="-10.6667"/>
			<point x="632.333" y="-10.6667" type="curve" smooth="yes"/>
			<point x="641" y="-10.6667"/>
			<point x="648.667" y="-7"/>
			<point x="658.667" y="11" type="curve" smooth="yes"/>
			<point x="955.667" y="549.667" type="line" smooth="yes"/>
			<point x="979" y="591.333"/>
			<point x="1006.33" y="611.333"/>
			<point x="1056" y="616.333" type="curve"/>
			<point x="1062.33" y="622.333"/>
			<point x="1064" y="641"/>
			<point x="1058.33" y="647" type="curve"/>
			<point x="1029.67" y="646"/>
			<point x="1005" y="645.667"/>
			<point x="977.333" y="645" type="curve"/>
			<point x="969.333" y="645"/>
			<point x="962" y="645"/>
			<point x="954.333" y="645" type="curve" smooth="yes"/>
			<point x="925.667" y="645"/>
			<point x="881" y="646"/>
			<point x="845" y="647" type="curve"/>
			<point x="838.667" y="641"/>
			<point x="837" y="622.333"/>
			<point x="842.667" y="616.333" type="curve"/>
			<point x="888" y="612.667"/>
			<point x="925.667" y="601.333"/>
			<point x="904.667" y="562.667" type="curve" smooth="yes"/>
			<point x="719" y="213.333" type="line"/>
			<point x="688" y="155.333" type="line"/>
			<point x="681.333" y="210" type="line"/>
			<point x="646" y="493" type="line" smooth="yes"/>
			<point x="641.667" y="527.333"/>
			<point x="635.333" y="582"/>
		</contour>
	</outline>
</glyph>
<glyph name="Z" format="2">
	<unicode hex="005A"/>
	<advance width="585"/>
	<outline>
		<contour>
			<point x="265.333" y="40.6667" type="curve" smooth="yes"/>
			<point x="237" y="40.6667"/>
			<point x="196.333" y="43.3333"/>
			<point x="187.333" y="49.3333" type="curve"/>
			<point x="178" y="52.6667"/>
			<point x="182" y="59.6667"/>
			<point x="191.333" y="72" type="curve"/>
			<point x="645.667" y="591" type="line" smooth="yes"/>
			<point x="671.333" y="620.667"/>
			<point x="677.667" y="634"/>
			<point x="678.333" y="643.667" type="curve" smooth="yes"/>
			<point x="678.667" y="649.667"/>
			<point x="675" y="652.333"/>
			<point x="660" y="652.333" type="curve" smooth="yes"/>
			<point x="648" y="652.333"/>
			<point x="626" y="647"/>
			<point x="597" y="645" type="curve"/>
			<point x="327.333" y="645" type="line" smooth="yes"/>
			<point x="272.667" y="645"/>
			<point x="238.667" y="653.333"/>
			<point x="203.333" y="656.333" type="curve"/>
			<point x="192.667" y="620.333"/>
			<point x="176.333" y="571.667"/>
			<point x="165.667" y="544" type="curve"/>
			<point x="164" y="528.333"/>
			<point x="169" y="501"/>
			<point x="165" y="484.333" type="curve"/>
			<point x="190.667" y="529"/>
			<point x="214" y="562"/>
			<point x="266" y="562" type="curve"/>
			<point x="309" y="588.667"/>
			<point x="418.667" y="604"/>
			<point x="462.333" y="604" type="curve" smooth="yes"/>
			<point x="482.333" y="604"/>
			<point x="516.667" y="602.667"/>
			<point x="529" y="598.667" type="curve"/>
			<point x="534" y="595.333"/>
			<point x="527.667" y="587"/>
			<point x="520.667" y="579" type="curve" smooth="yes"/>
			<point x="47.3333" y="38" type="line"/>
			<point x="40.3333" y="30.6667"/>
			<point x="35" y="20.6667"/>
			<point x="34.6667" y="13" type="curve"/>
			<point x="34" y="4.33333"/>
			<point x="38" y="0"/>
			<point x="50.3333" y="0" type="curve" smooth="yes"/>
			<point x="379.333" y="0" type="line" smooth="yes"/>
			<point x="420.667" y="0"/>
			<point x="522" y="-3"/>
			<point x="534" y="-4" type="curve"/>
			<point x="544.667" y="33.3333"/>
			<point x="560.333" y="73.3333"/>
			<point x="574.333" y="108.333" type="curve"/>
			<point x="576.667" y="118.333"/>
			<point x="572.333" y="150"/>
			<point x="575" y="170.667" type="curve"/>
			<point x="550" y="124"/>
			<point x="518.667" y="85"/>
			<point x="466" y="85" type="curve"/>
			<point x="424.333" y="58.3333"/>
			<point x="308.333" y="40.6667"/>
		</contour>
	</outline>
</glyph>
<glyph name="backslash" format="2">
	<unicode hex="005C"/>
	<advance width="316"/>
	<outline>
		<contour>
			<point x="181.333" y="698" type="line"/>
			<point x="130.333" y="698" type="line"/>
			<point x="261" y="-48" type="line"/>
			<point x="312" y="-48" type="line"/>
		</contour>
	</outline>
</glyph>
<glyph name="bracketright" format="2">
	<unicode hex="005D"/>
	<advance width="355"/>
	<outline>
		<contour>
			<point x="403" y="693.667" type="line"/>
			<point x="178" y="693.667" type="line"/>
			<point x="175" y="687.667"/>
			<point x="170.333" y="660.333"/>
			<point x="171.333" y="655" type="curve"/>
			<point x="248.667" y="651.333"/>
			<point x="297.667" y="646.333"/>
			<point x="312.333" y="617.333" type="curve"/>
			<point x="175" y="-121" type="line"/>
			<point x="150.333" y="-150"/>
			<point x="93" y="-155"/>
			<point x="17.3333" y="-158.333" type="curve"/>
			<point x="14.3333" y="-164.333"/>
			<point x="11.6667" y="-192.333"/>
			<point x="12.6667" y="-197.667" type="curve"/>
			<point x="235" y="-197.667" type="line"/>
		</contour>
	</outline>
</glyph>
<glyph name="asciicircum" format="2">
	<unicode hex="005E"/>
	<advance width="518"/>
	<outline>
		<contour>
			<point x="351.333" y="585" type="line"/>
			<point x="403.333" y="346.667" type="line"/>
			<point x="450.667" y="346.667" type="line"/>
			<point x="385.333" y="650" type="line"/>
			<point x="344.333" y="650" type="line"/>
			<point x="162" y="346.667" type="line"/>
			<point x="209.333" y="346.667" type="line"/>
		</contour>
	</outline>
</glyph>
<glyph name="grave" format="2">
	<unicode hex="0060"/>
	<advance width="318"/>
	<outline>
		<contour>
			<point x="248" y="663.667" type="line"/>
			<point x="245" y="664.667"/>
			<point x="237.667" y="665.667"/>
			<point x="232.667" y="665.667" type="curve" smooth="yes"/>
			<point x="203" y="665.667"/>
			<point x="183.333" y="649"/>
			<point x="178.667" y="640.667" type="curve"/>
			<point x="178.667" y="627.333" type="line"/>
			<point x="313" y="518.667" type="line" smooth="yes"/>
			<point x="330" y="504.667"/>
			<point x="339.667" y="500"/>
			<point x="347.667" y="500" type="curve" smooth="yes"/>
			<point x="355" y="500"/>
			<point x="360.333" y="505.667"/>
			<point x="360.333" y="512" type="curve" smooth="yes"/>
			<point x="360.333" y="517.333"/>
			<point x="357.667" y="526.333"/>
			<point x="350" y="536" type="curve" smooth="yes"/>
		</contour>
	</outline>
	<guideline x="347" y="535" angle="308.99"/>
	<guideline x="313" y="520" angle="140.87"/>
	<guideline x="0" y="500" angle="0"/>
</glyph>
<glyph name="a" format="2">
	<unicode hex="0061"/>
	<advance width="497"/>
	<outline>
		<contour>
			<point x="470.333" y="439" type="curve" smooth="yes"/>
			<point x="465.667" y="439"/>
			<point x="457.667" y="437.667"/>
			<point x="450.667" y="435.667" type="curve"/>
			<point x="442.667" y="432.667"/>
			<point x="430.333" y="430"/>
			<point x="416" y="430" type="curve" smooth="yes"/>
			<point x="407.333" y="430"/>
			<point x="393" y="431"/>
			<point x="376.667" y="434" type="curve"/>
			<point x="361.667" y="437.333"/>
			<point x="344.333" y="439"/>
			<point x="331" y="439" type="curve" smooth="yes"/>
			<point x="190" y="439"/>
			<point x="67.3333" y="253.667"/>
			<point x="67.3333" y="122.667" type="curve" smooth="yes"/>
			<point x="67.3333" y="57"/>
			<point x="89.3333" y="-10"/>
			<point x="159.667" y="-10" type="curve" smooth="yes"/>
			<point x="220" y="-10"/>
			<point x="273.667" y="39.6667"/>
			<point x="335.333" y="131.667" type="curve"/>
			<point x="338" y="129.667" type="line"/>
			<point x="331" y="109.667" type="line" smooth="yes"/>
			<point x="324.333" y="90.3333"/>
			<point x="318.333" y="60"/>
			<point x="318.333" y="42" type="curve" smooth="yes"/>
			<point x="318.333" y="11.6667"/>
			<point x="332.667" y="-10"/>
			<point x="365.333" y="-10" type="curve" smooth="yes"/>
			<point x="418.667" y="-10"/>
			<point x="477.333" y="30.6667"/>
			<point x="508" y="85.3333" type="curve"/>
			<point x="503.667" y="94.3333"/>
			<point x="496.333" y="105.333"/>
			<point x="483" y="105.333" type="curve"/>
			<point x="456.333" y="70.6667"/>
			<point x="432.333" y="54.3333"/>
			<point x="422.333" y="54.3333" type="curve" smooth="yes"/>
			<point x="417.667" y="54.3333"/>
			<point x="410.667" y="58.3333"/>
			<point x="410.667" y="72" type="curve" smooth="yes"/>
			<point x="410.667" y="77.6667"/>
			<point x="412" y="86.3333"/>
			<point x="419.667" y="121.333" type="curve" smooth="yes"/>
			<point x="462.333" y="315.333" type="line" smooth="yes"/>
			<point x="474.333" y="368"/>
			<point x="477.667" y="384.667"/>
			<point x="487.333" y="421.667" type="curve"/>
			<point x="487.333" y="432.333"/>
			<point x="481.333" y="439"/>
		</contour>
		<contour>
			<point x="352" y="221.333" type="curve"/>
			<point x="322.333" y="167.333"/>
			<point x="249" y="58.3333"/>
			<point x="201" y="58.3333" type="curve" smooth="yes"/>
			<point x="168" y="58.3333"/>
			<point x="162.333" y="109.333"/>
			<point x="162.333" y="142" type="curve" smooth="yes"/>
			<point x="162.333" y="224.333"/>
			<point x="229" y="404.333"/>
			<point x="334.333" y="404.333" type="curve" smooth="yes"/>
			<point x="355" y="404.333"/>
			<point x="372.667" y="397.667"/>
			<point x="386" y="385.333" type="curve"/>
			<point x="384.667" y="360.667"/>
			<point x="377" y="285.333"/>
		</contour>
	</outline>
	<anchor name="t.uni0302" x="383" y="500"/>
</glyph>
<glyph name="c" format="2">
	<unicode hex="0063"/>
	<advance width="404"/>
	<outline>
		<contour>
			<point x="403" y="101.667" type="curve"/>
			<point x="401" y="112"/>
			<point x="390" y="123.333"/>
			<point x="381.333" y="123.333" type="curve"/>
			<point x="334" y="75"/>
			<point x="297.667" y="54.6667"/>
			<point x="262" y="54.6667" type="curve" smooth="yes"/>
			<point x="209" y="54.6667"/>
			<point x="178" y="98"/>
			<point x="178" y="180" type="curve" smooth="yes"/>
			<point x="178" y="296.667"/>
			<point x="240.333" y="406"/>
			<point x="314.667" y="406" type="curve" smooth="yes"/>
			<point x="341.333" y="406"/>
			<point x="359" y="392"/>
			<point x="359" y="369.667" type="curve" smooth="yes"/>
			<point x="359" y="353.667"/>
			<point x="350.667" y="343.667"/>
			<point x="350.667" y="329.333" type="curve" smooth="yes"/>
			<point x="350.667" y="308.333"/>
			<point x="367" y="292.667"/>
			<point x="389" y="292.667" type="curve" smooth="yes"/>
			<point x="416.667" y="292.667"/>
			<point x="440.667" y="318.333"/>
			<point x="440.667" y="348.333" type="curve" smooth="yes"/>
			<point x="440.667" y="409.333"/>
			<point x="401" y="440.667"/>
			<point x="325.333" y="440.667" type="curve" smooth="yes"/>
			<point x="195.333" y="440.667"/>
			<point x="79.3333" y="302"/>
			<point x="79.3333" y="150.333" type="curve" smooth="yes"/>
			<point x="79.3333" y="49"/>
			<point x="130.667" y="-10"/>
			<point x="217.667" y="-10" type="curve" smooth="yes"/>
			<point x="280.333" y="-10"/>
			<point x="351" y="32.3333"/>
		</contour>
	</outline>
</glyph>
<glyph name="d" format="2">
	<unicode hex="0064"/>
	<advance width="513"/>
	<outline>
		<contour>
			<point x="443.333" y="563" type="curve" smooth="yes"/>
			<point x="405" y="382.333" type="line"/>
			<point x="404" y="382.333" type="line"/>
			<point x="392" y="412.333"/>
			<point x="363.333" y="439"/>
			<point x="322" y="439" type="curve" smooth="yes"/>
			<point x="202.333" y="439"/>
			<point x="73.3333" y="281.667"/>
			<point x="73.3333" y="128.333" type="curve" smooth="yes"/>
			<point x="73.3333" y="69.6667"/>
			<point x="93.3333" y="-10"/>
			<point x="176.333" y="-10" type="curve" smooth="yes"/>
			<point x="235.333" y="-10"/>
			<point x="282.333" y="30"/>
			<point x="342.333" y="118" type="curve"/>
			<point x="345" y="116.333" type="line"/>
			<point x="340" y="97.3333" type="line"/>
			<point x="333.667" y="70"/>
			<point x="330.333" y="50.6667"/>
			<point x="330.333" y="38" type="curve" smooth="yes"/>
			<point x="330.333" y="15"/>
			<point x="340" y="-10"/>
			<point x="384" y="-10" type="curve" smooth="yes"/>
			<point x="439.333" y="-10"/>
			<point x="486.333" y="30"/>
			<point x="520.333" y="86.3333" type="curve"/>
			<point x="516" y="95.3333"/>
			<point x="508.667" y="106.333"/>
			<point x="495.333" y="106.333" type="curve"/>
			<point x="468.667" y="71.6667"/>
			<point x="444.667" y="55.3333"/>
			<point x="434.667" y="55.3333" type="curve" smooth="yes"/>
			<point x="430" y="55.3333"/>
			<point x="423" y="59.3333"/>
			<point x="423" y="70" type="curve" smooth="yes"/>
			<point x="423" y="76.6667"/>
			<point x="425" y="92.3333"/>
			<point x="432" y="122.333" type="curve" smooth="yes"/>
			<point x="538" y="583" type="line" smooth="yes"/>
			<point x="550.667" y="637.333"/>
			<point x="560.333" y="678.333"/>
			<point x="562.333" y="684.667" type="curve"/>
			<point x="562.333" y="693"/>
			<point x="559.333" y="698"/>
			<point x="547" y="698" type="curve"/>
			<point x="517.667" y="686.667"/>
			<point x="435.333" y="674"/>
			<point x="393" y="672" type="curve"/>
			<point x="387.667" y="662"/>
			<point x="385.667" y="651"/>
			<point x="388.667" y="641.333" type="curve"/>
			<point x="430.333" y="641.333"/>
			<point x="450" y="636.667"/>
			<point x="450" y="608" type="curve" smooth="yes"/>
			<point x="450" y="598.667"/>
			<point x="448" y="583"/>
		</contour>
		<contour>
			<point x="209" y="42.6667" type="curve" smooth="yes"/>
			<point x="176" y="42.6667"/>
			<point x="167.333" y="94"/>
			<point x="167.333" y="147.667" type="curve" smooth="yes"/>
			<point x="167.333" y="255"/>
			<point x="238.333" y="398.667"/>
			<point x="326.667" y="398.667" type="curve" smooth="yes"/>
			<point x="367.667" y="398.667"/>
			<point x="390.333" y="348.333"/>
			<point x="390.333" y="316" type="curve"/>
			<point x="385" y="245.333"/>
			<point x="275.667" y="42.6667"/>
		</contour>
	</outline>
</glyph>
<glyph name="e" format="2">
	<unicode hex="0065"/>
	<advance width="404"/>
	<outline>
		<contour>
			<point x="175.667" y="199" type="curve"/>
			<point x="413.333" y="246.333"/>
			<point x="434.667" y="311"/>
			<point x="434.667" y="364.667" type="curve" smooth="yes"/>
			<point x="434.667" y="410.333"/>
			<point x="387.667" y="439"/>
			<point x="329" y="439" type="curve" smooth="yes"/>
			<point x="150" y="439"/>
			<point x="76.3333" y="268.667"/>
			<point x="76.3333" y="143.667" type="curve" smooth="yes"/>
			<point x="76.3333" y="57"/>
			<point x="111.667" y="-10"/>
			<point x="209.667" y="-10" type="curve" smooth="yes"/>
			<point x="274" y="-10"/>
			<point x="340.667" y="24.3333"/>
			<point x="399.667" y="100.333" type="curve"/>
			<point x="394.667" y="111.333"/>
			<point x="385.667" y="119.333"/>
			<point x="373.667" y="119.333" type="curve"/>
			<point x="316.667" y="61.3333"/>
			<point x="291" y="50"/>
			<point x="243" y="50" type="curve" smooth="yes"/>
			<point x="200" y="50"/>
			<point x="174.667" y="82"/>
			<point x="174.667" y="165" type="curve" smooth="yes"/>
			<point x="174.667" y="170"/>
			<point x="174.667" y="191"/>
		</contour>
		<contour>
			<point x="351" y="365.667" type="curve" smooth="yes"/>
			<point x="351" y="279.667"/>
			<point x="251" y="246.333"/>
			<point x="182.667" y="236.667" type="curve"/>
			<point x="217.333" y="378.333"/>
			<point x="266.667" y="404.333"/>
			<point x="312.333" y="404.333" type="curve" smooth="yes"/>
			<point x="338.667" y="404.333"/>
			<point x="351" y="395.667"/>
		</contour>
	</outline>
	<anchor name="t.uni0302" x="331" y="500"/>
</glyph>
<glyph name="i" format="2">
	<unicode hex="0069"/>
	<advance width="298"/>
	<outline>
		<contour>
			<point x="261" y="320" type="line" smooth="yes"/>
			<point x="270" y="359.333"/>
			<point x="282" y="398"/>
			<point x="282" y="415" type="curve" smooth="yes"/>
			<point x="282" y="429"/>
			<point x="274" y="436"/>
			<point x="261" y="436" type="curve" smooth="yes"/>
			<point x="229" y="436"/>
			<point x="168" y="429"/>
			<point x="121" y="423" type="curve"/>
			<point x="114" y="415"/>
			<point x="115" y="400.667"/>
			<point x="121" y="391.667" type="curve"/>
			<point x="161" y="388.667" type="line" smooth="yes"/>
			<point x="173" y="387.667"/>
			<point x="179" y="378.667"/>
			<point x="179" y="368.667" type="curve" smooth="yes"/>
			<point x="179" y="359.667"/>
			<point x="177.667" y="348.333"/>
			<point x="171" y="321" type="curve" smooth="yes"/>
			<point x="125" y="115" type="line" smooth="yes"/>
			<point x="118" y="83"/>
			<point x="109.333" y="41.6667"/>
			<point x="111.333" y="23" type="curve"/>
			<point x="114" y="3.66667"/>
			<point x="125" y="-10"/>
			<point x="155" y="-10" type="curve" smooth="yes"/>
			<point x="210.333" y="-10"/>
			<point x="263.333" y="23.6667"/>
			<point name=".hr01" x="309.333" y="82.6667" type="curve"/>
			<point x="306.333" y="91.6667"/>
			<point x="298.333" y="103.333"/>
			<point x="284.333" y="103.333" type="curve"/>
			<point x="258.333" y="73.3333"/>
			<point x="227.667" y="54.3333"/>
			<point x="217.667" y="54.3333" type="curve" smooth="yes"/>
			<point x="210.333" y="54.3333"/>
			<point x="207.333" y="60.6667"/>
			<point x="207.333" y="72.6667" type="curve"/>
			<point x="207.667" y="82.6667"/>
			<point x="212" y="102.333"/>
			<point x="217" y="124" type="curve" smooth="yes"/>
		</contour>
		<contour>
			<point x="200.333" y="578.667" type="curve" smooth="yes"/>
			<point x="200.333" y="550.333"/>
			<point x="223" y="524.667"/>
			<point x="253.667" y="524.667" type="curve" smooth="yes"/>
			<point x="286" y="524.667"/>
			<point x="309.333" y="551.333"/>
			<point x="309.333" y="577.333" type="curve" smooth="yes"/>
			<point x="309.333" y="604.667"/>
			<point x="287" y="631.333"/>
			<point x="255.667" y="631.333" type="curve" smooth="yes"/>
			<point x="222.667" y="631.333"/>
			<point x="200.333" y="606"/>
		</contour>
	</outline>
</glyph>
<glyph name="k" format="2">
	<unicode hex="006B"/>
	<advance width="511"/>
	<outline>
		<contour>
			<point x="209.667" y="230.667" type="line"/>
			<point x="220" y="237"/>
			<point x="229" y="237"/>
			<point x="237.667" y="237" type="curve" smooth="yes"/>
			<point x="245.667" y="237"/>
			<point x="252.667" y="230"/>
			<point x="257.667" y="221" type="curve" smooth="yes"/>
			<point x="275.667" y="189"/>
			<point x="284.667" y="138"/>
			<point x="304.667" y="93" type="curve" smooth="yes"/>
			<point x="335.667" y="25"/>
			<point x="360" y="-6.66667"/>
			<point x="397" y="-9.33333" type="curve"/>
			<point x="400.333" y="-10"/>
			<point x="404.333" y="-10"/>
			<point x="407.667" y="-10" type="curve"/>
			<point x="446" y="-8.66667"/>
			<point x="486" y="21"/>
			<point x="516.667" y="77" type="curve"/>
			<point x="509.667" y="85"/>
			<point x="503" y="91.3333"/>
			<point x="492" y="91.3333" type="curve"/>
			<point x="472" y="62.3333"/>
			<point x="451.333" y="45.3333"/>
			<point x="440.333" y="45.3333" type="curve" smooth="yes"/>
			<point x="423.667" y="45.3333"/>
			<point x="416.333" y="58.6667"/>
			<point x="409.333" y="75.3333" type="curve"/>
			<point x="408" y="78"/>
			<point x="406.667" y="80.6667"/>
			<point x="405.333" y="83.3333" type="curve"/>
			<point x="384" y="132"/>
			<point x="372.333" y="164"/>
			<point x="360.333" y="191.333" type="curve"/>
			<point x="356.667" y="197.667"/>
			<point x="354" y="204.333"/>
			<point x="350.333" y="210.333" type="curve"/>
			<point x="335.333" y="237"/>
			<point x="326.333" y="251.333"/>
			<point x="296.333" y="259.333" type="curve"/>
			<point x="296" y="263.333" type="line"/>
			<point x="341" y="303.333" type="line" smooth="yes"/>
			<point x="350.667" y="312"/>
			<point x="359.667" y="319.333"/>
			<point x="368" y="326.667" type="curve"/>
			<point x="399.333" y="352.667"/>
			<point x="420" y="362.333"/>
			<point x="437.333" y="362.333" type="curve" smooth="yes"/>
			<point x="448" y="362.333"/>
			<point x="454" y="359"/>
			<point x="459.667" y="354" type="curve"/>
			<point x="468" y="348"/>
			<point name=".hr01" x="477.667" y="339.333"/>
			<point x="496.667" y="339.333" type="curve" smooth="yes"/>
			<point x="515.333" y="339.333"/>
			<point x="538.667" y="360"/>
			<point x="544" y="386.667" type="curve"/>
			<point x="544.667" y="390.667"/>
			<point x="545.333" y="395.333"/>
			<point x="545" y="399.667" type="curve" smooth="yes"/>
			<point x="543.333" y="426.333"/>
			<point x="521.667" y="439"/>
			<point x="491" y="439" type="curve" smooth="yes"/>
			<point x="459" y="439"/>
			<point x="394.667" y="401"/>
			<point x="322.667" y="337" type="curve"/>
			<point x="288" y="307.667" type="line"/>
			<point x="285" y="305.333"/>
			<point x="282.667" y="302.667"/>
			<point x="279.667" y="300.333" type="curve"/>
			<point x="260" y="284"/>
			<point x="235.667" y="266.333"/>
			<point x="212.667" y="274.667" type="curve"/>
		</contour>
		<contour>
			<point x="173.667" y="31.6667" type="curve" smooth="yes"/>
			<point x="296.667" y="583" type="line" smooth="yes"/>
			<point x="307.667" y="633"/>
			<point x="313" y="656.667"/>
			<point x="321.667" y="685" type="curve"/>
			<point x="321.667" y="694"/>
			<point x="316.333" y="698"/>
			<point x="306" y="698" type="curve"/>
			<point x="263.333" y="684.333"/>
			<point x="196.667" y="675.667"/>
			<point x="151.667" y="672" type="curve"/>
			<point x="147.333" y="665"/>
			<point x="144.333" y="651.333"/>
			<point x="146.667" y="641.333" type="curve"/>
			<point x="190" y="637.667"/>
			<point x="208.667" y="627.333"/>
			<point x="208.667" y="606.333" type="curve" smooth="yes"/>
			<point x="208.667" y="599.333"/>
			<point x="206.667" y="583.333"/>
			<point x="202" y="563" type="curve" smooth="yes"/>
			<point x="81" y="24.3333" type="line" smooth="yes"/>
			<point x="77.3333" y="8"/>
			<point x="92.6667" y="0"/>
			<point x="103.667" y="0" type="curve" smooth="yes"/>
			<point x="134.667" y="0" type="line" smooth="yes"/>
			<point x="154" y="0"/>
			<point x="169" y="9.66667"/>
		</contour>
	</outline>
	<anchor name="t.uni0302" x="435.333" y="700"/>
</glyph>
<glyph name="l" format="2">
	<unicode hex="006C"/>
	<advance width="285"/>
	<outline>
		<contour>
			<point x="206.667" y="563" type="curve" smooth="yes"/>
			<point x="107" y="118.667" type="line" smooth="yes"/>
			<point x="101.333" y="93"/>
			<point x="95.6667" y="65.3333"/>
			<point x="95" y="45.6667" type="curve"/>
			<point x="94.3333" y="41"/>
			<point x="94.3333" y="36.6667"/>
			<point x="94.6667" y="33" type="curve" smooth="yes"/>
			<point x="96.3333" y="12"/>
			<point x="104.667" y="-10"/>
			<point x="139.333" y="-10" type="curve" smooth="yes"/>
			<point x="192.667" y="-10"/>
			<point x="251.333" y="20.6667"/>
			<point x="298" y="89" type="curve"/>
			<point x="294.333" y="98.6667"/>
			<point x="287" y="109.667"/>
			<point x="273.667" y="109.667" type="curve"/>
			<point x="245" y="75.6667"/>
			<point x="212.333" y="55.3333"/>
			<point x="201" y="55.3333" type="curve" smooth="yes"/>
			<point x="193" y="55.3333"/>
			<point x="189.333" y="62"/>
			<point x="189.333" y="70.6667" type="curve" smooth="yes"/>
			<point x="189.333" y="80.3333"/>
			<point x="192.667" y="95.6667"/>
			<point x="199.667" y="127" type="curve" smooth="yes"/>
			<point x="300" y="577.667" type="line"/>
			<point x="301.333" y="583" type="line" smooth="yes"/>
			<point x="311" y="624.667"/>
			<point x="319" y="657"/>
			<point name=".hr01" x="321.667" y="674.333" type="curve"/>
			<point x="322.333" y="682"/>
			<point x="322.333" y="686.667"/>
			<point x="321" y="688.333" type="curve"/>
			<point x="320" y="694"/>
			<point x="317" y="696.667"/>
			<point x="309.667" y="697.333" type="curve"/>
			<point x="306.667" y="697"/>
			<point x="302.333" y="696.667"/>
			<point name=".hr02" x="297.667" y="696" type="curve"/>
			<point x="266" y="689.333"/>
			<point x="194.667" y="676.333"/>
			<point x="156.333" y="672" type="curve"/>
			<point x="154.333" y="664"/>
			<point x="153" y="656"/>
			<point x="152.333" y="648" type="curve"/>
			<point x="152.333" y="646"/>
			<point x="152.333" y="643.667"/>
			<point x="153.333" y="642" type="curve"/>
			<point x="156.667" y="642"/>
			<point x="159.667" y="641.333"/>
			<point x="163" y="641.333" type="curve"/>
			<point x="174" y="640.333"/>
			<point x="184.667" y="640"/>
			<point x="193.667" y="638" type="curve"/>
			<point x="206" y="636.667"/>
			<point x="213" y="629.667"/>
			<point x="213.333" y="610" type="curve"/>
			<point x="213.333" y="599.333"/>
			<point x="211.333" y="583.333"/>
		</contour>
	</outline>
</glyph>
<glyph name="m" format="2">
	<unicode hex="006D"/>
	<advance width="809"/>
	<outline>
		<contour>
			<point x="168.667" y="295" type="curve" smooth="yes"/>
			<point x="118" y="72" type="line" smooth="yes"/>
			<point x="108.667" y="32"/>
			<point x="106" y="20.3333"/>
			<point x="106" y="12.3333" type="curve" smooth="yes"/>
			<point x="106" y="-2"/>
			<point x="118" y="-10"/>
			<point x="153" y="-10" type="curve" smooth="yes"/>
			<point x="184" y="-10"/>
			<point x="189.333" y="-4.33333"/>
			<point x="208" y="72" type="curve" smooth="yes"/>
			<point x="247.333" y="231.333" type="line"/>
			<point x="320.333" y="334"/>
			<point x="373" y="375.667"/>
			<point x="407.667" y="375.667" type="curve" smooth="yes"/>
			<point x="427.333" y="375.667"/>
			<point x="430.333" y="362.667"/>
			<point x="430.333" y="339.333" type="curve" smooth="yes"/>
			<point x="430.333" y="328"/>
			<point x="429.333" y="307"/>
			<point x="422" y="275" type="curve" smooth="yes"/>
			<point x="374.333" y="72" type="line" smooth="yes"/>
			<point x="364.667" y="30.6667"/>
			<point x="363" y="20.6667"/>
			<point x="363" y="15" type="curve" smooth="yes"/>
			<point x="363" y="1"/>
			<point x="371.333" y="-10"/>
			<point x="405" y="-10" type="curve" smooth="yes"/>
			<point x="442" y="-10"/>
			<point x="447.333" y="-4.33333"/>
			<point x="465" y="72" type="curve" smooth="yes"/>
			<point x="503.667" y="238.667" type="line"/>
			<point x="542" y="292"/>
			<point x="602.333" y="375.667"/>
			<point x="655.333" y="375.667" type="curve" smooth="yes"/>
			<point x="670.333" y="375.667"/>
			<point x="681.667" y="369.333"/>
			<point x="681.667" y="336.667" type="curve" smooth="yes"/>
			<point x="681.667" y="327"/>
			<point x="680.667" y="304.333"/>
			<point x="672.667" y="272.333" type="curve" smooth="yes"/>
			<point x="634.333" y="114.333" type="line" smooth="yes"/>
			<point x="623.333" y="69.6667"/>
			<point x="619.333" y="47"/>
			<point x="619.333" y="33.3333" type="curve" smooth="yes"/>
			<point x="619.333" y="1.66667"/>
			<point x="638" y="-10"/>
			<point x="667" y="-10" type="curve" smooth="yes"/>
			<point x="726.667" y="-10"/>
			<point x="783.333" y="24"/>
			<point x="819.333" y="94.6667" type="curve"/>
			<point x="817" y="103.667"/>
			<point x="808.333" y="113.333"/>
			<point x="795" y="113.333" type="curve"/>
			<point x="770.333" y="78"/>
			<point x="740.333" y="54.3333"/>
			<point x="727" y="54.3333" type="curve" smooth="yes"/>
			<point x="720" y="54.3333"/>
			<point x="716.333" y="60.3333"/>
			<point x="716.333" y="69.6667" type="curve" smooth="yes"/>
			<point x="716.333" y="74.6667"/>
			<point x="717.333" y="86.3333"/>
			<point x="723" y="108.667" type="curve" smooth="yes"/>
			<point x="766.333" y="280.333" type="line" smooth="yes"/>
			<point x="774.333" y="312.667"/>
			<point x="777.333" y="335.667"/>
			<point x="777.333" y="352.667" type="curve" smooth="yes"/>
			<point x="777.333" y="412"/>
			<point x="744.667" y="439"/>
			<point x="699" y="439" type="curve" smooth="yes"/>
			<point x="650" y="439"/>
			<point x="588.667" y="404.667"/>
			<point x="521" y="317" type="curve"/>
			<point x="523.333" y="329.667"/>
			<point x="524" y="343.333"/>
			<point x="524" y="352.333" type="curve" smooth="yes"/>
			<point x="524" y="418.667"/>
			<point x="490.667" y="439"/>
			<point x="448.667" y="439" type="curve" smooth="yes"/>
			<point x="384.333" y="439"/>
			<point x="324.333" y="386"/>
			<point x="262.333" y="310" type="curve"/>
			<point x="260.667" y="311" type="line"/>
			<point x="268.333" y="337.333"/>
			<point x="281.667" y="388"/>
			<point x="281.667" y="414" type="curve" smooth="yes"/>
			<point x="281.667" y="428"/>
			<point name=".hr01" x="272.667" y="436"/>
			<point x="259.667" y="436" type="curve" smooth="yes"/>
			<point x="227.667" y="436"/>
			<point x="168.667" y="429.667"/>
			<point x="121.667" y="423" type="curve"/>
			<point x="114.667" y="415"/>
			<point x="115.667" y="400.667"/>
			<point x="121.667" y="391.667" type="curve"/>
			<point x="161.667" y="388.667" type="line" smooth="yes"/>
			<point x="174.333" y="387.667"/>
			<point name=".hr02" x="179.667" y="376"/>
			<point x="179.667" y="364.667" type="curve" smooth="yes"/>
			<point x="179.667" y="355.667"/>
			<point x="177.667" y="335.667"/>
		</contour>
	</outline>
</glyph>
<glyph name="o" format="2">
	<unicode hex="006F"/>
	<advance width="458"/>
	<outline>
		<contour>
			<point x="74.3333" y="162" type="curve" smooth="yes"/>
			<point x="74.3333" y="105.333"/>
			<point x="91.6667" y="-10"/>
			<point x="218.667" y="-10" type="curve" smooth="yes"/>
			<point x="373" y="-10"/>
			<point x="476.667" y="129.333"/>
			<point x="476.667" y="278.333" type="curve" smooth="yes"/>
			<point x="476.667" y="350.333"/>
			<point x="452.333" y="439"/>
			<point x="329.333" y="439" type="curve" smooth="yes"/>
			<point x="182" y="439"/>
			<point x="74.3333" y="304.333"/>
		</contour>
		<contour>
			<point x="172.667" y="170" type="curve" smooth="yes"/>
			<point x="172.667" y="263.333"/>
			<point x="204.667" y="403"/>
			<point x="309" y="403" type="curve" smooth="yes"/>
			<point x="369" y="403"/>
			<point x="378.333" y="328"/>
			<point x="378.333" y="266.667" type="curve" smooth="yes"/>
			<point x="378.333" y="179.333"/>
			<point x="355.667" y="28.6667"/>
			<point x="240.333" y="28.6667" type="curve" smooth="yes"/>
			<point x="211.333" y="28.6667"/>
			<point x="172.667" y="62.6667"/>
		</contour>
	</outline>
	<anchor name="t.uni0302" x="333.333" y="500"/>
	<anchor name="b.uni0328" x="292.667" y="29.3333"/>
	<guideline x="0" y="500" angle="0"/>
	<guideline x="228" y="3" angle="78"/>
</glyph>
<glyph name="s" format="2">
	<unicode hex="0073"/>
	<advance width="374"/>
	<outline>
		<contour>
			<point x="270.333" y="439" type="curve" smooth="yes"/>
			<point x="185.333" y="439"/>
			<point x="122.667" y="384.333"/>
			<point x="122.667" y="311.667" type="curve" smooth="yes"/>
			<point x="122.667" y="273"/>
			<point x="147.667" y="233.333"/>
			<point x="192" y="203" type="curve" smooth="yes"/>
			<point x="218" y="185" type="line" smooth="yes"/>
			<point x="259.667" y="155.667"/>
			<point x="280" y="126"/>
			<point x="280" y="88.3333" type="curve" smooth="yes"/>
			<point x="280" y="51"/>
			<point x="250" y="26"/>
			<point x="203.667" y="26" type="curve" smooth="yes"/>
			<point x="174.333" y="26"/>
			<point x="158.333" y="37.6667"/>
			<point x="151" y="65" type="curve"/>
			<point x="144" y="94.6667"/>
			<point x="124.333" y="114.667"/>
			<point x="101" y="114.667" type="curve" smooth="yes"/>
			<point x="78.3333" y="114.667"/>
			<point x="61" y="96.3333"/>
			<point x="61" y="71.3333" type="curve" smooth="yes"/>
			<point x="61" y="25"/>
			<point x="123.333" y="-10"/>
			<point x="201.667" y="-10" type="curve" smooth="yes"/>
			<point x="297.667" y="-10"/>
			<point x="365.667" y="43.3333"/>
			<point x="365.667" y="117.333" type="curve" smooth="yes"/>
			<point x="365.667" y="167.667"/>
			<point x="335.667" y="211.333"/>
			<point x="269.333" y="254" type="curve" smooth="yes"/>
			<point x="238" y="274.667" type="line" smooth="yes"/>
			<point x="210" y="293.333"/>
			<point x="196" y="313.667"/>
			<point x="196" y="339.667" type="curve" smooth="yes"/>
			<point x="196" y="376.333"/>
			<point x="222.333" y="403"/>
			<point x="258.667" y="403" type="curve" smooth="yes"/>
			<point x="288" y="403"/>
			<point x="302" y="383.667"/>
			<point x="307.667" y="358.333" type="curve" smooth="yes"/>
			<point x="312.667" y="334.333"/>
			<point x="331.667" y="316"/>
			<point x="354" y="316" type="curve" smooth="yes"/>
			<point x="376.333" y="316"/>
			<point x="393.333" y="332.667"/>
			<point x="393.333" y="355.667" type="curve" smooth="yes"/>
			<point x="393.333" y="398.667"/>
			<point x="333.667" y="439"/>
		</contour>
	</outline>
	<anchor name="t.uni0302" x="282" y="500"/>
</glyph>
<glyph name="u" format="2">
	<unicode hex="0075"/>
	<advance width="563"/>
	<outline>
		<contour>
			<point x="429.333" y="253.667" type="line"/>
			<point x="378" y="160.333"/>
			<point x="305.667" y="58.6667"/>
			<point x="255" y="58.6667" type="curve" smooth="yes"/>
			<point x="234.667" y="58.6667"/>
			<point x="223.333" y="72.3333"/>
			<point x="223.333" y="101.667" type="curve" smooth="yes"/>
			<point x="223.333" y="113.333"/>
			<point x="225.333" y="131.333"/>
			<point x="231" y="153.333" type="curve" smooth="yes"/>
			<point x="282.333" y="356.667" type="line" smooth="yes"/>
			<point x="289.667" y="385.667"/>
			<point x="292.333" y="398"/>
			<point x="292.333" y="406.667" type="curve" smooth="yes"/>
			<point x="292.333" y="426.333"/>
			<point x="280.333" y="440.333"/>
			<point x="246.667" y="440.333" type="curve" smooth="yes"/>
			<point x="192.667" y="440.333"/>
			<point x="130.667" y="405.667"/>
			<point x="84.6667" y="346.667" type="curve"/>
			<point x="87.6667" y="337.667"/>
			<point x="96.6667" y="327"/>
			<point x="110.667" y="327" type="curve"/>
			<point x="136.667" y="357"/>
			<point x="170" y="376"/>
			<point x="180.667" y="376" type="curve" smooth="yes"/>
			<point x="187.333" y="376"/>
			<point x="190.333" y="370"/>
			<point x="190.333" y="362.333" type="curve" smooth="yes"/>
			<point x="190.333" y="353"/>
			<point x="185" y="328"/>
			<point x="179.333" y="306.333" type="curve" smooth="yes"/>
			<point x="139.333" y="150" type="line" smooth="yes"/>
			<point x="133.333" y="124.333"/>
			<point x="128" y="99"/>
			<point x="128" y="72.6667" type="curve" smooth="yes"/>
			<point x="128" y="15"/>
			<point x="164.667" y="-8.66667"/>
			<point x="210" y="-8.66667" type="curve" smooth="yes"/>
			<point x="285.333" y="-8.66667"/>
			<point x="351" y="66.3333"/>
			<point x="415.333" y="164.333" type="curve"/>
		</contour>
		<contour>
			<point x="404" y="143.333" type="line"/>
			<point x="392.667" y="111"/>
			<point x="381.667" y="72.6667"/>
			<point x="381.667" y="37" type="curve" smooth="yes"/>
			<point x="381.667" y="8.66667"/>
			<point x="390.333" y="-10"/>
			<point x="424" y="-10" type="curve" smooth="yes"/>
			<point x="479.333" y="-10"/>
			<point x="530" y="23.6667"/>
			<point x="576" y="82.6667" type="curve"/>
			<point x="573" y="91.6667"/>
			<point x="565" y="103.333"/>
			<point x="551" y="103.333" type="curve"/>
			<point x="525" y="73.3333"/>
			<point x="494.333" y="54.3333"/>
			<point x="483.667" y="54.3333" type="curve" smooth="yes"/>
			<point x="477" y="54.3333"/>
			<point x="474" y="60.3333"/>
			<point x="474" y="69.6667" type="curve" smooth="yes"/>
			<point x="474" y="80.6667"/>
			<point x="478" y="99"/>
			<point x="483.667" y="124" type="curve" smooth="yes"/>
			<point x="538.333" y="353" type="line" smooth="yes"/>
			<point x="542.667" y="371.667"/>
			<point x="550" y="402.667"/>
			<point x="550" y="413.667" type="curve" smooth="yes"/>
			<point x="550" y="431.333"/>
			<point x="536.333" y="440.333"/>
			<point x="509.333" y="440.333" type="curve" smooth="yes"/>
			<point x="472.667" y="440.333"/>
			<point x="458.333" y="402"/>
			<point x="450.333" y="369.333" type="curve" smooth="yes"/>
			<point x="393.667" y="147" type="line"/>
		</contour>
	</outline>
	<anchor name="t.uni0302" x="398.333" y="500"/>
	<guideline x="431" y="357" angle="255.231"/>
	<guideline x="450" y="124" angle="76.2005"/>
	<guideline x="208" y="151" angle="75.2218"/>
</glyph>
<glyph name="bar" format="2">
	<unicode hex="007C"/>
	<advance width="210"/>
	<outline>
		<contour>
			<point x="98" y="-233" type="line"/>
			<point x="245.667" y="667.333" type="line"/>
			<point x="197.333" y="667.333" type="line"/>
			<point x="49.6667" y="-233" type="line"/>
		</contour>
	</outline>
</glyph>
<glyph name="exclamdown" format="2">
	<unicode hex="00A1"/>
	<advance width="240"/>
	<outline>
		<contour>
			<point x="79.6667" y="-228.667" type="curve" smooth="yes"/>
			<point x="104.667" y="-228.667"/>
			<point x="142.333" y="-209.667"/>
			<point x="153" y="-155" type="curve" smooth="yes"/>
			<point x="158.333" y="-123.667"/>
			<point x="159.333" y="-100.667"/>
			<point x="159.667" y="-76.3333" type="curve"/>
			<point x="160" y="-68.6667"/>
			<point x="160" y="-60"/>
			<point x="160" y="-52" type="curve" smooth="yes"/>
			<point x="160" y="-45.3333"/>
			<point x="160" y="-39"/>
			<point x="160.333" y="-32" type="curve"/>
			<point x="160.667" y="-12.3333"/>
			<point x="161.333" y="11.6667"/>
			<point x="163.667" y="39" type="curve" smooth="yes"/>
			<point x="168" y="95.3333"/>
			<point x="174.667" y="156"/>
			<point x="179.333" y="191.333" type="curve" smooth="yes"/>
			<point x="181.333" y="206"/>
			<point x="182.667" y="217.667"/>
			<point x="182.667" y="224.667" type="curve" smooth="yes"/>
			<point x="182.667" y="226" type="line"/>
			<point x="182.333" y="232"/>
			<point x="181" y="237.667"/>
			<point x="172.333" y="238.667" type="curve" smooth="yes"/>
			<point x="169.333" y="239"/>
			<point x="166" y="238.667"/>
			<point x="163" y="237.333" type="curve"/>
			<point x="156.333" y="235.333"/>
			<point x="151.667" y="229.333"/>
			<point x="148.333" y="221.333" type="curve" smooth="yes"/>
			<point x="146" y="216"/>
			<point x="143.333" y="208"/>
			<point x="140.667" y="196.667" type="curve" smooth="yes"/>
			<point name=".hr01" x="134.333" y="167"/>
			<point x="119.667" y="113.333"/>
			<point x="97.3333" y="41.3333" type="curve" smooth="yes"/>
			<point x="87" y="8.33333"/>
			<point x="76.3333" y="-21.3333"/>
			<point x="67" y="-48.3333" type="curve" smooth="yes"/>
			<point x="53.6667" y="-84"/>
			<point x="41" y="-117.333"/>
			<point x="34" y="-155" type="curve" smooth="yes"/>
			<point name=".hr02" x="32.3333" y="-164"/>
			<point x="31.6667" y="-171.667"/>
			<point x="32.3333" y="-179.333" type="curve"/>
			<point x="33.6667" y="-213"/>
			<point x="56" y="-228.667"/>
		</contour>
		<contour>
			<point x="254" y="388" type="curve"/>
			<point name=".hr03" x="254.667" y="390.667"/>
			<point x="254.667" y="394"/>
			<point x="254.333" y="397" type="curve"/>
			<point x="252.667" y="424"/>
			<point x="232.667" y="444"/>
			<point x="204.667" y="445.667" type="curve"/>
			<point x="201.333" y="446"/>
			<point x="198" y="446"/>
			<point x="194.667" y="445.333" type="curve"/>
			<point x="164.667" y="442.667"/>
			<point x="138" y="417.333"/>
			<point x="134.667" y="387.333" type="curve"/>
			<point x="134" y="383.333"/>
			<point x="134" y="380"/>
			<point x="134.333" y="377" type="curve"/>
			<point x="136" y="350.333"/>
			<point x="156.667" y="330.333"/>
			<point x="184" y="328.667" type="curve"/>
			<point x="187.333" y="328.333"/>
			<point x="190.667" y="328.333"/>
			<point x="194" y="329" type="curve"/>
			<point x="224" y="331.667"/>
			<point x="251.333" y="357"/>
		</contour>
	</outline>
</glyph>
<glyph name="cent" format="2">
	<unicode hex="00A2"/>
	<advance width="472"/>
	<outline>
		<contour>
			<point x="340" y="584" type="line"/>
			<point x="325" y="510.667" type="line"/>
			<point x="282.333" y="505.667"/>
			<point x="229" y="481.333"/>
			<point x="190" y="442.667" type="curve" smooth="yes"/>
			<point x="148.667" y="400.333"/>
			<point x="117" y="341.667"/>
			<point x="105.333" y="272" type="curve" smooth="yes"/>
			<point x="102" y="254"/>
			<point x="100.667" y="236.667"/>
			<point x="100.667" y="218.667" type="curve"/>
			<point x="100.333" y="183"/>
			<point x="108.667" y="141"/>
			<point x="130.667" y="110.333" type="curve" smooth="yes"/>
			<point x="153.667" y="79.6667"/>
			<point x="188.333" y="62"/>
			<point x="235" y="61" type="curve"/>
			<point x="220.333" y="-12" type="line"/>
			<point x="253.667" y="-12" type="line"/>
			<point x="269" y="64" type="line"/>
			<point x="325.333" y="75"/>
			<point x="381.667" y="118.667"/>
			<point x="422.333" y="172.667" type="curve"/>
			<point x="421.333" y="183.333"/>
			<point x="415.333" y="194.333"/>
			<point x="406" y="194.333" type="curve"/>
			<point x="372.667" y="161.333"/>
			<point x="342" y="137.333"/>
			<point x="311" y="129.333" type="curve"/>
			<point x="301.333" y="127.333"/>
			<point x="291.333" y="126"/>
			<point x="281.667" y="126.333" type="curve"/>
			<point x="351" y="474.333" type="line"/>
			<point x="363.333" y="470.333"/>
			<point x="375.333" y="461"/>
			<point x="376.333" y="440.333" type="curve"/>
			<point x="377" y="432.333"/>
			<point x="375.667" y="422.667"/>
			<point x="373" y="415.333" type="curve" smooth="yes"/>
			<point x="370.667" y="409"/>
			<point x="370" y="398.667"/>
			<point x="372" y="392" type="curve"/>
			<point x="374.667" y="377.333"/>
			<point x="386.333" y="364.333"/>
			<point x="403.667" y="364.333" type="curve" smooth="yes"/>
			<point x="432" y="364.333"/>
			<point x="457.333" y="386"/>
			<point x="459.667" y="413" type="curve" smooth="yes"/>
			<point x="462.667" y="452"/>
			<point x="449.333" y="505.333"/>
			<point x="359" y="511" type="curve"/>
			<point x="373.333" y="584" type="line"/>
		</contour>
		<contour>
			<point x="249.333" y="132" type="line"/>
			<point x="240" y="135.667"/>
			<point x="231" y="141.333"/>
			<point x="223.667" y="151.333" type="curve"/>
			<point x="207.333" y="172"/>
			<point x="197.667" y="197.333"/>
			<point x="198.667" y="252" type="curve" smooth="yes"/>
			<point x="199" y="267"/>
			<point x="200.333" y="281.667"/>
			<point x="202.333" y="295.667" type="curve" smooth="yes"/>
			<point x="217" y="401.333"/>
			<point x="263.667" y="464.333"/>
			<point x="318" y="475.333" type="curve"/>
		</contour>
	</outline>
</glyph>
<glyph name="sterling" format="2">
	<unicode hex="00A3"/>
	<advance width="472"/>
	<outline>
		<contour>
			<point x="130.667" y="292" type="curve"/>
			<point x="190.333" y="292" type="line"/>
			<point x="186.333" y="272" type="line" smooth="yes"/>
			<point x="169" y="188.667"/>
			<point x="146" y="121.333"/>
			<point x="102" y="81.6667" type="curve"/>
			<point x="94.6667" y="74.6667"/>
			<point x="89.3333" y="70.6667"/>
			<point x="82.6667" y="66" type="curve"/>
			<point x="53.6667" y="52"/>
			<point x="28.3333" y="31"/>
			<point x="23.6667" y="7" type="curve"/>
			<point x="21" y="-4.33333"/>
			<point x="30.6667" y="-15.6667"/>
			<point x="42.6667" y="-17.3333" type="curve"/>
			<point x="44" y="-17.6667"/>
			<point x="45" y="-18"/>
			<point x="46.3333" y="-18" type="curve" smooth="yes"/>
			<point x="63.6667" y="-18"/>
			<point x="89.6667" y="-6.33333"/>
			<point x="95" y="20.6667" type="curve" smooth="yes"/>
			<point x="97.3333" y="31.6667"/>
			<point x="107.333" y="47"/>
			<point x="140" y="47" type="curve" smooth="yes"/>
			<point x="165.333" y="47"/>
			<point x="187.333" y="32.3333"/>
			<point x="212" y="17" type="curve" smooth="yes"/>
			<point x="234.333" y="3.33333"/>
			<point x="258" y="-9.66667"/>
			<point x="289" y="-11.6667" type="curve"/>
			<point x="293" y="-12.3333"/>
			<point x="297.333" y="-12.3333"/>
			<point x="302" y="-12" type="curve"/>
			<point x="370.333" y="-10"/>
			<point x="421.333" y="31.3333"/>
			<point x="448.333" y="80.3333" type="curve"/>
			<point x="431.333" y="94" type="line"/>
			<point x="400" y="60.3333"/>
			<point x="353.667" y="44"/>
			<point x="325.667" y="44" type="curve" smooth="yes"/>
			<point x="302.333" y="44"/>
			<point x="289.667" y="51.6667"/>
			<point x="276.333" y="61.6667" type="curve"/>
			<point x="257.667" y="74.6667"/>
			<point x="235.667" y="88.6667"/>
			<point x="180" y="90" type="curve"/>
			<point x="176" y="90.3333"/>
			<point x="171.333" y="90.3333"/>
			<point x="166" y="89.6667" type="curve"/>
			<point x="168" y="91.6667"/>
			<point x="170.333" y="92.6667"/>
			<point x="172.333" y="94" type="curve" smooth="yes"/>
			<point x="213" y="122.333"/>
			<point x="253.333" y="175"/>
			<point x="276.667" y="283" type="curve" smooth="yes"/>
			<point x="277.333" y="286"/>
			<point x="278.667" y="288.667"/>
			<point x="279" y="292" type="curve"/>
			<point x="357.333" y="292" type="line" smooth="yes"/>
			<point x="374.333" y="292"/>
			<point x="394" y="294"/>
			<point x="405.667" y="298.667" type="curve"/>
			<point x="411.667" y="330.667" type="line"/>
			<point x="406" y="332.667"/>
			<point x="397.333" y="334.333"/>
			<point x="385.333" y="334.333" type="curve" smooth="yes"/>
			<point x="287.667" y="334.333" type="line"/>
			<point x="300.333" y="396.667" type="line" smooth="yes"/>
			<point x="317.333" y="480.667"/>
			<point x="360.667" y="546.667"/>
			<point x="405" y="546.667" type="curve" smooth="yes"/>
			<point x="425.667" y="546.667"/>
			<point x="431" y="530.667"/>
			<point x="442" y="517.667" type="curve"/>
			<point x="450.667" y="506.333"/>
			<point x="460.333" y="497"/>
			<point x="474.667" y="497" type="curve" smooth="yes"/>
			<point x="500.667" y="497"/>
			<point x="522.667" y="514"/>
			<point x="527.667" y="541.333" type="curve"/>
			<point x="535.333" y="577.333"/>
			<point x="484" y="587.333"/>
			<point x="460.333" y="588" type="curve"/>
			<point x="459" y="588"/>
			<point x="458" y="588"/>
			<point x="457.333" y="588" type="curve"/>
			<point x="408.333" y="588"/>
			<point x="360.667" y="571.333"/>
			<point x="319.333" y="538" type="curve"/>
			<point x="318" y="537.333"/>
			<point x="317" y="536.333"/>
			<point x="315.667" y="535.333" type="curve"/>
			<point x="255.333" y="485.333"/>
			<point x="218.667" y="433"/>
			<point x="201.333" y="347.667" type="curve"/>
			<point x="199" y="334.333" type="line"/>
			<point x="160" y="334.333" type="line" smooth="yes"/>
			<point x="144" y="334.333"/>
			<point x="134.333" y="331"/>
			<point x="129" y="327.667" type="curve"/>
			<point x="125.333" y="309" type="line" smooth="yes"/>
			<point x="124" y="302"/>
			<point x="124" y="296.667"/>
		</contour>
	</outline>
</glyph>
<glyph name="brokenbar" format="2">
	<unicode hex="00A6"/>
	<advance width="210"/>
	<outline>
		<contour>
			<point x="163.667" y="161" type="line"/>
			<point x="112.333" y="161" type="line"/>
			<point x="44" y="-201" type="line"/>
			<point x="95.3333" y="-201" type="line"/>
		</contour>
		<contour>
			<point x="260.667" y="674" type="line"/>
			<point x="209.333" y="674" type="line"/>
			<point x="141" y="312" type="line"/>
			<point x="192.333" y="312" type="line"/>
		</contour>
	</outline>
</glyph>
<glyph name="section" format="2">
	<unicode hex="00A7"/>
	<advance width="471"/>
	<outline>
		<contour>
			<point x="390.667" y="-9.33333" type="curve"/>
			<point x="393.333" y="20.6667"/>
			<point x="385.667" y="49"/>
			<point x="367.333" y="76.6667" type="curve"/>
			<point x="422" y="115.333"/>
			<point x="455" y="160.667"/>
			<point x="467.333" y="205" type="curve" smooth="yes"/>
			<point x="473" y="225.667"/>
			<point x="475" y="243.667"/>
			<point x="475.333" y="257.667" type="curve" smooth="yes"/>
			<point x="477.333" y="351.667"/>
			<point x="401" y="390"/>
			<point x="333" y="430.333" type="curve" smooth="yes"/>
			<point x="291.667" y="455"/>
			<point x="269.333" y="483.667"/>
			<point x="270" y="522" type="curve"/>
			<point x="269.333" y="524.667"/>
			<point x="269.333" y="527.333"/>
			<point x="269.333" y="530" type="curve"/>
			<point x="272.667" y="585"/>
			<point x="313" y="622.667"/>
			<point x="363.667" y="625.333" type="curve" smooth="yes"/>
			<point x="369.333" y="625.667"/>
			<point x="375.333" y="625"/>
			<point x="379.667" y="624.333" type="curve"/>
			<point x="412.667" y="621"/>
			<point x="420.333" y="600.333"/>
			<point x="421.333" y="576.333" type="curve"/>
			<point x="421" y="570.333"/>
			<point x="420" y="565"/>
			<point name=".hr01" x="418.667" y="559.667" type="curve"/>
			<point x="417" y="557.667"/>
			<point x="415.333" y="555"/>
			<point x="414.333" y="549.667" type="curve"/>
			<point x="414" y="533.333"/>
			<point x="422" y="505.333"/>
			<point x="452.667" y="505.333" type="curve" smooth="yes"/>
			<point name=".hr02" x="476" y="505.333"/>
			<point x="495" y="522"/>
			<point x="499.667" y="541.333" type="curve" smooth="yes"/>
			<point name=".hr03" x="502" y="550"/>
			<point x="503" y="559"/>
			<point x="502.667" y="567.333" type="curve" smooth="yes"/>
			<point x="502" y="614.333"/>
			<point x="457" y="658"/>
			<point x="372.667" y="658" type="curve" smooth="yes"/>
			<point x="324.333" y="658"/>
			<point x="282.667" y="644.333"/>
			<point x="250.667" y="619.667" type="curve" smooth="yes"/>
			<point x="213.667" y="591"/>
			<point x="191" y="548.333"/>
			<point x="186.667" y="508" type="curve"/>
			<point x="186" y="505.333"/>
			<point x="186" y="502"/>
			<point x="186" y="499.333" type="curve"/>
			<point x="183" y="468"/>
			<point x="190" y="438.667"/>
			<point x="208.333" y="411.333" type="curve"/>
			<point x="153.667" y="373"/>
			<point x="121" y="327"/>
			<point x="109.333" y="283.333" type="curve"/>
			<point x="103" y="262.667"/>
			<point x="101" y="243.667"/>
			<point x="101" y="229.333" type="curve"/>
			<point x="101.333" y="160"/>
			<point x="148.667" y="119"/>
			<point x="208.333" y="81" type="curve"/>
			<point x="220.667" y="73.6667"/>
			<point x="233" y="65.6667"/>
			<point x="244.667" y="57.6667" type="curve"/>
			<point x="286.667" y="30.6667"/>
			<point x="308.333" y="1"/>
			<point x="305.667" y="-35" type="curve" smooth="yes"/>
			<point x="301" y="-97.3333"/>
			<point x="255.667" y="-138.667"/>
			<point x="205.333" y="-138.667" type="curve" smooth="yes"/>
			<point x="158.667" y="-138.667"/>
			<point x="153.667" y="-106"/>
			<point name=".hr04" x="152.667" y="-78.3333" type="curve"/>
			<point x="153.667" y="-73.6667"/>
			<point x="159.333" y="-71"/>
			<point x="161.333" y="-62.3333" type="curve"/>
			<point x="161.333" y="-46"/>
			<point x="154" y="-18"/>
			<point x="123.333" y="-18" type="curve" smooth="yes"/>
			<point name=".hr05" x="100.667" y="-18"/>
			<point x="81.3333" y="-35"/>
			<point x="76" y="-53.6667" type="curve"/>
			<point name=".hr06" x="73" y="-62.6667"/>
			<point x="72.3333" y="-71.6667"/>
			<point x="72.6667" y="-80" type="curve" smooth="yes"/>
			<point x="74.6667" y="-127"/>
			<point x="120.667" y="-171"/>
			<point x="198.333" y="-171" type="curve" smooth="yes"/>
			<point x="310.667" y="-171"/>
			<point x="385.667" y="-99.6667"/>
		</contour>
		<contour>
			<point x="225" y="389.667" type="curve"/>
			<point x="233.667" y="380"/>
			<point x="243.667" y="371.667"/>
			<point x="254.333" y="364" type="curve"/>
			<point x="266.667" y="355.667"/>
			<point x="279.667" y="347.333"/>
			<point x="292.333" y="338.667" type="curve"/>
			<point x="349.667" y="302"/>
			<point x="401" y="268.667"/>
			<point x="403.333" y="207.333" type="curve" smooth="yes"/>
			<point x="404" y="190.333"/>
			<point x="402" y="175.333"/>
			<point x="396.667" y="160.333" type="curve" smooth="yes"/>
			<point x="387.667" y="134.667"/>
			<point x="370.667" y="115.333"/>
			<point x="349.667" y="98.3333" type="curve"/>
			<point x="333.333" y="116.333"/>
			<point x="312.667" y="133.667"/>
			<point x="286" y="150.333" type="curve"/>
			<point x="282.333" y="153.333"/>
			<point x="278.333" y="156"/>
			<point x="273.667" y="158.667" type="curve"/>
			<point x="219.333" y="193"/>
			<point x="176.333" y="226.667"/>
			<point x="173.333" y="280.667" type="curve"/>
			<point name=".hr07" x="171.667" y="298"/>
			<point x="173.667" y="312.667"/>
			<point x="178.333" y="326.667" type="curve" smooth="yes"/>
			<point x="187" y="353.667"/>
			<point x="205" y="372"/>
		</contour>
	</outline>
</glyph>
<glyph name="copyright" format="2">
	<unicode hex="00A9"/>
	<advance width="633"/>
	<outline>
		<contour>
			<point x="320.333" y="23" type="curve" smooth="yes"/>
			<point x="500.333" y="23"/>
			<point x="661.333" y="184.667"/>
			<point x="661.333" y="360.667" type="curve" smooth="yes"/>
			<point x="661.333" y="493.333"/>
			<point x="570.667" y="588"/>
			<point x="430.333" y="588" type="curve" smooth="yes"/>
			<point x="251" y="588"/>
			<point x="94.3333" y="432.333"/>
			<point x="94.3333" y="254.667" type="curve" smooth="yes"/>
			<point x="94.3333" y="118"/>
			<point x="186" y="23"/>
		</contour>
		<contour>
			<point x="429.667" y="559.667" type="curve" smooth="yes"/>
			<point x="549.333" y="559.667"/>
			<point x="630" y="473.333"/>
			<point x="630" y="357.333" type="curve" smooth="yes"/>
			<point x="630" y="199.667"/>
			<point x="483" y="51.3333"/>
			<point x="327.333" y="51.3333" type="curve" smooth="yes"/>
			<point x="206.333" y="51.3333"/>
			<point x="125.667" y="139"/>
			<point x="125.667" y="255.667" type="curve" smooth="yes"/>
			<point x="125.667" y="411.667"/>
			<point x="272" y="559.667"/>
		</contour>
		<contour>
			<point x="477.667" y="217.667" type="curve"/>
			<point x="475.667" y="224.333"/>
			<point x="469.333" y="230.333"/>
			<point x="461.333" y="232" type="curve"/>
			<point x="448" y="216.333"/>
			<point x="416" y="186.333"/>
			<point x="369" y="186.333" type="curve" smooth="yes"/>
			<point x="319.667" y="186.333"/>
			<point x="298.333" y="218.667"/>
			<point x="298.333" y="265.667" type="curve" smooth="yes"/>
			<point x="298.333" y="329"/>
			<point x="337.333" y="428.667"/>
			<point x="412.667" y="428.667" type="curve" smooth="yes"/>
			<point x="464.333" y="428.667"/>
			<point x="477" y="409.667"/>
			<point x="480.667" y="358.667" type="curve"/>
			<point x="486.398" y="359.17"/>
			<point x="500.169" y="360.914"/>
			<point x="504.667" y="362.333" type="curve"/>
			<point x="508.333" y="385.667"/>
			<point x="510.333" y="412.333"/>
			<point x="510.333" y="440" type="curve"/>
			<point x="479.333" y="440.333"/>
			<point x="459.667" y="454"/>
			<point x="419.667" y="454" type="curve" smooth="yes"/>
			<point x="319.667" y="454"/>
			<point x="234" y="366"/>
			<point x="234" y="271.667" type="curve" smooth="yes"/>
			<point x="234" y="205.333"/>
			<point x="276.667" y="154.667"/>
			<point x="349" y="154.667" type="curve" smooth="yes"/>
			<point x="407.333" y="154.667"/>
			<point x="452.667" y="187"/>
		</contour>
	</outline>
</glyph>
<glyph name="ordfeminine" format="2">
	<unicode hex="00AA"/>
	<advance width="319"/>
	<outline>
		<contour>
			<point x="377.667" y="634.667" type="curve"/>
			<point x="361" y="634.667" type="line" smooth="yes"/>
			<point x="354" y="634.667"/>
			<point x="347.333" y="634.333"/>
			<point x="341" y="634.667" type="curve" smooth="yes"/>
			<point x="336.667" y="635"/>
			<point x="332.333" y="635"/>
			<point x="328.667" y="635" type="curve"/>
			<point x="326" y="635.667"/>
			<point x="323.667" y="635.667"/>
			<point x="322" y="636" type="curve"/>
			<point x="311.333" y="637.333"/>
			<point x="305.333" y="638.333"/>
			<point x="290" y="638.667" type="curve"/>
			<point x="287.667" y="638.667"/>
			<point x="285.667" y="638.667"/>
			<point x="283" y="638.667" type="curve"/>
			<point x="241.333" y="636.667"/>
			<point x="196" y="605.333"/>
			<point x="163.667" y="562" type="curve" smooth="yes"/>
			<point x="138.333" y="528"/>
			<point x="120.667" y="486.333"/>
			<point x="120" y="443.667" type="curve"/>
			<point x="120" y="441.333"/>
			<point x="120" y="439.333"/>
			<point x="120" y="437" type="curve"/>
			<point x="120.667" y="400"/>
			<point x="134.667" y="359"/>
			<point x="182.667" y="359" type="curve" smooth="yes"/>
			<point x="213.667" y="359"/>
			<point x="250" y="391.667"/>
			<point x="287.333" y="447" type="curve"/>
			<point x="289.333" y="446" type="line"/>
			<point x="285.667" y="433.333" type="line"/>
			<point x="284" y="429"/>
			<point x="283" y="424"/>
			<point x="281.333" y="419.667" type="curve"/>
			<point x="279.667" y="411.667"/>
			<point x="278" y="404"/>
			<point x="277.333" y="397" type="curve"/>
			<point x="276.667" y="393"/>
			<point x="276.667" y="389"/>
			<point x="277" y="386" type="curve"/>
			<point x="277" y="385.333"/>
			<point x="277.333" y="384.667"/>
			<point x="277.333" y="384.333" type="curve"/>
			<point x="279" y="374"/>
			<point x="283.333" y="365"/>
			<point x="295.667" y="361" type="curve"/>
			<point x="299.333" y="359.667"/>
			<point x="304.333" y="359"/>
			<point x="310" y="359.333" type="curve" smooth="yes"/>
			<point x="348" y="360.667"/>
			<point x="375.667" y="384"/>
			<point x="395" y="418.333" type="curve"/>
			<point x="392.333" y="423.667"/>
			<point x="388" y="430.667"/>
			<point x="379.667" y="430.667" type="curve"/>
			<point x="363" y="409"/>
			<point name=".hr01" x="347.667" y="399"/>
			<point x="341.667" y="399" type="curve" smooth="yes"/>
			<point x="338.667" y="399"/>
			<point name=".hr02" x="334.667" y="401.667"/>
			<point x="334.667" y="408.667" type="curve" smooth="yes"/>
			<point x="334.667" y="415.333"/>
			<point x="338.333" y="429.333"/>
			<point x="340.333" y="440.333" type="curve"/>
			<point x="367" y="561.667" type="line" smooth="yes"/>
			<point x="371.333" y="583.333"/>
			<point x="377.333" y="604.333"/>
			<point x="380" y="621.333" type="curve"/>
			<point x="380.667" y="627"/>
			<point x="379.667" y="632"/>
		</contour>
		<contour>
			<point x="297.667" y="503" type="curve"/>
			<point x="268.667" y="449.333"/>
			<point x="231.667" y="406"/>
			<point x="210.333" y="402" type="curve"/>
			<point x="209" y="401.333"/>
			<point x="207.667" y="401.333"/>
			<point x="207" y="401.333" type="curve"/>
			<point x="190.333" y="401.333"/>
			<point x="183" y="414.333"/>
			<point x="181" y="434" type="curve"/>
			<point x="179.667" y="441.333"/>
			<point x="179.667" y="449"/>
			<point x="180" y="457.667" type="curve" smooth="yes"/>
			<point x="181" y="490.333"/>
			<point x="193.333" y="529.667"/>
			<point x="212.333" y="561" type="curve" smooth="yes"/>
			<point x="231" y="592"/>
			<point x="256.667" y="615.667"/>
			<point x="283.667" y="616.667" type="curve"/>
			<point x="286.333" y="617"/>
			<point x="290" y="617"/>
			<point x="292.667" y="616.333" type="curve"/>
			<point x="303.667" y="615"/>
			<point x="312.667" y="611"/>
			<point x="319" y="605" type="curve"/>
			<point x="319" y="605"/>
			<point x="313.667" y="543"/>
		</contour>
	</outline>
</glyph>
<glyph name="guillemotleft" format="2">
	<unicode hex="00AB"/>
	<advance width="494"/>
	<outline>
		<contour>
			<point x="274" y="207" type="line"/>
			<point x="280.333" y="200.667"/>
			<point x="290" y="190.667"/>
			<point x="292.333" y="188" type="curve"/>
			<point x="339.667" y="139.333"/>
			<point x="369.333" y="97.6667"/>
			<point x="414.667" y="23" type="curve"/>
			<point x="425.333" y="29.3333"/>
			<point x="437.667" y="37.6667"/>
			<point x="447.333" y="46.3333" type="curve"/>
			<point x="417" y="124.333"/>
			<point x="392.333" y="174.667"/>
			<point x="363.333" y="215" type="curve"/>
			<point x="410" y="255.333"/>
			<point x="455" y="306"/>
			<point x="518.667" y="383.667" type="curve"/>
			<point x="513.333" y="392.333"/>
			<point x="504" y="400.667"/>
			<point x="496.667" y="407" type="curve"/>
			<point x="419" y="331.667"/>
			<point x="370" y="290"/>
			<point x="301.667" y="240.667" type="curve"/>
			<point x="299" y="238.333"/>
			<point x="285.333" y="228.667"/>
			<point x="277" y="223" type="curve"/>
		</contour>
		<contour>
			<point x="105.667" y="207" type="line"/>
			<point x="112" y="200.667"/>
			<point x="121.667" y="190.667"/>
			<point x="124" y="188" type="curve"/>
			<point x="171.333" y="139.333"/>
			<point x="201" y="97.6667"/>
			<point x="246.333" y="23" type="curve"/>
			<point x="257" y="29.3333"/>
			<point x="270" y="37.6667"/>
			<point x="279.667" y="46.3333" type="curve"/>
			<point x="249.333" y="124.333"/>
			<point x="224.667" y="174.667"/>
			<point x="196" y="215" type="curve"/>
			<point x="242.333" y="255.333"/>
			<point x="287.333" y="306"/>
			<point x="351" y="383.667" type="curve"/>
			<point x="345" y="392.333"/>
			<point x="336.333" y="400.667"/>
			<point x="328.333" y="407" type="curve"/>
			<point x="250.667" y="331.667"/>
			<point x="202" y="290"/>
			<point x="133.667" y="240.667" type="curve"/>
			<point x="131" y="238.333"/>
			<point x="117.333" y="228.667"/>
			<point x="109" y="223" type="curve"/>
		</contour>
	</outline>
</glyph>
<glyph name="logicalnot" format="2">
	<unicode hex="00AC"/>
	<advance width="560"/>
	<outline>
		<contour>
			<point x="497" y="133" type="line"/>
			<point x="555.333" y="133" type="line"/>
			<point x="605.667" y="401" type="line"/>
			<point x="103.667" y="401" type="line"/>
			<point x="94.3333" y="353.667" type="line"/>
			<point x="538" y="353.667" type="line"/>
		</contour>
	</outline>
</glyph>
<glyph name="uni00AD" format="2">
	<unicode hex="00AD"/>
	<advance width="353"/>
	<outline>
		<contour>
			<point x="319.667" y="229" type="line" smooth="yes"/>
			<point x="334.667" y="229"/>
			<point x="353.333" y="256"/>
			<point x="356.667" y="269.333" type="curve"/>
			<point x="357" y="271.333"/>
			<point x="357.333" y="273"/>
			<point x="357.333" y="274.333" type="curve" smooth="yes"/>
			<point x="357.333" y="276"/>
			<point x="357.333" y="277.333"/>
			<point x="356.667" y="279" type="curve"/>
			<point x="356" y="285.333"/>
			<point x="352.333" y="290"/>
			<point x="343.667" y="290.667" type="curve"/>
			<point x="336.333" y="291"/>
			<point x="328.333" y="291.333"/>
			<point x="320" y="291.333" type="curve" smooth="yes"/>
			<point x="127.333" y="291.333" type="line" smooth="yes"/>
			<point x="123.667" y="291.333"/>
			<point x="119" y="291"/>
			<point x="115" y="290.333" type="curve"/>
			<point x="103" y="287.667"/>
			<point x="87" y="266.667"/>
			<point x="83.3333" y="250.667" type="curve" smooth="yes"/>
			<point x="83" y="249.333"/>
			<point x="82.6667" y="247.667"/>
			<point x="82.6667" y="246" type="curve"/>
			<point x="82" y="245.333" type="line"/>
			<point x="82" y="238.333"/>
			<point x="86.3333" y="232.333"/>
			<point x="93.3333" y="231" type="curve"/>
			<point x="101.333" y="230"/>
			<point x="110.333" y="229"/>
			<point x="120.333" y="229" type="curve" smooth="yes"/>
		</contour>
	</outline>
</glyph>
<glyph name="registered" format="2">
	<unicode hex="00AE"/>
	<advance width="633"/>
	<outline>
		<contour>
			<point x="314.667" y="23" type="curve" smooth="yes"/>
			<point x="467.667" y="23"/>
			<point x="600" y="150"/>
			<point x="611" y="306" type="curve" smooth="yes"/>
			<point x="622" y="462"/>
			<point x="507.667" y="588"/>
			<point x="354.667" y="588" type="curve" smooth="yes"/>
			<point x="201.667" y="588"/>
			<point x="68.3333" y="462"/>
			<point x="57.3333" y="306" type="curve" smooth="yes"/>
			<point x="46.3333" y="151"/>
			<point x="160.667" y="23"/>
		</contour>
		<contour>
			<point x="352.333" y="557" type="curve" smooth="yes"/>
			<point x="488.667" y="557"/>
			<point x="590.667" y="445"/>
			<point x="580.667" y="306" type="curve" smooth="yes"/>
			<point x="571" y="167"/>
			<point x="452" y="55"/>
			<point x="317" y="55" type="curve" smooth="yes"/>
			<point x="179.667" y="55"/>
			<point x="78" y="168"/>
			<point x="87.6667" y="306" type="curve" smooth="yes"/>
			<point x="97.6667" y="445"/>
			<point x="215.333" y="557"/>
		</contour>
		<contour>
			<point x="439.333" y="372" type="curve" smooth="yes"/>
			<point x="441.333" y="402"/>
			<point x="425.667" y="447"/>
			<point x="351.333" y="447" type="curve" smooth="yes"/>
			<point x="279.667" y="447"/>
			<point x="253.667" y="445"/>
			<point x="232.667" y="442" type="curve"/>
			<point x="232" y="430.333" type="line"/>
			<point x="231.667" y="427"/>
			<point x="234.333" y="425"/>
			<point x="241.333" y="424.333" type="curve"/>
			<point x="257" y="425.333" type="line"/>
			<point x="260" y="425.333"/>
			<point x="260.333" y="420"/>
			<point x="260" y="414.333" type="curve" smooth="yes"/>
			<point x="244.667" y="193" type="line" smooth="yes"/>
			<point x="244.333" y="186"/>
			<point x="242" y="185"/>
			<point x="236.333" y="185" type="curve" smooth="yes"/>
			<point x="224.667" y="185" type="line" smooth="yes"/>
			<point x="217.667" y="185"/>
			<point x="214.333" y="183.667"/>
			<point x="214" y="179.667" type="curve" smooth="yes"/>
			<point name=".hr01" x="213" y="167" type="line"/>
			<point x="267.333" y="169" type="line"/>
			<point x="281" y="169"/>
			<point name=".hr02" x="326" y="167"/>
			<point x="326" y="167" type="curve"/>
			<point x="326.667" y="179" type="line" smooth="yes"/>
			<point x="327" y="183.667"/>
			<point x="324.333" y="185"/>
			<point name=".hr03" x="316.333" y="185" type="curve" smooth="yes"/>
			<point name=".hr04" x="304.667" y="185" type="line" smooth="yes"/>
			<point x="298" y="185"/>
			<point x="298" y="187.667"/>
			<point x="298.333" y="192.667" type="curve" smooth="yes"/>
			<point x="304.667" y="286.333" type="line"/>
			<point x="309.667" y="286.333"/>
			<point x="327.333" y="285.333"/>
			<point x="331" y="282.667" type="curve"/>
			<point x="372.667" y="204" type="line"/>
			<point x="382.333" y="178"/>
			<point x="404" y="166"/>
			<point x="432.667" y="166" type="curve" smooth="yes"/>
			<point name=".hr05" x="437.333" y="166"/>
			<point x="445.333" y="167"/>
			<point x="455.333" y="170" type="curve"/>
			<point x="456.333" y="183" type="line"/>
			<point x="441.333" y="183"/>
			<point x="430.333" y="192"/>
			<point x="419.333" y="214" type="curve" smooth="yes"/>
			<point x="378" y="296" type="line"/>
			<point x="378" y="296"/>
			<point x="435.667" y="320"/>
		</contour>
		<contour>
			<point x="386.667" y="372" type="curve" smooth="yes"/>
			<point x="382" y="310"/>
			<point x="337" y="308.333"/>
			<point x="306.667" y="308.333" type="curve"/>
			<point x="314.667" y="426" type="line"/>
			<point x="319.667" y="427.333"/>
			<point x="331.667" y="429"/>
			<point x="342.333" y="429" type="curve" smooth="yes"/>
			<point x="375.667" y="429"/>
			<point name=".hr06" x="389" y="406"/>
		</contour>
	</outline>
</glyph>
<glyph name="degree" format="2">
	<unicode hex="00B0"/>
	<advance width="263"/>
	<outline>
		<contour>
			<point x="259" y="680.667" type="curve" smooth="yes"/>
			<point x="204.667" y="680.667"/>
			<point x="150.333" y="636.333"/>
			<point x="141.333" y="581" type="curve" smooth="yes"/>
			<point x="140.333" y="575.333"/>
			<point x="139.333" y="569.333"/>
			<point x="139.333" y="563.333" type="curve" smooth="yes"/>
			<point x="139.333" y="516.667"/>
			<point x="173.333" y="481.333"/>
			<point x="223" y="481.333" type="curve" smooth="yes"/>
			<point x="277.333" y="481.333"/>
			<point x="331" y="526.333"/>
			<point x="340.667" y="581.667" type="curve" smooth="yes"/>
			<point x="341.667" y="587.333"/>
			<point x="342" y="592.667"/>
			<point x="342" y="598.667" type="curve" smooth="yes"/>
			<point x="342" y="645.333"/>
			<point x="308" y="680.667"/>
		</contour>
		<contour>
			<point x="305" y="593.667" type="curve" smooth="yes"/>
			<point x="305" y="589"/>
			<point x="304" y="583.333"/>
			<point x="303.667" y="578.667" type="curve"/>
			<point x="296.333" y="545"/>
			<point x="266.667" y="512.667"/>
			<point x="228" y="512.667" type="curve" smooth="yes"/>
			<point x="193.667" y="512.667"/>
			<point x="176.333" y="538.333"/>
			<point x="176.333" y="566.667" type="curve" smooth="yes"/>
			<point x="176.333" y="572.333"/>
			<point x="177.333" y="577"/>
			<point x="178.333" y="582.333" type="curve" smooth="yes"/>
			<point x="185" y="616"/>
			<point x="214" y="650"/>
			<point x="254" y="650" type="curve" smooth="yes"/>
			<point x="290.333" y="650"/>
			<point x="305" y="621"/>
		</contour>
	</outline>
</glyph>
<glyph name="plusminus" format="2">
	<unicode hex="00B1"/>
	<advance width="527"/>
	<outline>
		<contour>
			<point x="362.333" y="352" type="line"/>
			<point x="393.667" y="522.667" type="line"/>
			<point x="335.333" y="522.667" type="line"/>
			<point x="303" y="352" type="line"/>
			<point x="135.333" y="352" type="line"/>
			<point x="124.333" y="294.667" type="line"/>
			<point x="292.333" y="294.667" type="line"/>
			<point x="260.333" y="125" type="line"/>
			<point x="319.333" y="125" type="line"/>
			<point x="351" y="294.667" type="line"/>
			<point x="518.667" y="294.667" type="line"/>
			<point x="529" y="352" type="line"/>
		</contour>
		<contour>
			<point x="478.667" y="73.6667" type="line"/>
			<point x="83.6667" y="73.6667" type="line"/>
			<point x="70.6667" y="14.6667" type="line"/>
			<point x="465.667" y="14.6667" type="line"/>
		</contour>
	</outline>
</glyph>
<glyph name="acute" format="2">
	<unicode hex="00B4"/>
	<advance width="298"/>
	<outline>
		<contour>
			<point x="275" y="663.667" type="curve"/>
			<point x="173" y="536" type="line" smooth="yes"/>
			<point x="165.333" y="526.333"/>
			<point x="163" y="517.333"/>
			<point x="162.667" y="512" type="curve" smooth="yes"/>
			<point x="162.333" y="506"/>
			<point x="168" y="500"/>
			<point x="175.333" y="500" type="curve" smooth="yes"/>
			<point x="183.333" y="500"/>
			<point x="193" y="504.667"/>
			<point x="210" y="518.667" type="curve" smooth="yes"/>
			<point x="344.333" y="627.333" type="line"/>
			<point x="344.333" y="641.667" type="line"/>
			<point x="331.667" y="656.333"/>
			<point x="313" y="665.667"/>
			<point x="290.333" y="665.667" type="curve" smooth="yes"/>
			<point x="285.333" y="665.667"/>
			<point x="278" y="664.667"/>
		</contour>
	</outline>
	<anchor name="_top" x="253.333" y="500"/>
	<guideline x="273" y="661" angle="231.009"/>
	<guideline x="339" y="629" angle="39.126"/>
</glyph>
<glyph name="mu" format="2">
	<unicode hex="00B5"/>
	<advance width="520"/>
	<outline>
		<contour>
			<point x="373" y="119" type="line"/>
			<point x="370.333" y="108.333"/>
			<point x="368.333" y="98"/>
			<point x="366" y="87.6667" type="curve"/>
			<point x="360" y="64.6667"/>
			<point x="355" y="35.6667"/>
			<point x="355.667" y="21.6667" type="curve"/>
			<point x="357.667" y="3.66667"/>
			<point x="367" y="-8.66667"/>
			<point x="393.667" y="-9.66667" type="curve"/>
			<point x="395.333" y="-10"/>
			<point x="397" y="-10"/>
			<point x="399" y="-10" type="curve" smooth="yes"/>
			<point x="448.333" y="-10"/>
			<point x="493.333" y="19.6667"/>
			<point x="538" y="70.6667" type="curve"/>
			<point x="537" y="80.6667"/>
			<point x="531.667" y="88"/>
			<point x="519" y="91.3333" type="curve"/>
			<point x="503.667" y="76"/>
			<point x="489.667" y="65.3333"/>
			<point x="475" y="59.3333" type="curve"/>
			<point x="467.667" y="55.3333"/>
			<point x="461.667" y="53.6667"/>
			<point x="458" y="54" type="curve"/>
			<point x="451.333" y="55"/>
			<point x="448.333" y="60.6667"/>
			<point x="448" y="72" type="curve" smooth="yes"/>
			<point x="447.667" y="81.6667"/>
			<point x="451.667" y="101"/>
			<point x="457" y="125" type="curve" smooth="yes"/>
			<point x="510.667" y="353.333" type="line" smooth="yes"/>
			<point x="515.333" y="375.667"/>
			<point x="523.667" y="405.667"/>
			<point x="525.667" y="424" type="curve"/>
			<point x="518.667" y="434.667"/>
			<point x="505" y="440.333"/>
			<point x="477" y="439.667" type="curve"/>
			<point x="456" y="437.333" type="line"/>
			<point x="429" y="429"/>
			<point x="428.333" y="391"/>
			<point x="420" y="357.333" type="curve" smooth="yes"/>
			<point x="393" y="248.333" type="line"/>
			<point x="369.667" y="196.667"/>
			<point x="347.333" y="150.333"/>
			<point x="327" y="110.667" type="curve"/>
			<point x="297.333" y="71.3333"/>
			<point x="261.333" y="48.3333"/>
			<point x="231.333" y="45" type="curve"/>
			<point x="230" y="44.3333"/>
			<point x="228" y="44.3333"/>
			<point x="226" y="44.3333" type="curve" smooth="yes"/>
			<point x="176.333" y="44.3333"/>
			<point x="179" y="95.6667"/>
			<point x="191.333" y="151.333" type="curve" smooth="yes"/>
			<point x="233" y="338.333" type="line"/>
			<point x="234.667" y="343.333"/>
			<point x="235.667" y="349"/>
			<point x="236.667" y="354.333" type="curve" smooth="yes"/>
			<point x="241.667" y="378"/>
			<point x="250.667" y="415.667"/>
			<point x="250.667" y="423.667" type="curve"/>
			<point x="244" y="434.333"/>
			<point x="231" y="440.333"/>
			<point x="203" y="439.667" type="curve" smooth="yes"/>
			<point x="169.667" y="439"/>
			<point x="162" y="408.667"/>
			<point x="148" y="382.667" type="curve"/>
			<point x="145.333" y="372"/>
			<point x="140.667" y="332.667"/>
			<point x="136.333" y="313.667" type="curve" smooth="yes"/>
			<point x="98" y="140.333" type="line"/>
			<point x="97" y="135" type="line" smooth="yes"/>
			<point x="90.6667" y="105.333"/>
			<point x="88.6667" y="72"/>
			<point x="85" y="46" type="curve" smooth="yes"/>
			<point x="82" y="25.3333"/>
			<point x="80" y="8"/>
			<point x="77" y="-6.66667" type="curve" smooth="yes"/>
			<point x="69.6667" y="-38.6667"/>
			<point x="58" y="-68"/>
			<point x="47.6667" y="-96" type="curve" smooth="yes"/>
			<point x="37.3333" y="-123.333"/>
			<point x="28" y="-149.333"/>
			<point x="24.3333" y="-169" type="curve"/>
			<point x="23.3333" y="-173.667"/>
			<point x="23.3333" y="-178.333"/>
			<point x="23.3333" y="-182" type="curve"/>
			<point x="24.6667" y="-213"/>
			<point x="50.3333" y="-231"/>
			<point x="64.6667" y="-232.667" type="curve" smooth="yes"/>
			<point x="67.6667" y="-233"/>
			<point x="70.6667" y="-233.333"/>
			<point x="73.6667" y="-232.667" type="curve"/>
			<point x="99" y="-230"/>
			<point x="128.333" y="-207.667"/>
			<point x="131.333" y="-143.333" type="curve" smooth="yes"/>
			<point x="132.667" y="-125"/>
			<point x="132" y="-102"/>
			<point x="132" y="-79.3333" type="curve"/>
			<point x="132.333" y="-54.6667"/>
			<point x="135" y="-29.3333"/>
			<point x="140.667" y="-3.66667" type="curve" smooth="yes"/>
			<point x="141.667" y="1.33333"/>
			<point x="146.667" y="6"/>
			<point x="151" y="7.66667" type="curve"/>
			<point x="157.667" y="-1.66667"/>
			<point x="169.667" y="-8.66667"/>
			<point x="183.333" y="-9" type="curve"/>
			<point x="193" y="-10"/>
			<point x="202.333" y="-9.33333"/>
			<point x="211.667" y="-8" type="curve" smooth="yes"/>
			<point x="271" y="0.666667"/>
			<point x="311.667" y="48.3333"/>
			<point x="368.333" y="120" type="curve"/>
		</contour>
	</outline>
</glyph>
<glyph name="paragraph" format="2">
	<unicode hex="00B6"/>
	<advance width="602"/>
	<outline>
		<contour>
			<point x="473" y="-144" type="curve" smooth="yes"/>
			<point x="596" y="556" type="line" smooth="yes"/>
			<point x="604" y="602"/>
			<point x="611" y="618"/>
			<point x="646" y="618" type="curve" smooth="yes"/>
			<point x="676" y="618" type="line" smooth="yes"/>
			<point x="680" y="618"/>
			<point x="682" y="621"/>
			<point x="683" y="625" type="curve"/>
			<point x="687" y="646" type="line"/>
			<point x="576" y="644" type="line"/>
			<point x="576" y="644"/>
			<point name=".hr01" x="541" y="641"/>
			<point x="506" y="641" type="curve" smooth="yes"/>
			<point x="479" y="641"/>
			<point name=".hr02" x="419" y="646"/>
			<point x="344" y="646" type="curve" smooth="yes"/>
			<point x="211" y="646"/>
			<point x="126" y="562"/>
			<point x="104" y="439" type="curve" smooth="yes"/>
			<point x="101" y="420"/>
			<point x="100" y="402"/>
			<point x="100" y="385" type="curve" smooth="yes"/>
			<point x="100" y="251"/>
			<point x="206" y="215"/>
			<point x="279" y="215" type="curve" smooth="yes"/>
			<point x="311" y="215"/>
			<point x="343" y="220"/>
			<point x="358" y="227" type="curve"/>
			<point x="293" y="-143" type="line" smooth="yes"/>
			<point x="284" y="-195"/>
			<point x="276" y="-205"/>
			<point x="243" y="-206" type="curve"/>
			<point x="214" y="-206" type="line" smooth="yes"/>
			<point x="210" y="-206"/>
			<point x="208" y="-208"/>
			<point x="207" y="-213" type="curve" smooth="yes"/>
			<point x="203" y="-234" type="line"/>
			<point x="531" y="-234" type="line"/>
			<point x="535" y="-213" type="line"/>
			<point x="536" y="-209"/>
			<point x="535" y="-206"/>
			<point x="531" y="-206" type="curve" smooth="yes"/>
			<point x="501" y="-206" type="line"/>
			<point x="479" y="-205"/>
			<point x="469" y="-202"/>
			<point x="469" y="-179" type="curve" smooth="yes"/>
			<point x="469" y="-171"/>
			<point x="470" y="-159"/>
		</contour>
		<contour>
			<point x="370" y="-207" type="curve" smooth="yes"/>
			<point name=".hr03" x="354" y="-207"/>
			<point x="349" y="-192"/>
			<point x="349" y="-174" type="curve" smooth="yes"/>
			<point x="349" y="-164"/>
			<point x="350" y="-153"/>
			<point x="352" y="-143" type="curve" smooth="yes"/>
			<point x="475" y="553" type="line" smooth="yes"/>
			<point x="480" y="584"/>
			<point x="486" y="616"/>
			<point x="519" y="616" type="curve"/>
			<point x="531" y="615"/>
			<point x="541" y="614"/>
			<point x="541" y="589" type="curve" smooth="yes"/>
			<point x="541" y="581"/>
			<point x="540" y="570"/>
			<point x="538" y="556" type="curve"/>
			<point x="414" y="-145" type="line" smooth="yes"/>
			<point x="406" y="-187"/>
			<point x="399" y="-207"/>
		</contour>
	</outline>
</glyph>
<glyph name="ordmasculine" format="2">
	<unicode hex="00BA"/>
	<advance width="355"/>
	<outline>
		<contour>
			<point x="115.333" y="484" type="curve"/>
			<point x="100" y="412"/>
			<point x="146" y="358"/>
			<point x="222.667" y="358" type="curve" smooth="yes"/>
			<point x="316.667" y="358"/>
			<point x="374.667" y="422"/>
			<point x="388.667" y="490" type="curve" smooth="yes"/>
			<point x="397.333" y="533"/>
			<point x="388.667" y="576"/>
			<point x="355.667" y="600.667" type="curve" smooth="yes"/>
			<point x="337" y="614.667"/>
			<point x="313.333" y="621"/>
			<point x="280.333" y="621" type="curve" smooth="yes"/>
			<point x="198.667" y="621"/>
			<point x="132" y="569"/>
		</contour>
		<contour>
			<point x="269" y="594.667" type="curve" smooth="yes"/>
			<point x="318" y="594.667"/>
			<point x="336" y="554"/>
			<point x="320.333" y="474" type="curve" smooth="yes"/>
			<point x="306" y="402"/>
			<point x="266.333" y="387.667"/>
			<point x="239.333" y="387.667" type="curve" smooth="yes"/>
			<point x="180.333" y="387.667"/>
			<point x="172.667" y="445"/>
			<point x="182.667" y="494" type="curve" smooth="yes"/>
			<point x="193.333" y="548"/>
			<point x="220" y="594.667"/>
		</contour>
	</outline>
</glyph>
<glyph name="guillemotright" format="2">
	<unicode hex="00BB"/>
	<advance width="494"/>
	<outline>
		<contour>
			<point x="484.333" y="223" type="line"/>
			<point x="478" y="229.333"/>
			<point x="468.333" y="239.333"/>
			<point x="466" y="242" type="curve"/>
			<point x="418.667" y="290.667"/>
			<point x="389" y="332.333"/>
			<point x="343.667" y="407" type="curve"/>
			<point x="333" y="400.667"/>
			<point x="320" y="392.333"/>
			<point x="310.333" y="383.667" type="curve"/>
			<point x="340.667" y="306"/>
			<point x="365.333" y="255.333"/>
			<point x="394.333" y="215" type="curve"/>
			<point x="347.667" y="174.667"/>
			<point x="302.667" y="124.333"/>
			<point x="239" y="46.3333" type="curve"/>
			<point x="245" y="37.6667"/>
			<point x="253.667" y="29.3333"/>
			<point x="261.667" y="23" type="curve"/>
			<point x="339.333" y="98.3333"/>
			<point x="388.333" y="140"/>
			<point x="456.333" y="189.333" type="curve"/>
			<point x="459" y="191.667"/>
			<point x="472.667" y="201.333"/>
			<point x="481" y="207" type="curve"/>
		</contour>
		<contour>
			<point x="316" y="223" type="line"/>
			<point x="309.667" y="229.333"/>
			<point x="300" y="239.333"/>
			<point x="297.667" y="242" type="curve"/>
			<point x="250.333" y="290.667"/>
			<point x="220.667" y="332.333"/>
			<point x="175.333" y="407" type="curve"/>
			<point x="165" y="400.667"/>
			<point x="152.333" y="392.333"/>
			<point x="142.667" y="383.667" type="curve"/>
			<point x="173" y="306"/>
			<point x="197.667" y="255.333"/>
			<point x="226.667" y="215" type="curve"/>
			<point x="180" y="174.667"/>
			<point x="135" y="124.333"/>
			<point x="71.3333" y="46.3333" type="curve"/>
			<point x="77" y="37.6667"/>
			<point x="86" y="29.3333"/>
			<point x="93.6667" y="23" type="curve"/>
			<point x="171" y="98.3333"/>
			<point x="220" y="140"/>
			<point x="288.333" y="189.333" type="curve"/>
			<point x="291" y="191.667"/>
			<point x="304.667" y="201.333"/>
			<point x="313" y="207" type="curve"/>
		</contour>
	</outline>
</glyph>
<glyph name="onehalf" format="2">
	<unicode hex="00BD"/>
	<advance width="673"/>
	<outline>
		<contour>
			<point x="463" y="173" type="curve"/>
			<point x="461.667" y="169.667"/>
			<point x="461.667" y="165.667"/>
			<point x="461.667" y="163" type="curve"/>
			<point x="462" y="151.333"/>
			<point x="471.667" y="142.667"/>
			<point x="485.333" y="142.667" type="curve" smooth="yes"/>
			<point x="498" y="142.667"/>
			<point x="517.333" y="152.333"/>
			<point x="521.333" y="168.333" type="curve"/>
			<point x="522.667" y="172"/>
			<point x="522.667" y="176"/>
			<point x="523" y="180" type="curve"/>
			<point x="522.667" y="183.667"/>
			<point x="523" y="188"/>
			<point x="524" y="193" type="curve"/>
			<point x="525.333" y="198.333"/>
			<point x="527.667" y="206"/>
			<point x="531.667" y="210.667" type="curve" smooth="yes"/>
			<point x="540" y="220.333"/>
			<point x="554" y="226"/>
			<point x="578.667" y="226" type="curve" smooth="yes"/>
			<point x="586.667" y="226"/>
			<point x="598" y="223"/>
			<point x="605" y="215" type="curve"/>
			<point x="611.333" y="208.333"/>
			<point x="616.333" y="198.333"/>
			<point x="616.333" y="183" type="curve" smooth="yes"/>
			<point x="616.333" y="177.667"/>
			<point x="615.333" y="172"/>
			<point x="614.333" y="166.333" type="curve"/>
			<point x="613.667" y="161"/>
			<point x="612" y="155.667"/>
			<point x="611" y="150.333" type="curve"/>
			<point x="603.333" y="123"/>
			<point x="587.333" y="100"/>
			<point x="559.333" y="78" type="curve" smooth="yes"/>
			<point x="549.333" y="70"/>
			<point x="538.667" y="62"/>
			<point x="527.333" y="54" type="curve" smooth="yes"/>
			<point x="514.667" y="44.6667"/>
			<point x="501" y="34.6667"/>
			<point x="489" y="24.6667" type="curve" smooth="yes"/>
			<point x="450.667" y="-6"/>
			<point x="419.333" y="-41"/>
			<point x="411.667" y="-79" type="curve"/>
			<point x="623" y="-79" type="line"/>
			<point x="634" y="-50"/>
			<point x="650.667" y="-11.6667"/>
			<point x="664" y="21.3333" type="curve"/>
			<point x="657.667" y="24"/>
			<point x="649.333" y="25.3333"/>
			<point x="640.333" y="26.6667" type="curve"/>
			<point x="625.667" y="-0.666667"/>
			<point x="601.667" y="-34.6667"/>
			<point x="574" y="-38" type="curve"/>
			<point x="571" y="-38.6667"/>
			<point x="568.667" y="-38.6667"/>
			<point x="565.333" y="-38.6667" type="curve" smooth="yes"/>
			<point x="489" y="-38.6667" type="line"/>
			<point x="493" y="-19.6667"/>
			<point x="507.333" y="0"/>
			<point x="532" y="19" type="curve"/>
			<point x="542.333" y="28"/>
			<point x="554.333" y="36.3333"/>
			<point x="567.333" y="45" type="curve" smooth="yes"/>
			<point x="578.667" y="52.6667" type="line" smooth="yes"/>
			<point x="605" y="70.6667"/>
			<point x="629.667" y="89.3333"/>
			<point x="646.667" y="106.333" type="curve" smooth="yes"/>
			<point x="666.667" y="126.333"/>
			<point x="677.333" y="145"/>
			<point x="681.667" y="167.667" type="curve"/>
			<point x="683.667" y="175"/>
			<point x="684" y="180.667"/>
			<point x="684" y="187" type="curve"/>
			<point x="684.333" y="206.667"/>
			<point x="677.333" y="220.667"/>
			<point x="665.333" y="231.333" type="curve" smooth="yes"/>
			<point x="648.333" y="247"/>
			<point x="621.667" y="251.333"/>
			<point x="597.333" y="252" type="curve"/>
			<point x="594" y="252"/>
			<point x="590.667" y="252"/>
			<point x="587.333" y="252" type="curve"/>
			<point x="511.667" y="250"/>
			<point x="468.333" y="199"/>
		</contour>
		<contour>
			<point x="624.333" y="561" type="line"/>
			<point x="88.3333" y="-40.6667" type="line"/>
			<point x="134.333" y="-50.3333" type="line"/>
			<point x="670.333" y="551.333" type="line"/>
		</contour>
		<contour>
			<point x="251.667" y="578.333" type="curve" smooth="yes"/>
			<point x="263.333" y="578.333"/>
			<point x="263.333" y="568.667"/>
			<point x="257.333" y="536.667" type="curve" smooth="yes"/>
			<point x="228.667" y="392" type="line"/>
			<point x="227.333" y="385.333" type="line" smooth="yes"/>
			<point x="221.667" y="360.333"/>
			<point x="206" y="346"/>
			<point x="189.333" y="344" type="curve" smooth="yes"/>
			<point x="177.333" y="342.667"/>
			<point x="164.667" y="342.333"/>
			<point x="151.667" y="342" type="curve"/>
			<point x="148.333" y="341"/>
			<point x="145.667" y="338"/>
			<point x="144.667" y="335.333" type="curve"/>
			<point x="143.333" y="328"/>
			<point x="141.667" y="320.667"/>
			<point x="141.667" y="314.667" type="curve"/>
			<point x="151" y="315"/>
			<point x="206.667" y="315.667"/>
			<point x="243" y="315.667" type="curve" smooth="yes"/>
			<point x="275" y="315.667"/>
			<point x="313.333" y="315"/>
			<point x="330" y="314.667" type="curve"/>
			<point x="331.333" y="314.667" type="line"/>
			<point x="333" y="321"/>
			<point x="335.333" y="328.333"/>
			<point x="336" y="335.333" type="curve"/>
			<point x="337" y="338"/>
			<point x="336.333" y="339.667"/>
			<point x="335.333" y="341.333" type="curve"/>
			<point x="333.333" y="342"/>
			<point x="331.333" y="342.333"/>
			<point x="329" y="342.333" type="curve" smooth="yes"/>
			<point x="322" y="342.333"/>
			<point x="314" y="342.667"/>
			<point x="307" y="342.667" type="curve"/>
			<point x="292.667" y="344"/>
			<point x="284" y="356.667"/>
			<point x="288" y="379.667" type="curve" smooth="yes"/>
			<point x="288.667" y="383.333"/>
			<point x="289" y="388"/>
			<point x="290" y="392" type="curve"/>
			<point x="341.667" y="647.667" type="line"/>
			<point x="337.333" y="648.667"/>
			<point x="330" y="649"/>
			<point x="324" y="648.333" type="curve"/>
			<point x="320" y="647"/>
			<point x="317" y="645.333"/>
			<point x="313.667" y="643.667" type="curve" smooth="yes"/>
			<point x="269.667" y="620.667"/>
			<point x="236" y="608"/>
			<point x="189.333" y="591.667" type="curve"/>
			<point x="189" y="581.667"/>
			<point x="190" y="570.667"/>
			<point x="192.667" y="562.667" type="curve"/>
			<point x="212" y="570.333"/>
			<point x="239" y="578.333"/>
		</contour>
	</outline>
</glyph>
<glyph name="threequarters" format="2">
	<unicode hex="00BE"/>
	<advance width="673"/>
	<outline>
		<contour>
			<point x="563.333" y="-18.6667" type="curve" smooth="yes"/>
			<point x="568.333" y="4.33333" type="line"/>
			<point x="619.333" y="4.33333" type="line"/>
			<point x="632.667" y="41" type="line"/>
			<point x="576.667" y="41" type="line"/>
			<point x="617" y="226.333" type="line" smooth="yes"/>
			<point x="619" y="235.333"/>
			<point x="608.333" y="236.333"/>
			<point x="602.667" y="236.333" type="curve" smooth="yes"/>
			<point x="596.667" y="236.333"/>
			<point x="586.333" y="235.667"/>
			<point x="581.667" y="235.667" type="curve" smooth="yes"/>
			<point x="577.667" y="235.667" type="line"/>
			<point x="558.667" y="228.333"/>
			<point x="549" y="215"/>
			<point x="539.333" y="203.667" type="curve" smooth="yes"/>
			<point x="495" y="152"/>
			<point x="438.333" y="91.6667"/>
			<point x="379.667" y="37" type="curve"/>
			<point x="375" y="33"/>
			<point x="370" y="25.6667"/>
			<point x="368.333" y="16.3333" type="curve"/>
			<point x="369.333" y="11"/>
			<point x="372.667" y="5.66667"/>
			<point x="383" y="4.33333" type="curve"/>
			<point x="507.667" y="4.33333" type="line"/>
			<point x="502.667" y="-18.6667" type="line" smooth="yes"/>
			<point x="493" y="-63"/>
			<point x="474" y="-66"/>
			<point x="434.667" y="-68" type="curve"/>
			<point x="427.667" y="-76"/>
			<point x="425" y="-91.3333"/>
			<point x="427.667" y="-97.3333" type="curve"/>
			<point x="454.667" y="-96.3333"/>
			<point x="473.333" y="-96.3333"/>
			<point x="501.333" y="-96.3333" type="curve" smooth="yes"/>
			<point x="515.333" y="-96.3333" type="line" smooth="yes"/>
			<point x="546.333" y="-96.3333"/>
			<point x="567.667" y="-96.3333"/>
			<point x="595.667" y="-97.3333" type="curve"/>
			<point x="601.333" y="-90.3333"/>
			<point x="604.333" y="-76"/>
			<point x="602.333" y="-68" type="curve"/>
			<point x="566.667" y="-66"/>
			<point x="554.333" y="-59"/>
		</contour>
		<contour>
			<point x="217" y="334" type="curve" smooth="yes"/>
			<point x="196" y="334"/>
			<point x="185.333" y="340"/>
			<point x="178.667" y="347" type="curve"/>
			<point x="177" y="349.333"/>
			<point x="175" y="352.667"/>
			<point x="173.333" y="356" type="curve"/>
			<point x="168.333" y="364.667"/>
			<point x="162.667" y="374"/>
			<point x="147.667" y="374" type="curve" smooth="yes"/>
			<point x="133.333" y="374"/>
			<point x="114.333" y="361"/>
			<point x="114.333" y="345.333" type="curve" smooth="yes"/>
			<point x="114.333" y="320.333"/>
			<point x="163.333" y="307.333"/>
			<point x="202" y="307.333" type="curve" smooth="yes"/>
			<point x="243.667" y="307.333"/>
			<point x="284.333" y="320"/>
			<point x="317" y="341.333" type="curve" smooth="yes"/>
			<point x="346.667" y="361.667"/>
			<point x="370.333" y="390.333"/>
			<point x="376.667" y="426" type="curve" smooth="yes"/>
			<point x="377.667" y="432"/>
			<point x="378.333" y="438.667"/>
			<point x="378.333" y="444.333" type="curve" smooth="yes"/>
			<point x="378.333" y="483"/>
			<point x="352.667" y="502.333"/>
			<point x="326" y="510.667" type="curve"/>
			<point x="322.333" y="511.333"/>
			<point x="319.667" y="512.333"/>
			<point name=".hr01" x="317" y="512.333" type="curve"/>
			<point x="320.333" y="514"/>
			<point x="324" y="516.333"/>
			<point x="327" y="518.667" type="curve"/>
			<point x="354.333" y="535"/>
			<point x="375.333" y="556"/>
			<point x="380" y="582.667" type="curve"/>
			<point x="381" y="585"/>
			<point x="381" y="587.333"/>
			<point x="381" y="589.667" type="curve" smooth="yes"/>
			<point x="381" y="591.333"/>
			<point x="381" y="593.333"/>
			<point x="380.667" y="595.333" type="curve"/>
			<point x="379.333" y="625.667"/>
			<point x="349.667" y="644"/>
			<point x="301.333" y="644" type="curve" smooth="yes"/>
			<point x="211" y="644"/>
			<point x="169.333" y="588"/>
			<point x="166" y="570.333" type="curve"/>
			<point x="166" y="569.333"/>
			<point x="165.667" y="568"/>
			<point x="165.667" y="565.667" type="curve"/>
			<point x="167" y="559.333"/>
			<point x="170.667" y="550.667"/>
			<point x="184" y="549.333" type="curve"/>
			<point x="185" y="549.333"/>
			<point x="186.333" y="549"/>
			<point x="187.667" y="549" type="curve" smooth="yes"/>
			<point x="210.333" y="549"/>
			<point x="219.333" y="567"/>
			<point x="223" y="579.667" type="curve"/>
			<point x="224" y="582.333"/>
			<point x="225" y="584.333"/>
			<point x="225.667" y="586.333" type="curve"/>
			<point x="234" y="606"/>
			<point x="259" y="616.667"/>
			<point x="278.667" y="618" type="curve"/>
			<point x="280" y="618"/>
			<point x="281.333" y="618"/>
			<point x="282.667" y="618" type="curve" smooth="yes"/>
			<point x="299.667" y="618"/>
			<point x="315.667" y="609.667"/>
			<point x="315.667" y="588" type="curve" smooth="yes"/>
			<point x="315.667" y="585.333"/>
			<point x="315" y="583.333"/>
			<point x="315" y="580.667" type="curve"/>
			<point x="309.667" y="536"/>
			<point x="266" y="507.667"/>
			<point x="221.333" y="501.667" type="curve"/>
			<point name=".hr02" x="217.333" y="475.667" type="line"/>
			<point x="227" y="477.333"/>
			<point x="234.667" y="478.333"/>
			<point x="242.333" y="478.333" type="curve" smooth="yes"/>
			<point x="268.333" y="478.333"/>
			<point x="307" y="471.333"/>
			<point x="307" y="432" type="curve" smooth="yes"/>
			<point x="307" y="429.333"/>
			<point x="307" y="426"/>
			<point x="306.333" y="422" type="curve" smooth="yes"/>
			<point x="297" y="359.667"/>
			<point x="241.667" y="334"/>
		</contour>
		<contour>
			<point x="637.667" y="561" type="line"/>
			<point x="101.667" y="-40.6667" type="line"/>
			<point x="147.667" y="-50.3333" type="line"/>
			<point x="683.667" y="551.333" type="line"/>
		</contour>
		<contour>
			<point x="546" y="178.667" type="curve"/>
			<point x="535.667" y="132.667"/>
			<point x="526.333" y="87"/>
			<point x="516" y="41" type="curve"/>
			<point x="416" y="41" type="line"/>
			<point x="466.333" y="87.6667"/>
			<point x="507.667" y="133.333"/>
		</contour>
	</outline>
</glyph>
<glyph name="Ccedilla" format="2">
	<unicode hex="00C7"/>
	<advance width="636"/>
	<outline>
		<contour>
			<point x="286" y="-101.667" type="line"/>
			<point x="303.333" y="-98.6667"/>
			<point x="318" y="-98.6667"/>
			<point x="336.333" y="-100.667" type="curve" smooth="yes"/>
			<point x="352.333" y="-102"/>
			<point x="361.333" y="-110"/>
			<point x="362.333" y="-123" type="curve"/>
			<point x="363" y="-128.333"/>
			<point x="362.667" y="-134.333"/>
			<point x="361" y="-139.667" type="curve"/>
			<point x="355" y="-162.667"/>
			<point x="333.333" y="-176"/>
			<point x="304" y="-176" type="curve" smooth="yes"/>
			<point x="284" y="-176"/>
			<point x="273.667" y="-172"/>
			<point x="248.333" y="-162" type="curve"/>
			<point x="240" y="-168"/>
			<point x="235.667" y="-176.667"/>
			<point x="234" y="-188" type="curve"/>
			<point x="257" y="-199"/>
			<point x="269" y="-205"/>
			<point x="301" y="-205" type="curve" smooth="yes"/>
			<point x="363.333" y="-205"/>
			<point x="424.667" y="-169.667"/>
			<point x="427" y="-117" type="curve" smooth="yes"/>
			<point x="429" y="-84"/>
			<point x="405" y="-64"/>
			<point x="372.333" y="-60" type="curve"/>
			<point x="362.333" y="-58.3333"/>
			<point x="352.333" y="-58"/>
			<point x="342" y="-58.3333" type="curve"/>
			<point x="370.333" y="-8.66667" type="line"/>
			<point x="375" y="-8"/>
			<point x="380" y="-8"/>
			<point x="384.667" y="-7.33333" type="curve"/>
			<point x="467" y="2"/>
			<point x="549.333" y="46.6667"/>
			<point x="621.667" y="125" type="curve"/>
			<point x="618.667" y="134"/>
			<point x="610.667" y="142"/>
			<point x="599.667" y="142" type="curve"/>
			<point x="520.667" y="68"/>
			<point x="447.667" y="38"/>
			<point x="372" y="34.6667" type="curve"/>
			<point x="366" y="34.6667"/>
			<point x="359.333" y="34.6667"/>
			<point x="353.333" y="35" type="curve" smooth="yes"/>
			<point x="248" y="38.6667"/>
			<point x="198" y="132.667"/>
			<point x="196" y="244.667" type="curve" smooth="yes"/>
			<point x="195.333" y="273.333"/>
			<point x="198" y="303.667"/>
			<point x="203.667" y="334" type="curve" smooth="yes"/>
			<point x="240.333" y="521"/>
			<point x="375.667" y="619.333"/>
			<point x="464.333" y="619.333" type="curve" smooth="yes"/>
			<point x="597" y="619.333"/>
			<point x="633" y="539.667"/>
			<point x="641" y="453.667" type="curve"/>
			<point x="651.333" y="453"/>
			<point x="664" y="455.333"/>
			<point x="674.667" y="458" type="curve"/>
			<point x="677" y="510"/>
			<point x="679" y="558.667"/>
			<point x="683.667" y="613" type="curve"/>
			<point x="631.667" y="616.667"/>
			<point x="600.333" y="658"/>
			<point x="482.333" y="658" type="curve" smooth="yes"/>
			<point x="313.667" y="658"/>
			<point x="135.667" y="519.667"/>
			<point x="96" y="315" type="curve" smooth="yes"/>
			<point x="91" y="289.333"/>
			<point x="89" y="264"/>
			<point x="89" y="238" type="curve"/>
			<point x="90" y="168"/>
			<point x="110.667" y="101.333"/>
			<point x="156.333" y="57" type="curve" smooth="yes"/>
			<point x="197.667" y="16"/>
			<point x="257" y="-8"/>
			<point x="335.667" y="-9.66667" type="curve"/>
			<point x="281.667" y="-95.6667" type="line"/>
		</contour>
	</outline>
</glyph>
<glyph name="Ecircumflex" format="2">
	<unicode hex="00CA"/>
	<advance width="543"/>
	<outline>
		<contour>
			<point x="370.333" y="363" type="curve" smooth="yes"/>
			<point x="263" y="363" type="line"/>
			<point x="299.667" y="554.667" type="line"/>
			<point x="301.667" y="565.333" type="line" smooth="yes"/>
			<point x="306.333" y="587.667"/>
			<point x="320.333" y="601"/>
			<point x="341.667" y="603.333" type="curve" smooth="yes"/>
			<point x="347" y="604"/>
			<point x="351.667" y="604.333"/>
			<point x="357.333" y="604.333" type="curve" smooth="yes"/>
			<point x="440" y="604.333" type="line" smooth="yes"/>
			<point x="512" y="604.333"/>
			<point x="522.667" y="565"/>
			<point x="530.667" y="496" type="curve"/>
			<point x="540.667" y="496.667"/>
			<point x="554" y="498"/>
			<point x="563.333" y="501" type="curve"/>
			<point x="567" y="542"/>
			<point x="574.333" y="638"/>
			<point x="574.333" y="646" type="curve" smooth="yes"/>
			<point x="574.333" y="648"/>
			<point x="573.667" y="649"/>
			<point x="570.667" y="649" type="curve"/>
			<point x="553.667" y="646"/>
			<point x="547" y="645"/>
			<point x="524" y="645" type="curve" smooth="yes"/>
			<point x="267.667" y="645" type="line" smooth="yes"/>
			<point x="243" y="645"/>
			<point x="183.667" y="646"/>
			<point x="137.667" y="647" type="curve"/>
			<point x="136.333" y="645.667"/>
			<point x="135.667" y="644.333"/>
			<point name=".hr01" x="134.333" y="642.333" type="curve"/>
			<point x="133.333" y="636"/>
			<point x="131.667" y="630.667"/>
			<point x="131" y="624.333" type="curve"/>
			<point x="131" y="622.333"/>
			<point x="130.333" y="619.667"/>
			<point x="131.667" y="617.667" type="curve"/>
			<point x="134.667" y="617"/>
			<point x="138.333" y="616"/>
			<point x="142.333" y="616" type="curve"/>
			<point x="150.667" y="615"/>
			<point x="159" y="615"/>
			<point x="166.667" y="614" type="curve"/>
			<point x="193.333" y="611.333"/>
			<point name=".hr02" x="205.333" y="603.667"/>
			<point x="206.333" y="584" type="curve" smooth="yes"/>
			<point x="206.667" y="579.667"/>
			<point x="206" y="574.667"/>
			<point x="205.333" y="569.667" type="curve" smooth="yes"/>
			<point x="203.333" y="554.333"/>
			<point x="200.667" y="538.667"/>
			<point x="196.667" y="521.333" type="curve"/>
			<point x="119.667" y="122" type="line" smooth="yes"/>
			<point x="116" y="105"/>
			<point x="113" y="90"/>
			<point x="109.667" y="75" type="curve"/>
			<point x="102.667" y="47.3333"/>
			<point x="89.3333" y="35.3333"/>
			<point x="57" y="31.6667" type="curve" smooth="yes"/>
			<point x="47.3333" y="30.3333"/>
			<point x="38.3333" y="30"/>
			<point x="27.6667" y="29" type="curve"/>
			<point x="23.6667" y="29"/>
			<point x="20.3333" y="28"/>
			<point x="17.3333" y="27.3333" type="curve"/>
			<point x="15.3333" y="25.3333"/>
			<point x="14.6667" y="23.3333"/>
			<point x="13.3333" y="20.6667" type="curve"/>
			<point x="11.6667" y="13"/>
			<point x="10" y="5.33333"/>
			<point x="10.3333" y="-0.666667" type="curve"/>
			<point x="11.6667" y="-2" type="line"/>
			<point x="54" y="-1"/>
			<point x="103.667" y="0"/>
			<point x="138.333" y="0" type="curve" smooth="yes"/>
			<point x="153.333" y="0" type="line"/>
			<point x="355.333" y="0" type="line" smooth="yes"/>
			<point x="401.333" y="0"/>
			<point x="480.667" y="-2"/>
			<point x="480.667" y="-2" type="curve"/>
			<point x="502.333" y="49.3333"/>
			<point x="524.667" y="113.333"/>
			<point x="545.333" y="165" type="curve"/>
			<point x="535.667" y="168.333"/>
			<point x="523" y="169.667"/>
			<point x="512" y="170" type="curve"/>
			<point x="480" y="100"/>
			<point x="431" y="43"/>
			<point name=".hr03" x="361" y="40.3333" type="curve" smooth="yes"/>
			<point x="355.667" y="40"/>
			<point x="350" y="40"/>
			<point x="344.667" y="40" type="curve" smooth="yes"/>
			<point x="247" y="40" type="line"/>
			<point x="236.333" y="40" type="line" smooth="yes"/>
			<point x="221" y="40"/>
			<point x="210" y="44.3333"/>
			<point x="208" y="60" type="curve"/>
			<point x="206.333" y="65"/>
			<point x="205.667" y="71"/>
			<point x="207" y="78" type="curve" smooth="yes"/>
			<point x="254.333" y="321" type="line"/>
			<point x="341.667" y="321" type="line" smooth="yes"/>
			<point x="351.333" y="321"/>
			<point x="361" y="321"/>
			<point x="370" y="320.667" type="curve" smooth="yes"/>
			<point x="400" y="319.667"/>
			<point x="412.667" y="312"/>
			<point x="414.333" y="291" type="curve"/>
			<point x="415" y="288.333"/>
			<point x="414.333" y="284.667"/>
			<point x="414.333" y="281" type="curve"/>
			<point x="413" y="264.333" type="line"/>
			<point x="413" y="261.667"/>
			<point x="413" y="258.333"/>
			<point x="412.667" y="255" type="curve"/>
			<point x="414" y="253"/>
			<point x="416.667" y="252"/>
			<point x="419.667" y="251.667" type="curve"/>
			<point x="426.333" y="251.333"/>
			<point x="433" y="251.333"/>
			<point x="439.333" y="251.667" type="curve"/>
			<point x="442" y="252.667"/>
			<point x="444.333" y="253"/>
			<point x="445.667" y="254.333" type="curve"/>
			<point x="447" y="255" type="line"/>
			<point x="451.667" y="293.333"/>
			<point x="456" y="317.667"/>
			<point x="461" y="342.333" type="curve" smooth="yes"/>
			<point x="465.333" y="367"/>
			<point x="471.333" y="394.333"/>
			<point x="481" y="431" type="curve"/>
			<point x="479" y="433.667" type="line"/>
			<point x="473.333" y="435"/>
			<point x="464" y="435.333"/>
			<point x="455.667" y="435" type="curve"/>
			<point x="451" y="434.667"/>
			<point x="446.667" y="431.667"/>
			<point x="445.333" y="428.333" type="curve"/>
			<point x="443.333" y="420.667"/>
			<point x="440.667" y="412.667"/>
			<point x="438.667" y="405.667" type="curve"/>
			<point x="428" y="374"/>
			<point x="411" y="363"/>
		</contour>
		<contour>
			<point x="538" y="719.333" type="curve"/>
			<point x="505.333" y="746"/>
			<point x="469.667" y="782.333"/>
			<point x="445.333" y="818.667" type="curve"/>
			<point x="411.667" y="817" type="line"/>
			<point x="373" y="782.667"/>
			<point x="327.667" y="747.333"/>
			<point x="283.667" y="719.667" type="curve"/>
			<point x="285.333" y="711.667"/>
			<point x="288.333" y="702.667"/>
			<point x="293" y="696.667" type="curve"/>
			<point x="334" y="711.667"/>
			<point x="377.667" y="731.333"/>
			<point x="417.333" y="756.667" type="curve"/>
			<point x="443.333" y="733"/>
			<point x="481.667" y="712.667"/>
			<point x="517.333" y="696.667" type="curve"/>
			<point x="525.333" y="702.667"/>
			<point x="533" y="711.333"/>
		</contour>
	</outline>
</glyph>
<glyph name="Edieresis" format="2">
	<unicode hex="00CB"/>
	<advance width="543"/>
	<outline>
		<contour>
			<point x="370.333" y="363" type="curve" smooth="yes"/>
			<point x="263" y="363" type="line"/>
			<point x="299.667" y="554.667" type="line"/>
			<point x="301.667" y="565.333" type="line" smooth="yes"/>
			<point x="306.333" y="587.667"/>
			<point x="320.333" y="601"/>
			<point x="341.667" y="603.333" type="curve" smooth="yes"/>
			<point x="347" y="604"/>
			<point x="351.667" y="604.333"/>
			<point x="357.333" y="604.333" type="curve" smooth="yes"/>
			<point x="440" y="604.333" type="line" smooth="yes"/>
			<point x="512" y="604.333"/>
			<point x="522.667" y="565"/>
			<point x="530.667" y="496" type="curve"/>
			<point x="540.667" y="496.667"/>
			<point x="554" y="498"/>
			<point x="563.333" y="501" type="curve"/>
			<point x="567" y="542"/>
			<point x="574.333" y="638"/>
			<point x="574.333" y="646" type="curve" smooth="yes"/>
			<point x="574.333" y="648"/>
			<point x="573.667" y="649"/>
			<point x="570.667" y="649" type="curve"/>
			<point x="553.667" y="646"/>
			<point x="547" y="645"/>
			<point x="524" y="645" type="curve" smooth="yes"/>
			<point x="267.667" y="645" type="line" smooth="yes"/>
			<point x="243" y="645"/>
			<point x="183.667" y="646"/>
			<point x="137.667" y="647" type="curve"/>
			<point x="136.333" y="645.667"/>
			<point x="135.667" y="644.333"/>
			<point name=".hr01" x="134.333" y="642.333" type="curve"/>
			<point x="133.333" y="636"/>
			<point x="131.667" y="630.667"/>
			<point x="131" y="624.333" type="curve"/>
			<point x="131" y="622.333"/>
			<point x="130.333" y="619.667"/>
			<point x="131.667" y="617.667" type="curve"/>
			<point x="134.667" y="617"/>
			<point x="138.333" y="616"/>
			<point x="142.333" y="616" type="curve"/>
			<point x="150.667" y="615"/>
			<point x="159" y="615"/>
			<point x="166.667" y="614" type="curve"/>
			<point x="193.333" y="611.333"/>
			<point name=".hr02" x="205.333" y="603.667"/>
			<point x="206.333" y="584" type="curve" smooth="yes"/>
			<point x="206.667" y="579.667"/>
			<point x="206" y="574.667"/>
			<point x="205.333" y="569.667" type="curve" smooth="yes"/>
			<point x="203.333" y="554.333"/>
			<point x="200.667" y="538.667"/>
			<point x="196.667" y="521.333" type="curve"/>
			<point x="119.667" y="122" type="line" smooth="yes"/>
			<point x="116" y="105"/>
			<point x="113" y="90"/>
			<point x="109.667" y="75" type="curve"/>
			<point x="102.667" y="47.3333"/>
			<point x="89.3333" y="35.3333"/>
			<point x="57" y="31.6667" type="curve" smooth="yes"/>
			<point x="47.3333" y="30.3333"/>
			<point x="38.3333" y="30"/>
			<point x="27.6667" y="29" type="curve"/>
			<point x="23.6667" y="29"/>
			<point x="20.3333" y="28"/>
			<point x="17.3333" y="27.3333" type="curve"/>
			<point x="15.3333" y="25.3333"/>
			<point x="14.6667" y="23.3333"/>
			<point x="13.3333" y="20.6667" type="curve"/>
			<point x="11.6667" y="13"/>
			<point x="10" y="5.33333"/>
			<point x="10.3333" y="-0.666667" type="curve"/>
			<point x="11.6667" y="-2" type="line"/>
			<point x="54" y="-1"/>
			<point x="103.667" y="0"/>
			<point x="138.333" y="0" type="curve" smooth="yes"/>
			<point x="153.333" y="0" type="line"/>
			<point x="355.333" y="0" type="line" smooth="yes"/>
			<point x="401.333" y="0"/>
			<point x="480.667" y="-2"/>
			<point x="480.667" y="-2" type="curve"/>
			<point x="502.333" y="49.3333"/>
			<point x="524.667" y="113.333"/>
			<point x="545.333" y="165" type="curve"/>
			<point x="535.667" y="168.333"/>
			<point x="523" y="169.667"/>
			<point x="512" y="170" type="curve"/>
			<point x="480" y="100"/>
			<point x="431" y="43"/>
			<point name=".hr03" x="361" y="40.3333" type="curve" smooth="yes"/>
			<point x="355.667" y="40"/>
			<point x="350" y="40"/>
			<point x="344.667" y="40" type="curve" smooth="yes"/>
			<point x="247" y="40" type="line"/>
			<point x="236.333" y="40" type="line" smooth="yes"/>
			<point x="221" y="40"/>
			<point x="210" y="44.3333"/>
			<point x="208" y="60" type="curve"/>
			<point x="206.333" y="65"/>
			<point x="205.667" y="71"/>
			<point x="207" y="78" type="curve" smooth="yes"/>
			<point x="254.333" y="321" type="line"/>
			<point x="341.667" y="321" type="line" smooth="yes"/>
			<point x="351.333" y="321"/>
			<point x="361" y="321"/>
			<point x="370" y="320.667" type="curve" smooth="yes"/>
			<point x="400" y="319.667"/>
			<point x="412.667" y="312"/>
			<point x="414.333" y="291" type="curve"/>
			<point x="415" y="288.333"/>
			<point x="414.333" y="284.667"/>
			<point x="414.333" y="281" type="curve"/>
			<point x="413" y="264.333" type="line"/>
			<point x="413" y="261.667"/>
			<point x="413" y="258.333"/>
			<point x="412.667" y="255" type="curve"/>
			<point x="414" y="253"/>
			<point x="416.667" y="252"/>
			<point x="419.667" y="251.667" type="curve"/>
			<point x="426.333" y="251.333"/>
			<point x="433" y="251.333"/>
			<point x="439.333" y="251.667" type="curve"/>
			<point x="442" y="252.667"/>
			<point x="444.333" y="253"/>
			<point x="445.667" y="254.333" type="curve"/>
			<point x="447" y="255" type="line"/>
			<point x="451.667" y="293.333"/>
			<point x="456" y="317.667"/>
			<point x="461" y="342.333" type="curve" smooth="yes"/>
			<point x="465.333" y="367"/>
			<point x="471.333" y="394.333"/>
			<point x="481" y="431" type="curve"/>
			<point x="479" y="433.667" type="line"/>
			<point x="473.333" y="435"/>
			<point x="464" y="435.333"/>
			<point x="455.667" y="435" type="curve"/>
			<point x="451" y="434.667"/>
			<point x="446.667" y="431.667"/>
			<point x="445.333" y="428.333" type="curve"/>
			<point x="443.333" y="420.667"/>
			<point x="440.667" y="412.667"/>
			<point x="438.667" y="405.667" type="curve"/>
			<point x="428" y="374"/>
			<point x="411" y="363"/>
		</contour>
		<contour>
			<point x="465" y="756.333" type="curve"/>
			<point x="464.333" y="753"/>
			<point x="464.333" y="750"/>
			<point x="464.667" y="747.667" type="curve"/>
			<point x="466" y="725"/>
			<point x="482.667" y="708.667"/>
			<point x="505.333" y="707.333" type="curve"/>
			<point x="508.333" y="707"/>
			<point x="510.667" y="707"/>
			<point x="513.333" y="707.667" type="curve"/>
			<point x="539.333" y="709.667"/>
			<point x="559.667" y="731"/>
			<point x="562.333" y="756.333" type="curve"/>
			<point x="563" y="759"/>
			<point x="563" y="762.667"/>
			<point x="562.667" y="765.667" type="curve"/>
			<point x="561.333" y="787"/>
			<point x="546" y="803.667"/>
			<point x="523.333" y="805" type="curve"/>
			<point x="521" y="805.333"/>
			<point x="518" y="805.333"/>
			<point x="515.333" y="804.667" type="curve"/>
			<point x="489.333" y="802.667"/>
			<point x="468.333" y="781.667"/>
		</contour>
		<contour>
			<point x="276" y="755.667" type="curve"/>
			<point x="276" y="752.333"/>
			<point x="275.333" y="749.333"/>
			<point x="275.667" y="747" type="curve"/>
			<point x="277" y="725"/>
			<point x="293.333" y="708.667"/>
			<point x="316" y="707.333" type="curve"/>
			<point x="319" y="707"/>
			<point x="321.333" y="707"/>
			<point x="324" y="707.667" type="curve"/>
			<point x="350" y="709.667"/>
			<point x="371.333" y="730.333"/>
			<point x="374" y="755.667" type="curve"/>
			<point x="374" y="759"/>
			<point x="374.667" y="762"/>
			<point x="374.333" y="765" type="curve"/>
			<point x="373" y="787"/>
			<point x="357.333" y="803"/>
			<point x="334.667" y="804.333" type="curve"/>
			<point x="332.333" y="804.667"/>
			<point x="329.333" y="804.667"/>
			<point x="326.667" y="804" type="curve"/>
			<point x="300.667" y="802"/>
			<point x="279.333" y="781.667"/>
		</contour>
	</outline>
</glyph>
<glyph name="Igrave" format="2">
	<unicode hex="00CC"/>
	<advance width="304"/>
	<outline>
		<contour>
			<point x="212.333" y="553.667" type="curve" smooth="yes"/>
			<point x="126.333" y="114.667" type="line" smooth="yes"/>
			<point x="124.333" y="103.333"/>
			<point x="121.667" y="92.6667"/>
			<point x="119.333" y="82" type="curve"/>
			<point x="111.333" y="50"/>
			<point x="95.6667" y="36.3333"/>
			<point x="59.6667" y="32" type="curve" smooth="yes"/>
			<point x="49.6667" y="30.6667"/>
			<point x="38.3333" y="29.6667"/>
			<point x="27.3333" y="28.6667" type="curve"/>
			<point x="21" y="24"/>
			<point x="18.3333" y="6"/>
			<point x="23.6667" y="-2" type="curve"/>
			<point x="65" y="-1"/>
			<point x="108.667" y="0"/>
			<point x="147.667" y="0" type="curve" smooth="yes"/>
			<point x="163" y="0" type="line" smooth="yes"/>
			<point x="198.333" y="0"/>
			<point x="248.333" y="-1"/>
			<point x="286.333" y="-2" type="curve"/>
			<point x="292" y="2.66667"/>
			<point x="295" y="23.3333"/>
			<point x="290.333" y="28.6667" type="curve"/>
			<point x="278.667" y="29.6667"/>
			<point x="267" y="30.6667"/>
			<point x="256.333" y="32" type="curve" smooth="yes"/>
			<point x="222.333" y="35.6667"/>
			<point x="211" y="48.6667"/>
			<point x="216.333" y="82" type="curve" smooth="yes"/>
			<point x="218.667" y="96.6667"/>
			<point x="221.667" y="111.333"/>
			<point x="224.333" y="126.667" type="curve" smooth="yes"/>
			<point x="303.667" y="530.333" type="line" smooth="yes"/>
			<point x="305.667" y="541.667"/>
			<point x="308.333" y="552.333"/>
			<point x="310.667" y="563" type="curve"/>
			<point x="318.667" y="595"/>
			<point x="334.333" y="608.667"/>
			<point x="370.333" y="613" type="curve" smooth="yes"/>
			<point x="380.333" y="614.333"/>
			<point x="391.667" y="615.333"/>
			<point x="402.667" y="616.333" type="curve"/>
			<point x="409" y="621"/>
			<point x="411.667" y="639"/>
			<point x="406.333" y="647" type="curve"/>
			<point x="365" y="646"/>
			<point x="322" y="645"/>
			<point x="283" y="645" type="curve" smooth="yes"/>
			<point x="277.667" y="645" type="line" smooth="yes"/>
			<point x="239.667" y="645"/>
			<point x="185.667" y="646"/>
			<point x="143.667" y="647" type="curve"/>
			<point x="138" y="642.333"/>
			<point x="134.667" y="621.667"/>
			<point x="139.333" y="616.333" type="curve"/>
			<point x="153.333" y="615.333"/>
			<point x="166.333" y="614.333"/>
			<point x="177.667" y="611.667" type="curve"/>
			<point x="210" y="606.667"/>
			<point x="219.667" y="591"/>
		</contour>
		<contour>
			<point x="235.333" y="820.667" type="curve"/>
			<point x="207.333" y="806.667"/>
			<point x="178" y="789.333"/>
			<point x="153.333" y="772.333" type="curve"/>
			<point x="159" y="765.667" type="line"/>
			<point x="293" y="707" type="line" smooth="yes"/>
			<point x="306" y="701"/>
			<point x="317.333" y="698"/>
			<point x="327" y="697.333" type="curve"/>
			<point x="329" y="696.667"/>
			<point x="331.333" y="696.667"/>
			<point x="333.333" y="697" type="curve"/>
			<point x="345.667" y="698"/>
			<point x="350.667" y="708.333"/>
			<point x="351" y="714.333" type="curve" smooth="yes"/>
			<point x="351.333" y="718.667"/>
			<point x="350.333" y="723.333"/>
			<point x="345.333" y="728.667" type="curve"/>
			<point x="343.667" y="730.333"/>
			<point x="342" y="732"/>
			<point x="340" y="733.667" type="curve" smooth="yes"/>
			<point x="310" y="759.333"/>
			<point x="269.333" y="793.333"/>
		</contour>
	</outline>
</glyph>
<glyph name="Iacute" format="2">
	<unicode hex="00CD"/>
	<advance width="304"/>
	<outline>
		<contour>
			<point x="212.333" y="553.667" type="curve" smooth="yes"/>
			<point x="126.333" y="114.667" type="line" smooth="yes"/>
			<point x="124.333" y="103.333"/>
			<point x="121.667" y="92.6667"/>
			<point x="119.333" y="82" type="curve"/>
			<point x="111.333" y="50"/>
			<point x="95.6667" y="36.3333"/>
			<point x="59.6667" y="32" type="curve" smooth="yes"/>
			<point x="49.6667" y="30.6667"/>
			<point x="38.3333" y="29.6667"/>
			<point x="27.3333" y="28.6667" type="curve"/>
			<point x="21" y="24"/>
			<point x="18.3333" y="6"/>
			<point x="23.6667" y="-2" type="curve"/>
			<point x="65" y="-1"/>
			<point x="108.667" y="0"/>
			<point x="147.667" y="0" type="curve" smooth="yes"/>
			<point x="163" y="0" type="line" smooth="yes"/>
			<point x="198.333" y="0"/>
			<point x="248.333" y="-1"/>
			<point x="286.333" y="-2" type="curve"/>
			<point x="292" y="2.66667"/>
			<point x="295" y="23.3333"/>
			<point x="290.333" y="28.6667" type="curve"/>
			<point x="278.667" y="29.6667"/>
			<point x="267" y="30.6667"/>
			<point x="256.333" y="32" type="curve" smooth="yes"/>
			<point x="222.333" y="35.6667"/>
			<point x="211" y="48.6667"/>
			<point x="216.333" y="82" type="curve" smooth="yes"/>
			<point x="218.667" y="96.6667"/>
			<point x="221.667" y="111.333"/>
			<point x="224.333" y="126.667" type="curve" smooth="yes"/>
			<point x="303.667" y="530.333" type="line" smooth="yes"/>
			<point x="305.667" y="541.667"/>
			<point x="308.333" y="552.333"/>
			<point x="310.667" y="563" type="curve"/>
			<point x="318.667" y="595"/>
			<point x="334.333" y="608.667"/>
			<point x="370.333" y="613" type="curve" smooth="yes"/>
			<point x="380.333" y="614.333"/>
			<point x="391.667" y="615.333"/>
			<point x="402.667" y="616.333" type="curve"/>
			<point x="409" y="621"/>
			<point x="411.667" y="639"/>
			<point x="406.333" y="647" type="curve"/>
			<point x="365" y="646"/>
			<point x="322" y="645"/>
			<point x="283" y="645" type="curve" smooth="yes"/>
			<point x="277.667" y="645" type="line" smooth="yes"/>
			<point x="239.667" y="645"/>
			<point x="185.667" y="646"/>
			<point x="143.667" y="647" type="curve"/>
			<point x="138" y="642.333"/>
			<point x="134.667" y="621.667"/>
			<point x="139.333" y="616.333" type="curve"/>
			<point x="153.333" y="615.333"/>
			<point x="166.333" y="614.333"/>
			<point x="177.667" y="611.667" type="curve"/>
			<point x="210" y="606.667"/>
			<point x="219.667" y="591"/>
		</contour>
		<contour>
			<point x="360" y="821.667" type="curve"/>
			<point x="315" y="794.333"/>
			<point x="261" y="760.333"/>
			<point x="221" y="734.667" type="curve" smooth="yes"/>
			<point x="218.333" y="733"/>
			<point x="215" y="731.333"/>
			<point x="213.333" y="729.667" type="curve"/>
			<point x="204.333" y="722.333"/>
			<point x="201.333" y="717"/>
			<point x="201" y="710" type="curve" smooth="yes"/>
			<point x="200.667" y="703"/>
			<point x="205" y="699.333"/>
			<point x="212" y="698.333" type="curve" smooth="yes"/>
			<point x="214.333" y="698"/>
			<point x="216.667" y="697.667"/>
			<point x="219" y="698.333" type="curve"/>
			<point x="228.667" y="699"/>
			<point x="241" y="702"/>
			<point x="257.667" y="708" type="curve" smooth="yes"/>
			<point x="409" y="764.667" type="line"/>
			<point x="422.667" y="773.333" type="line"/>
			<point x="404.667" y="790.333"/>
			<point x="382.667" y="807.667"/>
		</contour>
	</outline>
</glyph>
<glyph name="Idieresis" format="2">
	<unicode hex="00CF"/>
	<advance width="304"/>
	<outline>
		<contour>
			<point x="212.333" y="553.667" type="curve" smooth="yes"/>
			<point x="126.333" y="114.667" type="line" smooth="yes"/>
			<point x="124.333" y="103.333"/>
			<point x="121.667" y="92.6667"/>
			<point x="119.333" y="82" type="curve"/>
			<point x="111.333" y="50"/>
			<point x="95.6667" y="36.3333"/>
			<point x="59.6667" y="32" type="curve" smooth="yes"/>
			<point x="49.6667" y="30.6667"/>
			<point x="38.3333" y="29.6667"/>
			<point x="27.3333" y="28.6667" type="curve"/>
			<point x="21" y="24"/>
			<point x="18.3333" y="6"/>
			<point x="23.6667" y="-2" type="curve"/>
			<point x="65" y="-1"/>
			<point x="108.667" y="0"/>
			<point x="147.667" y="0" type="curve" smooth="yes"/>
			<point x="163" y="0" type="line" smooth="yes"/>
			<point x="198.333" y="0"/>
			<point x="248.333" y="-1"/>
			<point x="286.333" y="-2" type="curve"/>
			<point x="292" y="2.66667"/>
			<point x="295" y="23.3333"/>
			<point x="290.333" y="28.6667" type="curve"/>
			<point x="278.667" y="29.6667"/>
			<point x="267" y="30.6667"/>
			<point x="256.333" y="32" type="curve" smooth="yes"/>
			<point x="222.333" y="35.6667"/>
			<point x="211" y="48.6667"/>
			<point x="216.333" y="82" type="curve" smooth="yes"/>
			<point x="218.667" y="96.6667"/>
			<point x="221.667" y="111.333"/>
			<point x="224.333" y="126.667" type="curve" smooth="yes"/>
			<point x="303.667" y="530.333" type="line" smooth="yes"/>
			<point x="305.667" y="541.667"/>
			<point x="308.333" y="552.333"/>
			<point x="310.667" y="563" type="curve"/>
			<point x="318.667" y="595"/>
			<point x="334.333" y="608.667"/>
			<point x="370.333" y="613" type="curve" smooth="yes"/>
			<point x="380.333" y="614.333"/>
			<point x="391.667" y="615.333"/>
			<point x="402.667" y="616.333" type="curve"/>
			<point x="409" y="621"/>
			<point x="411.667" y="639"/>
			<point x="406.333" y="647" type="curve"/>
			<point x="365" y="646"/>
			<point x="322" y="645"/>
			<point x="283" y="645" type="curve" smooth="yes"/>
			<point x="277.667" y="645" type="line" smooth="yes"/>
			<point x="239.667" y="645"/>
			<point x="185.667" y="646"/>
			<point x="143.667" y="647" type="curve"/>
			<point x="138" y="642.333"/>
			<point x="134.667" y="621.667"/>
			<point x="139.333" y="616.333" type="curve"/>
			<point x="153.333" y="615.333"/>
			<point x="166.333" y="614.333"/>
			<point x="177.667" y="611.667" type="curve"/>
			<point x="210" y="606.667"/>
			<point x="219.667" y="591"/>
		</contour>
		<contour>
			<point x="342" y="750.667" type="curve"/>
			<point x="341.333" y="747.333"/>
			<point x="341.333" y="744.333"/>
			<point x="341.667" y="742" type="curve"/>
			<point x="343" y="719.333"/>
			<point x="359.667" y="703"/>
			<point x="382.333" y="701.667" type="curve"/>
			<point x="385.333" y="701.333"/>
			<point x="387.667" y="701.333"/>
			<point x="390.333" y="702" type="curve"/>
			<point x="416.333" y="704"/>
			<point x="436.667" y="725.333"/>
			<point x="439.333" y="750.667" type="curve"/>
			<point x="440" y="753.333"/>
			<point x="440" y="757"/>
			<point x="439.667" y="760" type="curve"/>
			<point x="438.333" y="781.333"/>
			<point x="423" y="798"/>
			<point x="400.333" y="799.333" type="curve"/>
			<point x="398" y="799.667"/>
			<point x="395" y="799.667"/>
			<point x="392.333" y="799" type="curve"/>
			<point x="366.333" y="797"/>
			<point x="345.333" y="776"/>
		</contour>
		<contour>
			<point x="153" y="750" type="curve"/>
			<point x="153" y="746.667"/>
			<point x="152.333" y="743.667"/>
			<point x="152.667" y="741.333" type="curve"/>
			<point x="154" y="719.333"/>
			<point x="170.333" y="703"/>
			<point x="193" y="701.667" type="curve"/>
			<point x="196" y="701.333"/>
			<point x="198.333" y="701.333"/>
			<point x="201" y="702" type="curve"/>
			<point x="227" y="704"/>
			<point x="248.333" y="724.667"/>
			<point x="251" y="750" type="curve"/>
			<point x="251" y="753.333"/>
			<point x="251.667" y="756.333"/>
			<point x="251.333" y="759.333" type="curve"/>
			<point x="250" y="781.333"/>
			<point x="234.333" y="797.333"/>
			<point x="211.667" y="798.667" type="curve"/>
			<point x="209.333" y="799"/>
			<point x="206.333" y="799"/>
			<point x="203.667" y="798.333" type="curve"/>
			<point x="177.667" y="796.333"/>
			<point x="156.333" y="776"/>
		</contour>
	</outline>
</glyph>
<glyph name="Ograve" format="2">
	<unicode hex="00D2"/>
	<advance width="678"/>
	<outline>
		<contour>
			<point x="336.333" y="-10" type="curve" smooth="yes"/>
			<point x="522.667" y="-10"/>
			<point x="669.333" y="128"/>
			<point x="708.333" y="322.333" type="curve" smooth="yes"/>
			<point x="714" y="349.667"/>
			<point x="716.333" y="377"/>
			<point x="716.333" y="403.333" type="curve" smooth="yes"/>
			<point x="716.333" y="559.333"/>
			<point x="610.333" y="658"/>
			<point x="462" y="658" type="curve" smooth="yes"/>
			<point x="368.667" y="658"/>
			<point x="280.667" y="614.333"/>
			<point x="213.667" y="544" type="curve" smooth="yes"/>
			<point x="157.667" y="485.333"/>
			<point x="114.667" y="406.667"/>
			<point x="96" y="317.667" type="curve" smooth="yes"/>
			<point x="90.6667" y="290"/>
			<point x="87.3333" y="263"/>
			<point x="87.3333" y="236.333" type="curve" smooth="yes"/>
			<point x="87.3333" y="82.6667"/>
			<point x="193.333" y="-10"/>
		</contour>
		<contour>
			<point x="442.667" y="621.333" type="curve" smooth="yes"/>
			<point x="541.667" y="621.333"/>
			<point x="608.667" y="551.333"/>
			<point x="608.667" y="414.333" type="curve" smooth="yes"/>
			<point x="608.667" y="380.667"/>
			<point x="605.333" y="345"/>
			<point x="598.333" y="307.667" type="curve" smooth="yes"/>
			<point x="565.333" y="137.333"/>
			<point x="468" y="26.6667"/>
			<point x="362.667" y="26.6667" type="curve" smooth="yes"/>
			<point x="269.667" y="26.6667"/>
			<point x="196.333" y="102.667"/>
			<point x="196.333" y="238" type="curve" smooth="yes"/>
			<point x="196.333" y="267"/>
			<point x="199.667" y="297.333"/>
			<point x="206" y="329" type="curve" smooth="yes"/>
			<point x="222" y="411.333"/>
			<point x="251" y="477.333"/>
			<point x="282.667" y="521.667" type="curve" smooth="yes"/>
			<point x="331.667" y="590.667"/>
			<point x="391" y="621.333"/>
		</contour>
		<contour>
			<point x="410.667" y="820.667" type="curve"/>
			<point x="382.667" y="806.667"/>
			<point x="353.333" y="789.333"/>
			<point x="328.667" y="772.333" type="curve"/>
			<point x="334.333" y="765.667" type="line"/>
			<point x="468.333" y="707" type="line" smooth="yes"/>
			<point x="481.333" y="701"/>
			<point x="492.667" y="698"/>
			<point x="502.333" y="697.333" type="curve"/>
			<point x="504.333" y="696.667"/>
			<point x="506.667" y="696.667"/>
			<point x="508.667" y="697" type="curve"/>
			<point x="521" y="698"/>
			<point x="526" y="708.333"/>
			<point x="526.333" y="714.333" type="curve" smooth="yes"/>
			<point x="526.667" y="718.667"/>
			<point x="525.667" y="723.333"/>
			<point x="520.667" y="728.667" type="curve"/>
			<point x="519" y="730.333"/>
			<point x="517.333" y="732"/>
			<point x="515.333" y="733.667" type="curve" smooth="yes"/>
			<point x="485.333" y="759.333"/>
			<point x="444.667" y="793.333"/>
		</contour>
	</outline>
</glyph>
<glyph name="Oacute" format="2">
	<unicode hex="00D3"/>
	<advance width="678"/>
	<outline>
		<contour>
			<point x="336.333" y="-10" type="curve" smooth="yes"/>
			<point x="522.667" y="-10"/>
			<point x="669.333" y="128"/>
			<point x="708.333" y="322.333" type="curve" smooth="yes"/>
			<point x="714" y="349.667"/>
			<point x="716.333" y="377"/>
			<point x="716.333" y="403.333" type="curve" smooth="yes"/>
			<point x="716.333" y="559.333"/>
			<point x="610.333" y="658"/>
			<point x="462" y="658" type="curve" smooth="yes"/>
			<point x="368.667" y="658"/>
			<point x="280.667" y="614.333"/>
			<point x="213.667" y="544" type="curve" smooth="yes"/>
			<point x="157.667" y="485.333"/>
			<point x="114.667" y="406.667"/>
			<point x="96" y="317.667" type="curve" smooth="yes"/>
			<point x="90.6667" y="290"/>
			<point x="87.3333" y="263"/>
			<point x="87.3333" y="236.333" type="curve" smooth="yes"/>
			<point x="87.3333" y="82.6667"/>
			<point x="193.333" y="-10"/>
		</contour>
		<contour>
			<point x="442.667" y="621.333" type="curve" smooth="yes"/>
			<point x="541.667" y="621.333"/>
			<point x="608.667" y="551.333"/>
			<point x="608.667" y="414.333" type="curve" smooth="yes"/>
			<point x="608.667" y="380.667"/>
			<point x="605.333" y="345"/>
			<point x="598.333" y="307.667" type="curve" smooth="yes"/>
			<point x="565.333" y="137.333"/>
			<point x="468" y="26.6667"/>
			<point x="362.667" y="26.6667" type="curve" smooth="yes"/>
			<point x="269.667" y="26.6667"/>
			<point x="196.333" y="102.667"/>
			<point x="196.333" y="238" type="curve" smooth="yes"/>
			<point x="196.333" y="267"/>
			<point x="199.667" y="297.333"/>
			<point x="206" y="329" type="curve" smooth="yes"/>
			<point x="222" y="411.333"/>
			<point x="251" y="477.333"/>
			<point x="282.667" y="521.667" type="curve" smooth="yes"/>
			<point x="331.667" y="590.667"/>
			<point x="391" y="621.333"/>
		</contour>
		<contour>
			<point x="534.667" y="821.667" type="curve"/>
			<point x="489.667" y="794.333"/>
			<point x="435.667" y="760.333"/>
			<point x="395.667" y="734.667" type="curve" smooth="yes"/>
			<point x="393" y="733"/>
			<point x="389.667" y="731.333"/>
			<point x="388" y="729.667" type="curve"/>
			<point x="379" y="722.333"/>
			<point x="376" y="717"/>
			<point x="375.667" y="710" type="curve" smooth="yes"/>
			<point x="375.333" y="703"/>
			<point x="379.667" y="699.333"/>
			<point x="386.667" y="698.333" type="curve" smooth="yes"/>
			<point x="389" y="698"/>
			<point x="391.333" y="697.667"/>
			<point x="393.667" y="698.333" type="curve"/>
			<point x="403.333" y="699"/>
			<point x="415.667" y="702"/>
			<point x="432.333" y="708" type="curve" smooth="yes"/>
			<point x="583.667" y="764.667" type="line"/>
			<point x="597.333" y="773.333" type="line"/>
			<point x="579.333" y="790.333"/>
			<point x="557.333" y="807.667"/>
		</contour>
	</outline>
</glyph>
<glyph name="Ocircumflex" format="2">
	<unicode hex="00D4"/>
	<advance width="678"/>
	<outline>
		<contour>
			<point x="336.333" y="-10" type="curve" smooth="yes"/>
			<point x="522.667" y="-10"/>
			<point x="669.333" y="128"/>
			<point x="708.333" y="322.333" type="curve" smooth="yes"/>
			<point x="714" y="349.667"/>
			<point x="716.333" y="377"/>
			<point x="716.333" y="403.333" type="curve" smooth="yes"/>
			<point x="716.333" y="559.333"/>
			<point x="610.333" y="658"/>
			<point x="462" y="658" type="curve" smooth="yes"/>
			<point x="368.667" y="658"/>
			<point x="280.667" y="614.333"/>
			<point x="213.667" y="544" type="curve" smooth="yes"/>
			<point x="157.667" y="485.333"/>
			<point x="114.667" y="406.667"/>
			<point x="96" y="317.667" type="curve" smooth="yes"/>
			<point x="90.6667" y="290"/>
			<point x="87.3333" y="263"/>
			<point x="87.3333" y="236.333" type="curve" smooth="yes"/>
			<point x="87.3333" y="82.6667"/>
			<point x="193.333" y="-10"/>
		</contour>
		<contour>
			<point x="442.667" y="621.333" type="curve" smooth="yes"/>
			<point x="541.667" y="621.333"/>
			<point x="608.667" y="551.333"/>
			<point x="608.667" y="414.333" type="curve" smooth="yes"/>
			<point x="608.667" y="380.667"/>
			<point x="605.333" y="345"/>
			<point x="598.333" y="307.667" type="curve" smooth="yes"/>
			<point x="565.333" y="137.333"/>
			<point x="468" y="26.6667"/>
			<point x="362.667" y="26.6667" type="curve" smooth="yes"/>
			<point x="269.667" y="26.6667"/>
			<point x="196.333" y="102.667"/>
			<point x="196.333" y="238" type="curve" smooth="yes"/>
			<point x="196.333" y="267"/>
			<point x="199.667" y="297.333"/>
			<point x="206" y="329" type="curve" smooth="yes"/>
			<point x="222" y="411.333"/>
			<point x="251" y="477.333"/>
			<point x="282.667" y="521.667" type="curve" smooth="yes"/>
			<point x="331.667" y="590.667"/>
			<point x="391" y="621.333"/>
		</contour>
		<contour>
			<point x="592.667" y="719.333" type="curve"/>
			<point x="560" y="746"/>
			<point x="524.333" y="782.333"/>
			<point x="500" y="818.667" type="curve"/>
			<point x="466.333" y="817" type="line"/>
			<point x="427.667" y="782.667"/>
			<point x="382.333" y="747.333"/>
			<point x="338.333" y="719.667" type="curve"/>
			<point x="340" y="711.667"/>
			<point x="343" y="702.667"/>
			<point x="347.667" y="696.667" type="curve"/>
			<point x="388.667" y="711.667"/>
			<point x="432.333" y="731.333"/>
			<point x="472" y="756.667" type="curve"/>
			<point x="498" y="733"/>
			<point x="536.333" y="712.667"/>
			<point x="572" y="696.667" type="curve"/>
			<point x="580" y="702.667"/>
			<point x="587.667" y="711.333"/>
		</contour>
	</outline>
</glyph>
